<svg xmlns="http://www.w3.org/2000/svg" width="28" height="28" viewBox="0 0 28 28">
  <g id="Chartered_Accountants" transform="translate(-102 -285)">
    <path id="Rectangle_6234" d="M0,0H28V28H0Z" transform="translate(102 285)" fill="none"/>
    <g id="Group_13184" transform="translate(102 285)">
      <g id="daily-needs-icn">
        <path id="Rectangle_91" d="M0,0H28V28H0Z" fill="none"/>
      </g>
      <path id="Rectangle_27" d="M0,0H28V28H0Z" fill="none"/>
    </g>
    <g id="automobile" transform="translate(102 285)">
      <path id="Rectangle_53" d="M0,0H28V28H0Z" fill="none"/>
      <g id="calculator" transform="translate(-8.705 3.371)">
        <rect id="Rectangle_15800" width="16.096" height="20.925" rx="2" transform="translate(14.704 0.166)" fill="#dbe2eb"/>
        <path id="Path_12776" d="M29.527,21.594H16.811a1.776,1.776,0,0,1-1.773-1.773V2.273A1.776,1.776,0,0,1,16.811.5H29.527A1.776,1.776,0,0,1,31.3,2.273V19.818a1.776,1.776,0,0,1-1.773,1.776ZM16.811.664A1.609,1.609,0,0,0,15.2,2.271V19.818a1.609,1.609,0,0,0,1.607,1.607H29.527a1.609,1.609,0,0,0,1.607-1.607V2.273A1.609,1.609,0,0,0,29.526.664Z" transform="translate(-0.417 -0.417)" fill="#dbe2eb"/>
        <g id="Group_14504" transform="translate(14.984 0.237)" opacity="0.5">
          <path id="Path_12777" d="M33.044,3.049V20.593a1.691,1.691,0,0,1-1.691,1.691H18.639a1.691,1.691,0,0,1-1.41-.757,1.683,1.683,0,0,0,.491.071H30.432a1.69,1.69,0,0,0,1.691-1.691V2.364a1.679,1.679,0,0,0-.283-.934,1.691,1.691,0,0,1,1.2,1.619Z" transform="translate(-17.229 -1.43)" fill="#bac2d3"/>
        </g>
        <path id="Path_12778" d="M29.11,21.257H16.395A1.859,1.859,0,0,1,14.538,19.4V1.857A1.859,1.859,0,0,1,16.395,0H29.11a1.859,1.859,0,0,1,1.857,1.857V19.4A1.859,1.859,0,0,1,29.11,21.257ZM16.395.332A1.526,1.526,0,0,0,14.87,1.857V19.4a1.526,1.526,0,0,0,1.525,1.525H29.11A1.526,1.526,0,0,0,30.635,19.4V1.857A1.526,1.526,0,0,0,29.11.332Z" transform="translate(0)" fill="#323c6b" stroke="#323c6b" stroke-width="0.4"/>
        <path id="Path_12779" d="M27.152,14.089H39.334v5.057H27.152Z" transform="translate(-10.519 -11.749)" fill="#5fc4f8"/>
        <path id="Path_12780" d="M27.927,55.049H30.18V57.3H27.927Z" transform="translate(-11.165 -45.907)" fill="#84879c"/>
        <path id="Path_12781" d="M27.457,56.638V54.594a.2.2,0,0,1,.2-.2H29.7a.2.2,0,0,1,.2.2v.172h-1.87a.2.2,0,0,0-.2.2v1.872h-.172a.2.2,0,0,1-.2-.2Z" transform="translate(-10.774 -45.36)" fill="#b0b3c1"/>
        <path id="Path_12782" d="M29.9,54.588v2.044a.2.2,0,0,1-.2.2H27.656a.2.2,0,0,1-.2-.2v-.173h1.872a.2.2,0,0,0,.2-.2V54.389H29.7a.2.2,0,0,1,.2.2Z" transform="translate(-10.774 -45.359)" fill="#707583"/>
        <path id="Path_12783" d="M28.651,55.959H26.517a.372.372,0,0,1-.372-.372v-2.13a.372.372,0,0,1,.372-.372h2.134a.372.372,0,0,1,.372.372v2.131A.372.372,0,0,1,28.651,55.959Zm-2.134-2.542a.039.039,0,0,0-.039.039v2.131a.039.039,0,0,0,.039.039h2.134a.039.039,0,0,0,.039-.039V53.457a.039.039,0,0,0-.039-.039Z" transform="translate(-9.682 -44.269)" fill="#323c6b" stroke="#323c6b" stroke-width="0.4"/>
        <path id="Path_12784" d="M56.963,55.049h2.253V57.3H56.963Z" transform="translate(-35.379 -45.907)" fill="#84879c"/>
        <path id="Path_12785" d="M56.493,56.638V54.594a.2.2,0,0,1,.2-.2h2.044a.2.2,0,0,1,.2.2v.172H57.058a.2.2,0,0,0-.2.2v1.872h-.172a.2.2,0,0,1-.2-.2Z" transform="translate(-34.987 -45.36)" fill="#b0b3c1"/>
        <path id="Path_12786" d="M58.934,54.588v2.044a.2.2,0,0,1-.2.2H56.692a.2.2,0,0,1-.2-.2v-.173h1.872a.2.2,0,0,0,.2-.2V54.389h.173A.2.2,0,0,1,58.934,54.588Z" transform="translate(-34.988 -45.359)" fill="#707583"/>
        <path id="Path_12787" d="M57.687,55.959H55.556a.372.372,0,0,1-.372-.372v-2.13a.372.372,0,0,1,.372-.372h2.131a.372.372,0,0,1,.372.372v2.131A.372.372,0,0,1,57.687,55.959Zm-2.131-2.543a.039.039,0,0,0-.039.039v2.131a.039.039,0,0,0,.039.039h2.131a.039.039,0,0,0,.039-.039v-2.13a.039.039,0,0,0-.039-.039Z" transform="translate(-33.896 -44.269)" fill="#323c6b" stroke="#323c6b" stroke-width="0.4"/>
        <path id="Path_12788" d="M27.927,78.149H30.18V80.4H27.927Z" transform="translate(-11.165 -65.171)" fill="#84879c"/>
        <path id="Path_12789" d="M27.457,79.737V77.693a.2.2,0,0,1,.2-.2H29.7a.2.2,0,0,1,.2.2v.172h-1.87a.2.2,0,0,0-.2.2v1.872h-.172a.2.2,0,0,1-.2-.2Z" transform="translate(-10.774 -64.623)" fill="#b0b3c1"/>
        <path id="Path_12790" d="M29.9,77.687v2.044a.2.2,0,0,1-.2.2H27.656a.2.2,0,0,1-.2-.2v-.173h1.872a.2.2,0,0,0,.2-.2V77.488H29.7a.2.2,0,0,1,.2.2Z" transform="translate(-10.774 -64.622)" fill="#707583"/>
        <path id="Path_12791" d="M28.651,79.059H26.517a.372.372,0,0,1-.372-.372V76.556a.372.372,0,0,1,.372-.372h2.134a.372.372,0,0,1,.372.372v2.131a.372.372,0,0,1-.372.372Zm-2.134-2.543a.039.039,0,0,0-.039.039v2.131a.039.039,0,0,0,.039.039h2.134a.04.04,0,0,0,.039-.039V76.556a.039.039,0,0,0-.039-.039Z" transform="translate(-9.682 -63.532)" fill="#323c6b" stroke="#323c6b" stroke-width="0.4"/>
        <path id="Path_12792" d="M56.963,78.149h2.253V80.4H56.963Z" transform="translate(-35.379 -65.171)" fill="#84879c"/>
        <path id="Path_12793" d="M56.493,79.737V77.693a.2.2,0,0,1,.2-.2h2.044a.2.2,0,0,1,.2.2v.172H57.058a.2.2,0,0,0-.2.2v1.872h-.172a.2.2,0,0,1-.2-.2Z" transform="translate(-34.987 -64.623)" fill="#b0b3c1"/>
        <path id="Path_12794" d="M58.934,77.687v2.044a.2.2,0,0,1-.2.2H56.692a.2.2,0,0,1-.2-.2v-.173h1.872a.2.2,0,0,0,.2-.2V77.488h.173a.2.2,0,0,1,.2.2Z" transform="translate(-34.988 -64.622)" fill="#707583"/>
        <path id="Path_12795" d="M57.687,79.059H55.556a.372.372,0,0,1-.372-.372V76.556a.372.372,0,0,1,.372-.372h2.131a.372.372,0,0,1,.372.372v2.131a.372.372,0,0,1-.373.371Zm-2.131-2.543a.039.039,0,0,0-.039.039v2.131a.04.04,0,0,0,.039.039h2.131a.039.039,0,0,0,.039-.039V76.556a.039.039,0,0,0-.039-.039Z" transform="translate(-33.896 -63.532)" fill="#323c6b" stroke="#323c6b" stroke-width="0.4"/>
        <path id="Path_12796" d="M27.927,101.248H30.18v2.25H27.927Z" transform="translate(-11.165 -84.433)" fill="#84879c"/>
        <path id="Path_12797" d="M27.457,102.836v-2.044a.2.2,0,0,1,.2-.2H29.7a.2.2,0,0,1,.2.2v.172h-1.87a.2.2,0,0,0-.2.2v1.872h-.172a.2.2,0,0,1-.2-.2Z" transform="translate(-10.774 -83.886)" fill="#b0b3c1"/>
        <path id="Path_12798" d="M29.9,100.787v2.044a.2.2,0,0,1-.2.2H27.656a.2.2,0,0,1-.2-.2v-.172h1.873a.2.2,0,0,0,.2-.2v-1.873H29.7a.2.2,0,0,1,.2.2Z" transform="translate(-10.773 -83.885)" fill="#707583"/>
        <path id="Path_12799" d="M28.651,102.158H26.517a.372.372,0,0,1-.372-.372V99.655a.372.372,0,0,1,.372-.372h2.134a.372.372,0,0,1,.372.372v2.131a.372.372,0,0,1-.372.372Zm-2.134-2.544a.039.039,0,0,0-.039.039v2.131a.039.039,0,0,0,.039.039h2.134a.039.039,0,0,0,.039-.039V99.655a.04.04,0,0,0-.039-.039Z" transform="translate(-9.682 -82.795)" fill="#323c6b" stroke="#323c6b" stroke-width="0.4"/>
        <path id="Path_12800" d="M56.963,101.248h2.253v2.25H56.963Z" transform="translate(-35.379 -84.433)" fill="#84879c"/>
        <path id="Path_12801" d="M56.493,102.836v-2.044a.2.2,0,0,1,.2-.2h2.044a.2.2,0,0,1,.2.2v.172H57.058a.2.2,0,0,0-.2.2v1.872h-.172a.2.2,0,0,1-.2-.2Z" transform="translate(-34.987 -83.886)" fill="#b0b3c1"/>
        <path id="Path_12802" d="M58.934,100.787v2.044a.2.2,0,0,1-.2.2H56.692a.2.2,0,0,1-.2-.2v-.172h1.873a.2.2,0,0,0,.2-.2v-1.872h.173a.2.2,0,0,1,.195.2Z" transform="translate(-34.987 -83.885)" fill="#707583"/>
        <path id="Path_12803" d="M57.687,102.158H55.556a.372.372,0,0,1-.372-.372V99.655a.372.372,0,0,1,.372-.372h2.131a.372.372,0,0,1,.372.372v2.131a.372.372,0,0,1-.373.372Zm-2.131-2.543a.04.04,0,0,0-.039.039v2.131a.039.039,0,0,0,.039.039h2.131a.039.039,0,0,0,.039-.039V99.655a.039.039,0,0,0-.039-.039Z" transform="translate(-33.896 -82.795)" fill="#323c6b" stroke="#323c6b" stroke-width="0.4"/>
        <path id="Path_12804" d="M86,55.049h2.253V57.3H86Z" transform="translate(-59.593 -45.907)" fill="#84879c"/>
        <path id="Path_12805" d="M85.529,56.638V54.594a.2.2,0,0,1,.2-.2H87.77a.2.2,0,0,1,.2.2v.172H86.094a.2.2,0,0,0-.2.2v1.872h-.172a.2.2,0,0,1-.2-.2Z" transform="translate(-59.201 -45.36)" fill="#b0b3c1"/>
        <path id="Path_12806" d="M87.97,54.588v2.044a.2.2,0,0,1-.2.2H85.728a.2.2,0,0,1-.2-.2v-.173H87.4a.2.2,0,0,0,.2-.2V54.389h.172a.2.2,0,0,1,.2.2Z" transform="translate(-59.202 -45.359)" fill="#707583"/>
        <path id="Path_12807" d="M86.723,55.959H84.592a.372.372,0,0,1-.372-.372v-2.13a.372.372,0,0,1,.372-.372h2.131a.372.372,0,0,1,.372.372v2.131a.372.372,0,0,1-.372.37Zm-2.131-2.543a.039.039,0,0,0-.039.039v2.131a.039.039,0,0,0,.039.039h2.131a.039.039,0,0,0,.039-.039v-2.13a.039.039,0,0,0-.039-.039Z" transform="translate(-58.11 -44.269)" fill="#323c6b" stroke="#323c6b" stroke-width="0.4"/>
        <path id="Path_12808" d="M86,78.149h2.253V80.4H86Z" transform="translate(-59.593 -65.171)" fill="#84879c"/>
        <path id="Path_12809" d="M85.529,79.737V77.693a.2.2,0,0,1,.2-.2H87.77a.2.2,0,0,1,.2.2v.172H86.094a.2.2,0,0,0-.2.2v1.872h-.172a.2.2,0,0,1-.2-.2Z" transform="translate(-59.201 -64.623)" fill="#b0b3c1"/>
        <path id="Path_12810" d="M87.97,77.687v2.044a.2.2,0,0,1-.2.2H85.728a.2.2,0,0,1-.2-.2v-.173H87.4a.2.2,0,0,0,.2-.2V77.488h.172a.2.2,0,0,1,.2.2Z" transform="translate(-59.202 -64.622)" fill="#707583"/>
        <path id="Path_12811" d="M86.723,79.059H84.592a.372.372,0,0,1-.372-.372V76.556a.372.372,0,0,1,.372-.372h2.131a.372.372,0,0,1,.372.372v2.131a.372.372,0,0,1-.372.371Zm-2.131-2.543a.039.039,0,0,0-.039.039v2.131a.039.039,0,0,0,.039.039h2.131a.039.039,0,0,0,.039-.039V76.556a.039.039,0,0,0-.039-.039Z" transform="translate(-58.11 -63.532)" fill="#323c6b" stroke="#323c6b" stroke-width="0.4"/>
        <path id="Path_12812" d="M86,101.248h2.253v2.25H86Z" transform="translate(-59.593 -84.433)" fill="#84879c"/>
        <path id="Path_12813" d="M85.529,102.836v-2.044a.2.2,0,0,1,.2-.2H87.77a.2.2,0,0,1,.2.2v.172H86.094a.2.2,0,0,0-.2.2v1.872h-.172a.2.2,0,0,1-.2-.2Z" transform="translate(-59.201 -83.886)" fill="#b0b3c1"/>
        <path id="Path_12814" d="M87.97,100.787v2.044a.2.2,0,0,1-.2.2H85.728a.2.2,0,0,1-.2-.2v-.172H87.4a.2.2,0,0,0,.2-.2v-1.872h.172a.2.2,0,0,1,.195.2Z" transform="translate(-59.201 -83.885)" fill="#707583"/>
        <path id="Path_12815" d="M86.723,102.158H84.592a.372.372,0,0,1-.372-.372V99.655a.372.372,0,0,1,.372-.372h2.131a.372.372,0,0,1,.372.372v2.131a.372.372,0,0,1-.372.372Zm-2.131-2.543a.039.039,0,0,0-.039.039v2.131a.039.039,0,0,0,.039.039h2.131a.039.039,0,0,0,.039-.039V99.655a.039.039,0,0,0-.039-.039Z" transform="translate(-58.11 -82.795)" fill="#323c6b" stroke="#323c6b" stroke-width="0.4"/>
        <path id="Path_12818" d="M38.5,18.484H26.315a.164.164,0,0,1-.164-.164V13.264a.164.164,0,0,1,.164-.164H38.5a.164.164,0,0,1,.164.164v5.058A.164.164,0,0,1,38.5,18.484Zm-12.019-.332H38.338V13.427H26.483Z" transform="translate(-9.683 -10.919)" fill="#323c6b" stroke="#323c6b" stroke-width="0.4"/>
      </g>
    </g>
  </g>
</svg>
