<svg xmlns="http://www.w3.org/2000/svg" width="28" height="28" viewBox="0 0 28 28">
    <defs>
        <style>
            .cls-1{fill:none}.cls-2{fill:#f7f6f7}.cls-6{fill:#da4a54}.cls-7{fill:#dd636e}.cls-8{fill:#655e67}.cls-9{fill:#544f56}
        </style>
    </defs>
    <g id="Ambulance_Service" transform="translate(-30 -134)">
        <path id="Rectangle_91" d="M0 0h28v28H0z" class="cls-1" transform="translate(30 134)"/>
        <g id="Daily_Needs" transform="translate(-173 -1192)">
            <path id="Rectangle_91-2" d="M0 0h28v28H0z" class="cls-1" transform="translate(203 1326)"/>
        </g>
        <g id="ambulance" transform="translate(32 104.928)">
            <g id="Group_14925" transform="translate(.366 35.751)">
                <path id="Path_13438" d="M27.2 159.361l-1.654-4.025a1.465 1.465 0 0 0-1.355-.908H8.965a1.465 1.465 0 0 0-1.465 1.465v9.888a1.465 1.465 0 0 0 1.465 1.465H30.3a1.465 1.465 0 0 0 1.465-1.465V162.3a1.465 1.465 0 0 0-1-1.39l-2.969-.99a.977.977 0 0 1-.594-.555z" class="cls-2" transform="translate(-7.5 -152.133)"/>
                <path id="Path_13439" fill="#edebed" d="M327.432 160.906l-2.969-.99a.976.976 0 0 1-.594-.555l-1.654-4.025a1.465 1.465 0 0 0-1.355-.908h-1.46a1.465 1.465 0 0 1 1.355.908l1.654 4.025a.977.977 0 0 0 .594.555l2.969.99a1.465 1.465 0 0 1 1 1.39v3.485a1.465 1.465 0 0 1-1.465 1.465h1.465a1.465 1.465 0 0 0 1.465-1.465V162.3a1.465 1.465 0 0 0-1.005-1.394z" transform="translate(-304.166 -152.133)"/>
                <path id="Path_13440" fill="#bed8fb" d="M261 188.066v-3.394a.244.244 0 0 1 .244-.244h3.839a.244.244 0 0 1 .227.153l1.366 3.394a.244.244 0 0 1-.226.335h-5.2a.244.244 0 0 1-.25-.244z" transform="translate(-248.622 -180.668)"/>
                <path id="Path_13441" fill="#9dc6fb" d="M317.68 187.975l-1.366-3.394a.244.244 0 0 0-.226-.153h-1.465a.244.244 0 0 1 .226.153l1.366 3.394a.244.244 0 0 1-.226.335h1.465a.244.244 0 0 0 .226-.335z" transform="translate(-299.627 -180.668)"/>
                <path id="Path_13442" d="M474.5 323.928h1.465v.732H474.5z" class="cls-6" transform="translate(-451.697 -313.357)"/>
                <path id="Path_13443" d="M292.039 109.723H289.5V108.7a1.27 1.27 0 0 1 2.539 0z" class="cls-7" transform="translate(-275.73 -107.428)"/>
                <path id="Path_13444" d="M303.135 107.428a1.263 1.263 0 0 0-.635.17 1.269 1.269 0 0 1 .635 1.1v1.025h1.27V108.7a1.27 1.27 0 0 0-1.27-1.272z" class="cls-6" transform="translate(-288.096 -107.428)"/>
                <g id="Group_14923" transform="translate(15.527 12.402)">
                    <circle id="Ellipse_905" cx="2.71" cy="2.71" r="2.71" class="cls-8"/>
                    <path id="Path_13445" d="M366.732 361.428a2.709 2.709 0 0 0-.732.1 2.71 2.71 0 0 1 0 5.218 2.71 2.71 0 1 0 .732-5.319z" class="cls-9" transform="translate(-364.022 -361.428)"/>
                    <circle id="Ellipse_906" cx=".732" cy=".732" r=".732" class="cls-2" transform="translate(1.978 1.978)"/>
                </g>
                <g id="Group_14924" transform="translate(2.747 12.402)">
                    <circle id="Ellipse_907" cx="2.71" cy="2.71" r="2.71" class="cls-8"/>
                    <path id="Path_13446" d="M104.982 361.428a2.709 2.709 0 0 0-.732.1 2.71 2.71 0 0 1 0 5.218 2.71 2.71 0 1 0 .732-5.319z" class="cls-9" transform="translate(-102.272 -361.428)"/>
                    <circle id="Ellipse_908" cx=".732" cy=".732" r=".732" class="cls-2" transform="translate(1.978 1.978)"/>
                </g>
                <path id="Path_13447" d="M66.17 186.552h-1.685a.146.146 0 0 1-.146-.146v-1.685a.293.293 0 0 0-.293-.293h-.879a.293.293 0 0 0-.293.293v1.685a.146.146 0 0 1-.146.146h-1.685a.293.293 0 0 0-.293.293v.879a.293.293 0 0 0 .293.293h1.685a.146.146 0 0 1 .146.146v1.685a.293.293 0 0 0 .293.293h.879a.293.293 0 0 0 .293-.293v-1.685a.146.146 0 0 1 .146-.146h1.685a.293.293 0 0 0 .293-.293v-.879a.293.293 0 0 0-.293-.293z" class="cls-7" transform="translate(-58.15 -180.668)"/>
            </g>
            <path id="Path_13448" fill="#333a60" d="M15.405 33.91a.366.366 0 0 0 .366-.366v-1.106a.366.366 0 0 0-.732 0v1.106a.366.366 0 0 0 .366.366zm-1.8.068a.366.366 0 0 0 .638-.36l-.464-.823a.366.366 0 0 0-.638.36zm3.105.139a.367.367 0 0 0 .5-.139l.464-.823a.366.366 0 0 0-.638-.36l-.464.823a.366.366 0 0 0 .136.499zm7.04 10.059l-2.969-.989a.61.61 0 0 1-.371-.347l-1.654-4.025a1.824 1.824 0 0 0-1.696-1.135h-.019v-.659a1.636 1.636 0 0 0-3.271 0v.659H1.831A1.833 1.833 0 0 0 0 39.511v4.37a.366.366 0 0 0 .732 0v-4.37a1.1 1.1 0 0 1 1.1-1.1h9.082v7.91H.732v-2.684a.366.366 0 0 0-.732 0V49.4a1.833 1.833 0 0 0 1.831 1.83h.938a3.075 3.075 0 0 0 6.107 0h6.674a3.075 3.075 0 0 0 6.107 0h1.512A1.833 1.833 0 0 0 25 49.4v-3.486a1.828 1.828 0 0 0-1.252-1.737zM5.823 53.208a2.344 2.344 0 1 1 2.344-2.344 2.346 2.346 0 0 1-2.344 2.344zm5.09-2.71H8.876a3.075 3.075 0 0 0-6.107 0h-.938a1.1 1.1 0 0 1-1.1-1.1v-2.343h10.182zM14.5 37.021a.9.9 0 0 1 1.807 0v.659H14.5zm4.1 16.187a2.344 2.344 0 1 1 2.344-2.344 2.346 2.346 0 0 1-2.344 2.344zm5.664-6.885h-5.582a.366.366 0 0 0 0 .732h5.586V49.4a1.1 1.1 0 0 1-1.1 1.1h-1.511a3.075 3.075 0 0 0-6.107 0h-3.9v-3.445h7.28a.366.366 0 1 0 0-.732h-7.28v-7.91h5.41a1.1 1.1 0 0 1 1.016.681l1.654 4.025a1.342 1.342 0 0 0 .817.764l2.969.989a1.1 1.1 0 0 1 .751 1.042zm-6.874-6.8a.608.608 0 0 0-.566-.382h-3.836a.611.611 0 0 0-.61.61v3.394a.611.611 0 0 0 .61.61h5.2a.617.617 0 0 0 .566-.838zm-4.283 3.5v-3.146h3.634l1.268 3.149zm5.493 6.742a1.1 1.1 0 1 0 1.1 1.1 1.1 1.1 0 0 0-1.1-1.1zm0 1.465a.366.366 0 1 1 .366-.366.367.367 0 0 1-.366.366zM6.262 39.145h-.879a.66.66 0 0 0-.659.659v1.465H3.259a.66.66 0 0 0-.659.659v.879a.66.66 0 0 0 .659.659h1.465v1.465a.66.66 0 0 0 .659.659h.879a.66.66 0 0 0 .659-.659v-1.465h1.465a.66.66 0 0 0 .659-.659v-.879a.66.66 0 0 0-.659-.659H6.921V39.8a.66.66 0 0 0-.659-.655zM8.313 42v.732H6.7a.513.513 0 0 0-.513.513v1.611h-.73v-1.609a.513.513 0 0 0-.513-.513H3.333V42h1.611a.513.513 0 0 0 .513-.513v-1.61h.732v1.611A.513.513 0 0 0 6.7 42zm-2.49 7.764a1.1 1.1 0 1 0 1.1 1.1 1.1 1.1 0 0 0-1.1-1.099zm0 1.465a.366.366 0 1 1 .366-.366.367.367 0 0 1-.366.367z"/>
        </g>
    </g>
</svg>
