<svg xmlns="http://www.w3.org/2000/svg" width="28" height="28" viewBox="0 0 28 28">
    <defs>
        <style>
            .cls-3{fill:#e6e9ed}.cls-4{fill:#f0d0b4}.cls-5{fill:#8ed7e8}.cls-6{fill:#7ac1dd}.cls-7{fill:#656d78}.cls-8{fill:#fcd770}.cls-9{fill:#75b1f2}
        </style>
    </defs>
    <g id="Architects" transform="translate(-32 -209)">
        <g id="daily-needs-icn" transform="translate(32 209)">
            <path id="Rectangle_91" fill="none" d="M0 0h28v28H0z"/>
            <g id="engineer" transform="translate(-3 .5)">
                <g id="Group_15807" transform="translate(6.425 1.403)">
                    <g id="Group_15785" transform="translate(5.075 13.306)">
                        <path id="Path_16174" fill="#ffeaa7" d="M22.808 35a1.3 1.3 0 0 1 .9.355 1.179 1.179 0 0 1 .372.855 1.239 1.239 0 0 1-1.269 1.21h-2.542a1.3 1.3 0 0 1-.9-.355 1.168 1.168 0 0 1-.021-1.69 1.305 1.305 0 0 1 .921-.375z" transform="translate(-19 -35)"/>
                    </g>
                    <g id="Group_15786" transform="translate(5.075 22.242)">
                        <path id="Path_16175" d="M19 57.16a4.356 4.356 0 0 0 1.692.339h3.385v.4a1.239 1.239 0 0 1-1.269 1.21h-2.539A1.239 1.239 0 0 1 19 57.9v-.738z" class="cls-3" transform="translate(-19 -57.16)"/>
                    </g>
                    <g id="Group_15787" transform="translate(5.075 14.516)">
                        <path id="Path_16176" d="M20.269 39.21h2.538a1.239 1.239 0 0 0 1.27-1.21v4.839H24a.87.87 0 0 0-.6.238l-.6.569h-1.685A4.373 4.373 0 0 1 19 43.1V38a1.179 1.179 0 0 0 .372.855 1.3 1.3 0 0 0 .897.355z" class="cls-3" transform="translate(-19 -38)"/>
                    </g>
                    <g id="Group_15788" transform="translate(.205 10.113)">
                        <path id="Path_16177" d="M12.525 30.1l.186.548a1.172 1.172 0 0 0-.351.835v3.665l-1.836-2.617L7.49 28.2a2.511 2.511 0 0 0 2.192.383c1.121-.226 1.921-.891 1.823-1.5z" class="cls-3" transform="translate(-7.49 -27.08)"/>
                    </g>
                    <g id="Group_15789" transform="translate(0 9.274)">
                        <path id="Path_16178" d="M11.225 25.838c.1.613-.7 1.278-1.823 1.5a2.511 2.511 0 0 1-2.192-.383l-.14-.2a.674.674 0 0 1-.047-.129c-.157-.625.656-1.323 1.811-1.556 1.058-.214 2.039.032 2.318.552v.012z" class="cls-4" transform="translate(-7.004 -24.999)"/>
                    </g>
                    <g id="Group_15790" transform="translate(10.998 .073)">
                        <path id="Path_16179" d="M36.791 6.14H33V2.18a4.719 4.719 0 0 1 2.3 1.1 4.366 4.366 0 0 1 1.491 2.86z" class="cls-5" transform="translate(-33 -2.18)"/>
                    </g>
                    <g id="Group_15791" transform="translate(5.515 .073)">
                        <path id="Path_16180" d="M23.831 2.184V6.14H20.04a4.53 4.53 0 0 1 3.791-3.96z" class="cls-5" transform="translate(-20.04 -2.18)"/>
                    </g>
                    <g id="Group_15792" transform="translate(9.306)">
                        <path id="Path_16181" d="M30.692 2.077v3.955H29V2.073a4.969 4.969 0 0 1 1.692 0z" class="cls-6" transform="translate(-29 -2)"/>
                    </g>
                    <g id="Group_15793" transform="translate(4.652 4.032)">
                        <path id="Path_16182" d="M18.863 12h9.714a.415.415 0 0 1 .423.4v.806a.415.415 0 0 1-.423.4H18.423a.415.415 0 0 1-.423-.4V12.4a.415.415 0 0 1 .423-.4z" class="cls-6" transform="translate(-18 -12)"/>
                    </g>
                    <g id="Group_15794" transform="translate(13.114 5.645)">
                        <path id="Path_16183" d="M39.692 16v2.419a1.179 1.179 0 0 0-.372-.855 1.3 1.3 0 0 0-.9-.355H38V16z" class="cls-7" transform="translate(-38 -16)"/>
                    </g>
                    <g id="Group_15795" transform="translate(5.498 5.645)">
                        <path id="Path_16184" d="M21.269 17.21A1.239 1.239 0 0 0 20 18.419V16h1.692v1.21z" class="cls-7" transform="translate(-20 -16)"/>
                    </g>
                    <g id="Group_15796" transform="translate(11.637 11.29)">
                        <path id="Path_16185" d="M40.848 35.185L41.487 30h2.538v6.129a2.67 2.67 0 0 1-.842 1.94 2.941 2.941 0 0 1-2.035.8 2.891 2.891 0 0 1-2.572-1.516l-.474-.9V42.9h-3.385v-1.61a.829.829 0 0 0 .846-.806v-.806a.829.829 0 0 0-.846-.806v-8.066l-.207-.157.207-.246a8.6 8.6 0 0 1 3.583 1.585 8.026 8.026 0 0 1 2.433 2.964z" class="cls-8" transform="translate(-34.51 -30)"/>
                    </g>
                    <g id="Group_15797" transform="translate(5.24 11.694)">
                        <path id="Path_16186" d="M23.93 32.968a1.3 1.3 0 0 0-.9-.355h-2.536a1.305 1.305 0 0 0-.918.375l-.186-.548a7.445 7.445 0 0 1 3.088-1.411L22.61 31l1.69 2.016v.806a1.179 1.179 0 0 0-.37-.854z" class="cls-8" transform="translate(-19.39 -31)"/>
                    </g>
                    <g id="Group_15798" transform="translate(2.537 15.565)">
                        <path id="Path_16187" d="M13.7 40.6l1.836 2.617v1.44a4.372 4.372 0 0 0 2.115.54h1.692v2.419h-2.112a4.357 4.357 0 0 1-1.692-.339A4.028 4.028 0 0 1 13 43.584a6.672 6.672 0 0 1 .7-2.984z" class="cls-8" transform="translate(-13 -40.6)"/>
                    </g>
                    <g id="Group_15799" transform="translate(8.883 22.581)">
                        <path id="Path_16188" d="M30.962 58v1.613H28a1.239 1.239 0 0 0 1.269-1.21V58z" class="cls-9" transform="translate(-28 -58)"/>
                    </g>
                    <g id="Group_15800" transform="translate(10.152 11.94)">
                        <path id="Path_16189" d="M32.692 31.767v8.065h-.423a.829.829 0 0 0-.846-.806H31V33.38l1.485-1.77z" class="cls-9" transform="translate(-31 -31.61)"/>
                    </g>
                    <g id="Group_15801" transform="translate(8.883 19.355)">
                        <path id="Path_16190" d="M31.808 51.613v.806a.829.829 0 0 1-.846.806H28v-2.419l.6-.569a.87.87 0 0 1 .6-.237h.5a.829.829 0 0 1 .846.806h.423a.829.829 0 0 1 .839.807z" class="cls-4" transform="translate(-28 -50)"/>
                    </g>
                    <g id="Group_15802" transform="translate(17.767 7.661)">
                        <path id="Path_16191" d="M52.385 21.806v2.823h-2.539l-.6-.569a.79.79 0 0 1-.25-.573v-.472a.771.771 0 0 1 .25-.569.848.848 0 0 1 .6-.238v-.4a.829.829 0 0 1 .846-.808h.846a.829.829 0 0 1 .847.806z" class="cls-4" transform="translate(-49 -21)"/>
                    </g>
                    <g id="Group_15803" transform="translate(13.059 6.855)">
                        <path id="Path_16192" d="M39.245 19.355a1.179 1.179 0 0 1 .372.855 1.239 1.239 0 0 1-1.269 1.21h-.478a1.41 1.41 0 0 0 .055-.4V19h.423a1.3 1.3 0 0 1 .897.355z" class="cls-4" transform="translate(-37.87 -19)"/>
                    </g>
                    <g id="Group_15804" transform="translate(8.46 10.484)">
                        <path id="Path_16193" d="M29.962 28l.423 1.21-.207.246-1.485 1.77L27 29.21l.423-1.21z" class="cls-4" transform="translate(-27 -28)"/>
                    </g>
                    <g id="Group_15805" transform="translate(7.19 5.645)">
                        <path id="Path_16194" d="M24.055 19.629a1.41 1.41 0 0 1-.055-.4V16h5.923v3.226a1.41 1.41 0 0 1-.055.4 1.676 1.676 0 0 1-1.637 1.21h-2.539a1.676 1.676 0 0 1-1.637-1.207z" class="cls-4" transform="translate(-24 -16)"/>
                    </g>
                    <g id="Group_15806" transform="translate(5.498 6.855)">
                        <path id="Path_16195" d="M21.747 21.419h-.478a1.3 1.3 0 0 1-.9-.355A1.179 1.179 0 0 1 20 20.21 1.239 1.239 0 0 1 21.269 19h.423v2.016a1.41 1.41 0 0 0 .055.403z" class="cls-4" transform="translate(-20 -19)"/>
                    </g>
                </g>
                <path id="Path_16196" fill="#333a60" d="M26.731 8.661h-.846a1.242 1.242 0 0 0-1.269 1.21v.069a1.217 1.217 0 0 0-.846 1.141v.472a1.176 1.176 0 0 0 .372.856l.453.432-.456 3.695a8.865 8.865 0 0 0-5.544-3.784l-.195-.542a2.09 2.09 0 0 0 1.377-1.129h.179a1.656 1.656 0 0 0 1.692-1.613V7.452a.828.828 0 0 0 .846-.806v-.807a.828.828 0 0 0-.846-.806h-.068a4.98 4.98 0 0 0-5-4.032 4.98 4.98 0 0 0-5 4.032h-.08a.828.828 0 0 0-.846.806v.806a.828.828 0 0 0 .846.806v2.017a1.656 1.656 0 0 0 1.692 1.613h.179a2.091 2.091 0 0 0 1.377 1.129l-.19.542a7.986 7.986 0 0 0-2.674 1.125l-.833-2.467c0-.013 0-.027-.005-.04-.212-.85-1.474-1.294-2.878-1.01a3.074 3.074 0 0 0-1.949 1.12 1.144 1.144 0 0 0-.188.924 1.089 1.089 0 0 0 .258.469l2.9 4.138a7.031 7.031 0 0 0-.65 2.94 4.42 4.42 0 0 0 2.538 3.949v.49A1.656 1.656 0 0 0 12.769 26h9.308v-5.279a3.33 3.33 0 0 0 2.623 1.247 3.229 3.229 0 0 0 3.3-3.145V9.871a1.242 1.242 0 0 0-1.269-1.21zm-2.115 2.419a.414.414 0 0 1 .423-.4h.423v-.809a.414.414 0 0 1 .423-.4h.846a.414.414 0 0 1 .423.4v2.419h-1.94l-.474-.452a.392.392 0 0 1-.124-.285zm-6.77 13.307v.806h-1.081a1.54 1.54 0 0 0 .235-.806zm.423-.806h-2.538v-1.85l.474-.452a.438.438 0 0 1 .3-.118H17a.414.414 0 0 1 .423.4v.4h.846a.414.414 0 0 1 .423.4v.806a.414.414 0 0 1-.423.4zm-.728-11.29l.254.726-1.218 1.451-1.218-1.452.254-.726h1.929zm-2.178 2.021c-.019 0-.036-.005-.055-.005h-2.551a7.116 7.116 0 0 1 1.966-.758zm-2.593.8h1.073a1.544 1.544 0 0 0-.227.806v.4h.846v-.4a.847.847 0 1 1 .846.806h-2.539a.807.807 0 1 1 0-1.613zm-.846 2.2a1.737 1.737 0 0 0 .846.224h2.538a1.737 1.737 0 0 0 .846-.224v3.1a1.272 1.272 0 0 0-.547.3l-.474.452h-1.518a3.965 3.965 0 0 1-1.692-.381zm5.923 3.359a1.3 1.3 0 0 0-.847-.316v-4.436a1.528 1.528 0 0 0-.1-.54l.951-1.133zm2.115-10.393V8.661a.807.807 0 1 1 0 1.613zm.846-2.2a1.737 1.737 0 0 0-.846-.224v-.4h.846zm-.086-3.047h-2.876v-3.04a4.073 4.073 0 0 1 2.875 3.041zM17 1.827v3.205h-.846V1.827c.139-.013.28-.02.423-.02s.284.007.423.02zm-1.692.165v3.04h-2.876a4.073 4.073 0 0 1 2.876-3.041zM11.5 5.839h10.154v.806H11.5zm1.693 1.613v.4a1.737 1.737 0 0 0-.846.224v-.624zm-.846 2.016a.828.828 0 0 1 .846-.806v1.613a.828.828 0 0 1-.847-.807zm1.692.806V7.452h5.077v2.823a1.242 1.242 0 0 1-1.269 1.21h-2.539a1.242 1.242 0 0 1-1.27-1.211zm-7.1 1.637a2.31 2.31 0 0 1 1.411-.762 3.409 3.409 0 0 1 .673-.07 1.465 1.465 0 0 1 1.164.387l.041.123a.4.4 0 0 1-.08.275 2.31 2.31 0 0 1-1.411.762 2.109 2.109 0 0 1-1.778-.254l-.083-.119a.358.358 0 0 1-.019-.035.392.392 0 0 1 .08-.307zM8.075 13.5a4.207 4.207 0 0 0 .833-.085 3.466 3.466 0 0 0 1.664-.791l.805 2.383a1.549 1.549 0 0 0-.3.914v2.336l-3.344-4.775c.111.01.225.017.342.017zm1.309 6.452a6.257 6.257 0 0 1 .371-2.13l1.322 1.887v.521a3.681 3.681 0 0 1-.508-.519l-.677.484a4.757 4.757 0 0 0 3.723 1.774h1.269v1.613h-1.692a3.726 3.726 0 0 1-3.808-3.629zm4.654 5.242h-1.269a.828.828 0 0 1-.846-.806v-.172a4.852 4.852 0 0 0 1.269.172h2.962a.828.828 0 0 1-.846.806zM24.7 21.161a2.455 2.455 0 0 1-2.194-1.292l-.429-.819v-1.518h-.846v7.661h-2.539v-.881a1.214 1.214 0 0 0 .846-1.135v-.806a1.214 1.214 0 0 0-.846-1.135v-7.63a7.932 7.932 0 0 1 5.208 4.208l.064.133-.191 1.553.84.094.8-6.5h1.739v5.727a2.4 2.4 0 0 1-2.452 2.34z"/>
            </g>
        </g>
    </g>
</svg>
