<svg xmlns="http://www.w3.org/2000/svg" width="28" height="28" viewBox="0 0 28 28">
    <defs>
        <style>
            .cls-2{fill:#b57a4e}.cls-3{fill:#9b5729}.cls-4{fill:#f66}.cls-9{fill:#ffe2b8}.cls-10{fill:#ffc987}.cls-11{fill:#ffaf10}.cls-12{fill:#f39600}.cls-20{fill:#333a60}
        </style>
    </defs>
    <g id="AC_Service" transform="translate(-448 -193)">
        <path id="Rectangle_91" fill="none" d="M0 0h28v28H0z" transform="translate(448 193)"/>
        <g id="makeup" transform="translate(450 194.932)">
            <path id="Path_16028" d="M181.535 10.406a7.618 7.618 0 0 1 3.23.673 3.233 3.233 0 0 0-6.46 0 7.618 7.618 0 0 1 3.23-.673zm0 0" class="cls-2" transform="translate(-169.947 -7.145)"/>
            <path id="Path_16029" d="M179.851 10.572a3.227 3.227 0 0 1 2.424-2.49 3.259 3.259 0 0 0-.744-.082 3.225 3.225 0 0 0-3.23 3.083 6.926 6.926 0 0 1 1.55-.511zm0 0" class="cls-3" transform="translate(-169.943 -7.145)"/>
            <path id="Path_16030" d="M101.135 384.563a2.208 2.208 0 0 1-1.446-.642l-2.672-2.656h-.969l-2.466 3.776-2.466-3.776h-1.627a3.456 3.456 0 0 0-3.462 3.441v1.249a.245.245 0 0 0 .245.245h14.62a.245.245 0 0 0 .245-.245v-1.249c.001-.047 0-.095-.002-.143zm0 0" class="cls-4" transform="translate(-81.995 -362.917)"/>
            <path id="Path_16031" fill="#fe3745" d="M89.841 381.455l-.124-.189h-.228a3.455 3.455 0 0 0-3.462 3.441v1.249a.245.245 0 0 0 .245.245h1.482a.245.245 0 0 1-.245-.245v-1.249a3.448 3.448 0 0 1 2.332-3.252zm0 0" transform="translate(-81.995 -362.917)"/>
            <path id="Path_16032" fill="#def9ff" d="M172.042 381.266h-.968l-2.466 3.776-2.466-3.776h-1.4l2.884 4.417a1.172 1.172 0 0 0 .814.519h.334a1.172 1.172 0 0 0 .814-.519l2.715-4.157zm0 0" transform="translate(-157.02 -362.917)"/>
            <path id="Path_16033" fill="#f8d5ab" d="M198.468 354.683v-.96a4.659 4.659 0 0 1-.793.068h-1.214a4.661 4.661 0 0 1-.793-.068v.96a.332.332 0 0 1-.333.331h-.735l2.466 3.776 2.466-3.776h-.732a.332.332 0 0 1-.332-.331zm0 0" transform="translate(-185.48 -336.665)"/>
            <path id="Path_16034" fill="#eac092" d="M195.562 379.352a.332.332 0 0 1-.227.09h-.735l2.466 3.776.509-.78zm0 0" transform="translate(-185.48 -361.093)"/>
            <path id="Path_16035" d="M120.594 59.414c-3.439 0-6.227 1.959-6.227 5.34v1.611a.977.977 0 0 1 .254-.034h.786v-1.057a.265.265 0 0 1 .266-.264h4.111a2.246 2.246 0 0 0 1.886-1.043.267.267 0 0 1 .451 0 2.246 2.246 0 0 0 1.886 1.043h1.508a.265.265 0 0 1 .266.264v1.056h.786a.977.977 0 0 1 .254.034v-1.61c0-3.381-2.788-5.34-6.227-5.34zm0 0" class="cls-2" transform="translate(-109.006 -56.152)"/>
            <path id="Path_16036" d="M120.594 59.414c-3.439 0-6.227 1.959-6.227 5.34v1.611a.977.977 0 0 1 .254-.034h.786v-1.057a.265.265 0 0 1 .266-.264h.177v-.257c0-3.134 2.4-5.046 5.486-5.308q-.365-.031-.742-.031zm0 0" class="cls-3" transform="translate(-109.006 -56.152)"/>
            <g id="Group_15608" transform="translate(4.649 7.667)">
                <path id="Path_16037" d="M359.836 209.711a.937.937 0 0 0 .259-.646v-1.15a.958.958 0 0 0-.966-.95h-.762v1.857a2.108 2.108 0 0 1 1.469.889zm0 0" class="cls-9" transform="translate(-346.218 -204.454)"/>
                <path id="Path_16038" d="M99.6 209.847a.261.261 0 0 1 .193-.208 3.46 3.46 0 0 1 1.122-.1v-2.577h-.762a.958.958 0 0 0-.966.95v1.15a.944.944 0 0 0 .413.785zm0 0" class="cls-9" transform="translate(-99.18 -204.454)"/>
                <path id="Path_16039" d="M144.35 161.765a.49.49 0 0 1 .1-.774 2.075 2.075 0 0 1-.348-1.152 2.1 2.1 0 0 1 2.106-2.094 2.159 2.159 0 0 1 .266.017v-2.913a.289.289 0 0 0-.289-.288h-1.508a2.223 2.223 0 0 1-1.866-1.032.29.29 0 0 0-.491 0 2.223 2.223 0 0 1-1.866 1.032h-4.111a.288.288 0 0 0-.289.288v3.633a2.9 2.9 0 0 1 1.825.82 3.023 3.023 0 0 1 .727 2.929.259.259 0 0 1-.063.113 4.61 4.61 0 0 0 2.109.508h1.214a4.607 4.607 0 0 0 2.7-.868zm0 0" class="cls-9" transform="translate(-134.326 -153.395)"/>
            </g>
            <path id="Path_16040" d="M137.326 178.3h-.982a.288.288 0 0 0-.289.288v3.634a3.034 3.034 0 0 1 1 .254q-.021-.219-.022-.443v-3.444a.288.288 0 0 1 .293-.289zm0 0" class="cls-10" transform="translate(-129.677 -169.463)"/>
            <path id="Path_16041" d="M417.706 134.827a.137.137 0 0 1-.127-.086 1.675 1.675 0 0 0-1.177-1.177.137.137 0 0 1 0-.254 1.675 1.675 0 0 0 1.177-1.177.137.137 0 0 1 .254 0 1.675 1.675 0 0 0 1.177 1.177.137.137 0 0 1 0 .254 1.675 1.675 0 0 0-1.177 1.177.137.137 0 0 1-.127.086zm0 0" class="cls-11" transform="translate(-396.801 -125.381)"/>
            <path id="Path_16042" d="M416.889 154.209l-.012-.006a3.28 3.28 0 0 1-.474.224.137.137 0 0 0 0 .254 1.675 1.675 0 0 1 1.177 1.177.137.137 0 0 0 .254 0 3.247 3.247 0 0 1 .229-.482 1.671 1.671 0 0 0-1.174-1.167zm0 0" class="cls-12" transform="translate(-396.801 -146.498)"/>
            <path id="Path_16043" fill="#ffcb00" d="M33.761 135.128a.137.137 0 0 1-.127-.086 1.675 1.675 0 0 0-1.177-1.177.137.137 0 0 1 0-.254 1.675 1.675 0 0 0 1.177-1.177.137.137 0 0 1 .254 0 1.675 1.675 0 0 0 1.177 1.177.137.137 0 0 1 0 .254 1.675 1.675 0 0 0-1.177 1.177.137.137 0 0 1-.127.086zm0 0" transform="translate(-30.854 -125.667)"/>
            <path id="Path_16044" d="M32.941 154.529l-.011-.005a3.311 3.311 0 0 1-.473.224.137.137 0 0 0 0 .254 1.675 1.675 0 0 1 1.177 1.177.137.137 0 0 0 .254 0 3.269 3.269 0 0 1 .227-.479 1.671 1.671 0 0 0-1.174-1.171zm0 0" class="cls-11" transform="translate(-30.854 -146.804)"/>
            <path id="Path_16045" d="M81.994 26.387a.111.111 0 0 1-.1-.07 1.358 1.358 0 0 0-.954-.954.111.111 0 0 1 0-.206 1.358 1.358 0 0 0 .954-.954.111.111 0 0 1 .206 0 1.358 1.358 0 0 0 .954.954.111.111 0 0 1 0 .206 1.358 1.358 0 0 0-.954.954.111.111 0 0 1-.106.07zm0 0" class="cls-11" transform="translate(-77.077 -22.525)"/>
            <path id="Path_16046" d="M82.362 40.928a1.337 1.337 0 0 0-.9-.932 1.976 1.976 0 0 1-.526.281.111.111 0 0 0 0 .206 1.358 1.358 0 0 1 .954.954.111.111 0 0 0 .206 0 2.055 2.055 0 0 1 .266-.507zm0 0" class="cls-12" transform="translate(-77.077 -37.645)"/>
            <path id="Path_16047" fill="#c7c8ca" d="M11.4 341.613l-3.768 4.144a.436.436 0 0 0 0 .62.442.442 0 0 0 .623 0l4.168-3.745zm0 0" transform="translate(-7.147 -325.123)"/>
            <path id="Path_16048" fill="#a7a9ac" d="M11.79 342.006l-.395-.392-3.768 4.144a.436.436 0 0 0 0 .62.442.442 0 0 0 .623 0l.19-.17a.436.436 0 0 1 .045-.566zm0 0" transform="translate(-7.147 -325.123)"/>
            <path id="Path_16049" d="M107.861 262.545a3.067 3.067 0 0 0-2.947-.723.261.261 0 0 0-.2.235l-.162 2.456 1.326 1.318 2.47-.161a.262.262 0 0 0 .237-.2 3.023 3.023 0 0 0-.724-2.925zm0 0" class="cls-3" transform="translate(-99.654 -248.97)"/>
            <path id="Path_16050" fill="#7f441c" d="M112.864 269.277a3.177 3.177 0 0 0-.607.079l-.157 2.344.677-1.132zm0 0" transform="translate(-106.847 -256.178)"/>
            <path id="Path_16051" fill="#8a8c8e" d="M86.725 321.18a.237.237 0 0 1-.333 0l-1.427-1.419a.234.234 0 0 1 0-.331l.47-.467a.236.236 0 0 1 .332 0l1.427 1.418a.234.234 0 0 1 0 .331zm0 0" transform="translate(-80.918 -303.471)"/>
            <path id="Path_16052" fill="#6d6e71" d="M85.534 320.059l.526-.523a.262.262 0 0 1 .21-.074l-.5-.5a.237.237 0 0 0-.333 0l-.47.467a.234.234 0 0 0 0 .331l.492.489a.26.26 0 0 1 .075-.19zm0 0" transform="translate(-80.918 -303.471)"/>
            <path id="Path_16053" fill="#ff99a3" d="M317.013 253.711a1.751 1.751 0 0 0-1.755 1.742 1.724 1.724 0 0 0 .165.738h.08a.1.1 0 1 0 .14-.137.847.847 0 0 1 1.445-.6l.182.181a.848.848 0 0 1 1.442-.529l.025.024a1.754 1.754 0 0 0-1.724-1.419zm0 0" transform="translate(-300.48 -241.342)"/>
            <path id="Path_16054" d="M308.354 249.039a.1.1 0 1 0 .14-.137.835.835 0 0 1 .218-.564v-.032a2.1 2.1 0 0 1 1.629-2.039 2.124 2.124 0 0 0-.477-.055 2.1 2.1 0 0 0-2.106 2.094 2.075 2.075 0 0 0 .179.844.844.844 0 0 1 .417-.111zm0 0" class="cls-4" transform="translate(-293.332 -234.193)"/>
            <path id="Path_16055" d="M309.947 295.088a.257.257 0 0 1-.181-.075l-1.648-1.638a2.251 2.251 0 0 1-.59.079 2.211 2.211 0 0 1-1.569-.646l-3.372-3.352a.49.49 0 0 1 0-.7.5.5 0 0 1 .7 0l1.911 1.9.286-.285-2.548-2.533a.49.49 0 0 1 0-.7.5.5 0 0 1 .7 0l2.548 2.533.287-.285-2.548-2.533a.491.491 0 0 1 0-.7.5.5 0 0 1 .7 0l2.548 2.533.287-.285-1.911-1.9a.492.492 0 0 1 .35-.841.494.494 0 0 1 .35.144l2.45 2.436v-.879a.623.623 0 0 1 1.246 0v2.206a2.2 2.2 0 0 1 .246 1.736l1.646 1.637a.255.255 0 0 1 0 .362l-1.71 1.7a.256.256 0 0 1-.178.086zm0 0" class="cls-10" transform="translate(-288.264 -271.804)"/>
            <path id="Path_16056" d="M231.38 233.767h.572a.352.352 0 0 0 0-.7h-.487v-.853a.352.352 0 1 0-.7 0v.941a.617.617 0 0 0 .615.612zm0 0" class="cls-20" transform="translate(-219.945 -220.514)"/>
            <path id="Path_16057" d="M160.724 214.148a.352.352 0 0 0-.5 0 1.2 1.2 0 0 1-1.68 0 .352.352 0 0 0-.5.5 1.9 1.9 0 0 0 2.671 0 .352.352 0 0 0 .009-.5zm0 0" class="cls-20" transform="translate(-150.543 -203.534)"/>
            <path id="Path_16058" d="M276.5 215.194a1.889 1.889 0 0 0 1.336-.549.352.352 0 0 0-.5-.5 1.194 1.194 0 0 1-1.68 0 .352.352 0 1 0-.5.5 1.889 1.889 0 0 0 1.344.549zm0 0" class="cls-20" transform="translate(-262.167 -203.534)"/>
            <path id="Path_16059" d="M205.4 286.906a.351.351 0 0 0 0 .5 2.617 2.617 0 0 0 1.852.76 2.647 2.647 0 0 0 1.87-.77.352.352 0 0 0-.5-.5 1.941 1.941 0 0 1-2.731.01.351.351 0 0 0-.491 0zm0 0" class="cls-20" transform="translate(-195.675 -272.872)"/>
            <path id="Path_16060" d="M409.124 126.742a1.341 1.341 0 0 1 .98.979.488.488 0 0 0 .908 0 1.342 1.342 0 0 1 .98-.98.488.488 0 0 0 0-.908 1.342 1.342 0 0 1-.98-.98.488.488 0 0 0-.907 0 1.342 1.342 0 0 1-.98.98.488.488 0 0 0 0 .908zm1.434-1.191a1.7 1.7 0 0 0 .738.738.738.738 0 0 1-1.475 0 1.7 1.7 0 0 0 .737-.738zm0 0" class="cls-20" transform="translate(-389.653 -118.232)"/>
            <path id="Path_16061" d="M25.179 127.043a1.342 1.342 0 0 1 .98.98.488.488 0 0 0 .908 0 1.342 1.342 0 0 1 .98-.98.488.488 0 0 0 0-.907 1.342 1.342 0 0 1-.98-.98.488.488 0 0 0-.907 0 1.342 1.342 0 0 1-.98.98.488.488 0 0 0 0 .907zm1.434-1.191a1.7 1.7 0 0 0 .738.738 1.7 1.7 0 0 0-.738.738 1.7 1.7 0 0 0-.738-.738 1.7 1.7 0 0 0 .738-.738zm0 0" class="cls-20" transform="translate(-23.705 -118.519)"/>
            <path id="Path_16062" d="M73.659 18.541a1.027 1.027 0 0 1 .757.757.462.462 0 0 0 .859 0 1.028 1.028 0 0 1 .757-.757.462.462 0 0 0 0-.86 1.028 1.028 0 0 1-.757-.757.462.462 0 0 0-.859 0 1.029 1.029 0 0 1-.758.758.462.462 0 0 0 0 .859zm1.187-.894a1.37 1.37 0 0 0 .465.465 1.371 1.371 0 0 0-.465.465 1.367 1.367 0 0 0-.465-.465 1.367 1.367 0 0 0 .465-.465zm0 0" class="cls-20" transform="translate(-69.928 -15.377)"/>
            <path id="Path_16063" d="M23.821 20.9l-.229-.228a.352.352 0 1 0-.5.5l.161.16-1.575 1.565-1.578-1.575a.352.352 0 0 0-.34-.09 1.9 1.9 0 0 1-.5.067 1.861 1.861 0 0 1-1.321-.543L14.57 17.4a.139.139 0 0 1 0-.2.148.148 0 0 1 .2 0l1.911 1.9a.351.351 0 0 0 .5 0l.286-.285a.352.352 0 0 0 0-.5l-2.547-2.526a.139.139 0 0 1 0-.2.148.148 0 0 1 .2 0l2.548 2.532a.351.351 0 0 0 .5 0l.287-.285a.352.352 0 0 0 0-.5l-2.548-2.533a.139.139 0 0 1 0-.2.148.148 0 0 1 .2 0l2.548 2.533a.351.351 0 0 0 .5 0l.287-.285a.351.351 0 0 0 0-.5l-1.911-1.9a.139.139 0 0 1 0-.2.148.148 0 0 1 .205 0l2.45 2.436a.351.351 0 0 0 .6-.249v-.879a.272.272 0 0 1 .543 0v2.206a.351.351 0 0 0 .052.184 1.852 1.852 0 0 1 .206 1.458.352.352 0 0 0 .091.343l.245.244a.352.352 0 1 0 .5-.5l-.107-.106a2.559 2.559 0 0 0-.281-1.72v-2.11a.975.975 0 0 0-1.95 0v.042l-1.122-1.115a2.426 2.426 0 0 0-.269-1.543 1.282 1.282 0 0 0 .186-.666v-1.15a1.3 1.3 0 0 0-.712-1.155V8.6a5.232 5.232 0 0 0-1.956-4.21 5.973 5.973 0 0 0-1.057-.681 3.587 3.587 0 0 0-7.134 0 5.964 5.964 0 0 0-1.057.681A5.232 5.232 0 0 0 5.009 8.6v1.373a1.3 1.3 0 0 0-.709 1.155v1.15a1.29 1.29 0 0 0 .4.937l-.123 1.869a.581.581 0 0 0-.309.161l-.47.467a.585.585 0 0 0-.037.789l-3.535 3.89a.79.79 0 0 0 .567 1.342.788.788 0 0 0 .552-.224l3.917-3.519a.587.587 0 0 0 .793-.031l.47-.467a.581.581 0 0 0 .162-.308l2.033-.133a.613.613 0 0 0 .168-.035 4.964 4.964 0 0 0 .948.328V18H7.494a3.807 3.807 0 0 0-3.813 3.79v1.249a.6.6 0 0 0 .6.6H18.9a.6.6 0 0 0 .6-.6v-1.048c.083-.007.166-.018.248-.034l1.511 1.5a.608.608 0 0 0 .857 0l1.71-1.7a.607.607 0 0 0 0-.861zM13.34 17.344a4.882 4.882 0 0 0 .493-.143.879.879 0 0 0-.007.1.838.838 0 0 0 .249.6l.1.1h-.835zm4.893-3.582a.847.847 0 0 0-1.442.529l-.182-.181a.847.847 0 0 0-1.445.6.863.863 0 0 0 .013.151.857.857 0 0 0-.154-.014h-.08a1.721 1.721 0 0 1-.165-.738 1.756 1.756 0 0 1 3.479-.325zm-.057-1.485v.016a2.46 2.46 0 0 0-1.025-.55V10.53h.411a.607.607 0 0 1 .615.6zM11.588 1.2a2.883 2.883 0 0 1 2.8 2.175 8.6 8.6 0 0 0-5.6 0 2.883 2.883 0 0 1 2.8-2.175zM5 11.128a.607.607 0 0 1 .615-.6h.411v1.865a3.881 3.881 0 0 0-.851.117.612.612 0 0 0-.107.038.58.58 0 0 1-.068-.27zM.869 20.991L.856 21a.091.091 0 0 1-.128 0 .085.085 0 0 1 0-.121l.012-.013L4.261 17l.5.5zm4.772-3.613l-1.26-1.252.3-.3 1.261 1.253zm2.968-1.025l-2.246.147-.036-.035 1.259-.744a.352.352 0 0 0-.358-.605l-1.41.833.836-1.4a.352.352 0 1 0-.6-.361L5.3 15.445l-.038-.038.147-2.229a3.151 3.151 0 0 1 .706-.082 2.587 2.587 0 0 1 1.844.728 2.664 2.664 0 0 1 .65 2.53zm-.154-3.028a3.212 3.212 0 0 0-1.726-.879v-3.26h1.38a.352.352 0 0 0 0-.7H6.667a.641.641 0 0 0-.641.639v.7h-.313V8.6a4.55 4.55 0 0 1 1.693-3.663 6.64 6.64 0 0 1 4.182-1.324 6.64 6.64 0 0 1 4.182 1.324A4.551 4.551 0 0 1 17.463 8.6v1.227h-.313v-.7a.641.641 0 0 0-.641-.639H15a1.869 1.869 0 0 1-1.568-.867.642.642 0 0 0-1.086 0 1.869 1.869 0 0 1-1.568.868H9.75a.352.352 0 0 0 0 .7h1.028a2.578 2.578 0 0 0 2.112-1.12A2.579 2.579 0 0 0 15 9.186h1.446v2.482a2.454 2.454 0 0 0-2.372 2.444 2.419 2.419 0 0 0 .258 1.089.837.837 0 0 0 .012.994 4.257 4.257 0 0 1-2.15.579h-1.213a4.265 4.265 0 0 1-1.67-.339 3.348 3.348 0 0 0-.856-3.109zm1.4 5.374a.684.684 0 0 0 .684-.682v-.56c.146.013.293.02.442.02H12.2q.223 0 .441-.02v.56a.684.684 0 0 0 .685.682h.074l-1.816 2.781-1.812-2.78zm-5.471 4.233V21.79a3.1 3.1 0 0 1 3.11-3.09h.038l2.768 4.232zm8.5 0l.786-1.2a.352.352 0 0 0-.589-.385l-.8 1.229a.819.819 0 0 1-.547.359h-.279a.82.82 0 0 1-.547-.359L8.372 18.7h.56l2.362 3.616a.352.352 0 0 0 .589 0l2.361-3.616h.56l-.839 1.284a.352.352 0 1 0 .589.385l.788-1.207 2.1 2.091a2.555 2.555 0 0 0 1.346.7v.974zm0 0" class="cls-20"/>
            <path id="Path_16064" fill="#ffaf68" d="M314.676 360.13a1.9 1.9 0 0 0 .5-.067.352.352 0 0 1 .34.09l1.581 1.572.351-.349-1.71-1.7a2.478 2.478 0 0 1-.651.087 2.439 2.439 0 0 1-1.73-.712l-1.019-1.013a.35.35 0 0 1-.236-.1l-1.911-1.9a.148.148 0 0 0-.2 0 .139.139 0 0 0 0 .2l3.372 3.352a1.861 1.861 0 0 0 1.313.54zm0 0" transform="translate(-295.413 -338.832)"/>
        </g>
    </g>
</svg>
