<svg xmlns="http://www.w3.org/2000/svg" width="28" height="28" viewBox="0 0 28 28">
    <defs>
        <style>
            .cls-2,.cls-3,.cls-5{fill:#05afd6;stroke:#05afd6;stroke-width:.2px}.cls-3,.cls-5{fill:#323c6b;stroke:#323c6b}.cls-5{fill:#fff;stroke-miterlimit:10;stroke-width:.8px}
        </style>
    </defs>
    <g id="Borewell_Contractors" transform="translate(-448 -193)">
        <path id="Rectangle_91" fill="none" d="M0 0h28v28H0z" transform="translate(448 193)"/>
        <g id="Group_14938" transform="translate(403.563 11.368)">
            <path id="Path_13481" d="M65.669 587.05a4.24 4.24 0 0 1-2.06-.564 10.64 10.64 0 0 0-1.271-.527 1.933 1.933 0 0 0-1.637.3c-.47.286-.931.6-1.41.855a2.287 2.287 0 0 1-2.259-.022c-.5-.261-.995-.541-1.49-.818a2.308 2.308 0 0 0-2.16-.082c-.588.257-1.168.54-1.756.8a4.135 4.135 0 0 1-1.783.326 4.961 4.961 0 0 1-3.075-1.168 2.358 2.358 0 0 1-.21-.184.419.419 0 0 1-.066-.5.263.263 0 0 1 .394-.082c.234.171.458.367.7.518a4.354 4.354 0 0 0 2.808.671 6.2 6.2 0 0 0 1.927-.655 12.239 12.239 0 0 1 1.431-.577 2.544 2.544 0 0 1 2.032.277c.529.288 1.056.585 1.589.861a1.8 1.8 0 0 0 1.841-.106c.472-.28.933-.589 1.408-.862a2.569 2.569 0 0 1 2.439-.053c.554.244 1.1.508 1.66.739a2.628 2.628 0 0 0 1.164.159 2.088 2.088 0 0 1 .271-.013.339.339 0 0 1 .281.371.325.325 0 0 1-.286.343c-.16 0-.321-.007-.482-.007z" class="cls-2" transform="translate(2 -379.618)"/>
            <path id="Path_13482" d="M65.747 530.46a4.254 4.254 0 0 1-2.047-.554 12.819 12.819 0 0 0-1.269-.534 1.812 1.812 0 0 0-1.556.225c-.464.273-.918.57-1.382.843a2.34 2.34 0 0 1-2.4.055c-.5-.26-.995-.542-1.489-.82a2.312 2.312 0 0 0-2.174-.08c-.587.259-1.168.54-1.755.8a4.076 4.076 0 0 1-1.678.321 4.971 4.971 0 0 1-3.341-1.312.415.415 0 0 1-.145-.434c.036-.159.13-.25.255-.243a.44.44 0 0 1 .25.11 4.8 4.8 0 0 0 1.4.855 4.456 4.456 0 0 0 1.922.287 6.24 6.24 0 0 0 2.174-.73 8.9 8.9 0 0 1 1.437-.553 2.545 2.545 0 0 1 1.9.321c.529.29 1.054.591 1.589.862a1.8 1.8 0 0 0 1.828-.11c.49-.291.972-.6 1.465-.885a2.287 2.287 0 0 1 2.046-.148c.551.214 1.089.481 1.633.724a3.176 3.176 0 0 0 1.6.283 1.107 1.107 0 0 1 .211-.006.346.346 0 0 1 .271.347.357.357 0 0 1-.266.372.288.288 0 0 1-.045 0z" class="cls-2" transform="translate(1.94 -325.813)"/>
            <g id="Group_14939" transform="translate(53.077 184.632)">
                <path id="Path_13483" d="M184.081 193v-7.536c0-.084 0-.168.005-.251a.337.337 0 0 1 .293-.314.322.322 0 0 1 .361.23.81.81 0 0 1 .035.246v15.378a.369.369 0 0 1-.37.363.348.348 0 0 1-.322-.382v-3.822l-.002-3.912z" class="cls-3" transform="translate(-184.081 -184.882)"/>
                <path id="Path_13484" d="M384.895 193.019v-7.54-.233a.349.349 0 0 1 .335-.335.353.353 0 0 1 .351.32 1.578 1.578 0 0 1 .005.2v15.187a1.749 1.749 0 0 1 0 .2.344.344 0 0 1-.686 0c-.008-.077 0-.155 0-.233v-7.557z" class="cls-3" transform="translate(-375.41 -184.898)"/>
                <path id="Path_13488" fill="#fcd462" d="M2373.951-187.687h-4.045v11.444l1.973 3.42 2.269-3.42z" transform="translate(-2366.848 188.016)"/>
                <path id="Path_13485" d="M238.951 187.678v-2.566c0-.345.13-.478.478-.478h4.038c.339 0 .472.133.472.467v8.875c0 .257-.106.4-.293.428a.328.328 0 0 1-.393-.352v-7.116-1.4c0-.164-.059-.22-.221-.22h-3.159c-.213 0-.227.016-.227.242v10.081a.33.33 0 0 1-.335.362.337.337 0 0 1-.357-.362c-.005-.149 0-.3 0-.449v-7.515z" class="cls-3" transform="translate(-236.358 -184.632)"/>
                <path id="Path_13486" d="M243.847 371.177c0 .425.009.85-.005 1.274a.835.835 0 0 1-.116.4c-.673 1.059-1.356 2.112-2.037 3.166a.366.366 0 0 1-.673 0c-.68-1.048-1.36-2.1-2.03-3.149a.952.952 0 0 1-.124-.417 6.73 6.73 0 0 1 0-.7.364.364 0 0 1 .347-.383.358.358 0 0 1 .346.38.092.092 0 0 1 0 .018 1.815 1.815 0 0 0 .417 1.374c.441.624.838 1.28 1.254 1.921.113.175.146.177.258 0 .534-.822 1.069-1.643 1.6-2.47a.6.6 0 0 0 .079-.3c.006-.837 0-1.675.005-2.512 0-.275.153-.417.4-.383.182.025.287.167.289.412v1.364z" class="cls-3" transform="translate(-236.264 -360.671)"/>
                <path id="Path_13487" d="M249.919 289.338l-4.272.727v1.985l4.272-.738z" class="cls-5" transform="translate(-242.677 -286.395)"/>
                <path id="Path_13489" d="M249.919 289.338l-4.272.727v1.985l4.272-.738z" class="cls-5" transform="translate(-242.677 -282.185)"/>
            </g>
        </g>
    </g>
</svg>
