<svg xmlns="http://www.w3.org/2000/svg" width="28" height="28" viewBox="0 0 28 28">
    <defs>
        <style>
            .cls-3{fill:#e1e6e9}.cls-4{fill:#ffd39f}.cls-5{fill:#323c6b;stroke:#323c6b;stroke-width:.3px}.cls-8{fill:#fcd462}.cls-11{fill:#27a2db}.cls-13{fill:#ebc047}.cls-14{fill:#84879c}
        </style>
    </defs>
    <g id="Builders_Contractors" transform="translate(-244 -327)">
        <g id="worker" transform="translate(239.465 327)">
            <path id="Path_13539" fill="#eeefee" d="M20.992 47.242a8.317 8.317 0 0 1 4.257 1.794 6.3 6.3 0 0 1 1.984 4.681v1.1h-17.2v-1.085a6.351 6.351 0 0 1 2.282-4.953 8.571 8.571 0 0 1 3.958-1.536" transform="translate(-.34 -30.466)"/>
            <path id="Path_13540" d="M10.04 68h3.886v.957H10.04z" class="cls-3" transform="translate(-.344 -44.604)"/>
            <path id="Path_13541" d="M55.959 51.746a5.184 5.184 0 0 0-.692-.526 6.378 6.378 0 0 1 1.559 4.251v1.1h-11.7v.957h12.816v-1.1a6.292 6.292 0 0 0-1.984-4.681z" class="cls-3" transform="translate(-31.052 -33.175)"/>
            <path id="Path_13542" d="M34.322 43.685v1.629a1.043 1.043 0 0 1-.725 1 5.473 5.473 0 0 1-3.279 0 1.038 1.038 0 0 1-.711-1v-1.629" class="cls-4" transform="translate(-13.67 -28.043)"/>
            <path id="Path_13543" d="M31.6 46.388a5.616 5.616 0 0 1-1.669-.255 1.2 1.2 0 0 1-.824-1.148v-1.641a.159.159 0 1 1 .319 0v1.639a.881.881 0 0 0 .6.844 5.344 5.344 0 0 0 3.185 0 .877.877 0 0 0 .612-.851v-1.632a.159.159 0 0 1 .319 0v1.629a1.2 1.2 0 0 1-.842 1.157 5.862 5.862 0 0 1-1.7.258z" class="cls-5" transform="translate(-13.33 -27.703)"/>
            <path id="Path_13544" fill="#05afd6" d="M23.125 58.139h8.849v4.1h-8.849z" transform="translate(-9.256 -37.888)"/>
            <path id="Path_13545" d="M20.284 26.754a1.491 1.491 0 0 0-.824 1.282 1.524 1.524 0 0 0 1.373 1.564h8.441a1.523 1.523 0 0 0 1.373-1.563 1.485 1.485 0 0 0-.852-1.294z" class="cls-4" transform="translate(-6.76 -16.502)"/>
            <path id="Path_13546" d="M28.933 29.417h-8.44a1.684 1.684 0 0 1-1.533-1.722 1.647 1.647 0 0 1 .918-1.428.156.156 0 0 1 .064-.014l9.511-.012a.153.153 0 0 1 .061.012 1.634 1.634 0 0 1 .952 1.442 1.685 1.685 0 0 1-1.533 1.722zm-8.954-2.844a1.337 1.337 0 0 0-.7 1.122 1.36 1.36 0 0 0 1.214 1.4h8.44a1.348 1.348 0 0 0 .489-2.538z" class="cls-5" transform="translate(-6.42 -16.162)"/>
            <path id="Path_13547" d="M32.124 24.452v3a4.906 4.906 0 0 1-2.647 4.008 3.112 3.112 0 0 1-3.3 0 4.9 4.9 0 0 1-2.643-4.008v-3.136z" class="cls-4" transform="translate(-9.536 -14.851)"/>
            <path id="Path_13548" fill="#e9b87e" d="M37.281 24.713v3a4.909 4.909 0 0 1-2.644 4.009 3.12 3.12 0 0 1-3.3 0c-.077-.048-.153-.1-.23-.15a3.1 3.1 0 0 0 2.752-.271 4.9 4.9 0 0 0 2.65-4.001v-2.6z" transform="translate(-14.695 -15.112)"/>
            <path id="Path_13549" d="M31.66 7.716v.7h-9.4v-.7a4.7 4.7 0 0 1 4.7-4.7 4.621 4.621 0 0 1 1.671.309 4.694 4.694 0 0 1 3.03 4.392z" class="cls-8" transform="translate(-8.664 -.342)"/>
            <path id="Path_13550" d="M35.1 3.323v5.093h-3.341V3.32a4.688 4.688 0 0 1 1.671-.306 4.621 4.621 0 0 1 1.671.309z" class="cls-8" transform="translate(-15.137 -.342)"/>
            <circle id="Ellipse_918" cx=".877" cy=".877" r=".877" fill="#fff" stroke="#323c6b" stroke-width="0.3px" transform="translate(17.417 4.489)"/>
            <path id="Path_13557" fill="#323c6b" d="M34.787 10.284a1.036 1.036 0 1 1 1.036-1.036 1.036 1.036 0 0 1-1.036 1.036zm0-1.754a.717.717 0 1 0 .717.717.717.717 0 0 0-.717-.717z" transform="translate(-16.494 -3.882)"/>
            <path id="Path_13558" d="M19.375 68h9.036v.957h-9.036z" class="cls-11" transform="translate(-5.533 -44.604)"/>
            <path id="Path_13559" fill="#323c6b" stroke="#303a68" stroke-width="0.3px" d="M31.634 62.06h-8.85a.159.159 0 0 1-.159-.159V57.8a.159.159 0 0 1 .159-.159h8.849a.159.159 0 0 1 .159.159v4.1a.159.159 0 0 1-.158.16zm-8.69-.319h8.53v-3.782h-8.53z" transform="translate(-8.916 -37.548)"/>
            <path id="Path_13562" d="M26.892 54.637H9.695a.159.159 0 0 1-.159-.159V53.39a6.469 6.469 0 0 1 2.341-5.077 8.729 8.729 0 0 1 4.036-1.57.157.157 0 0 1 .18.136.159.159 0 0 1-.136.18 8.4 8.4 0 0 0-3.88 1.5 6.153 6.153 0 0 0-2.223 4.831v.928h16.878v-.941a6.138 6.138 0 0 0-1.932-4.563 8.171 8.171 0 0 0-4.172-1.754.159.159 0 1 1 .044-.316 8.494 8.494 0 0 1 4.343 1.834 6.456 6.456 0 0 1 2.035 4.8v1.1a.159.159 0 0 1-.158.159z" class="cls-5" transform="translate(0 -30.125)"/>
            <path id="Path_13563" d="M27.963 3.974a4.714 4.714 0 0 0-1.773 1.2 4.469 4.469 0 0 1 1.773-.826z" class="cls-11" transform="translate(-11.344 -.996)"/>
            <path id="Path_13564" d="M35.257 3.307a4.617 4.617 0 0 0-1.634-.3 4.676 4.676 0 0 0-1.581.276v.384a4.638 4.638 0 0 1 3.215.477z" class="cls-13" transform="translate(-15.33 -.339)"/>
            <path id="Path_13565" d="M42.542 4.108v.863a4.692 4.692 0 0 1 2.318 4.05v.144h.615v-.7a4.694 4.694 0 0 0-2.933-4.355z" class="cls-13" transform="translate(-22.481 -1.087)"/>
            <path id="Path_13566" d="M31.319 8.234h-9.4a.159.159 0 0 1-.159-.159v-.7a4.861 4.861 0 1 1 9.723 0v.7a.159.159 0 0 1-.164.159zm-9.244-.319h9.085v-.542a4.542 4.542 0 0 0-9.085 0z" class="cls-5" transform="translate(-8.324)"/>
            <path id="Path_13567" d="M34.761 8.239h-3.343a.159.159 0 0 1-.159-.159v-5.1a.159.159 0 0 1 .1-.149 4.874 4.874 0 0 1 3.457 0 .159.159 0 0 1 .1.149v5.099a.159.159 0 0 1-.155.16zm-3.183-.319H34.6V3.1a4.56 4.56 0 0 0-3.024 0z" class="cls-5" transform="translate(-14.796 -.005)"/>
            <path id="Path_13568" d="M27.488 31.751a3.253 3.253 0 0 1-1.731-.494 5.05 5.05 0 0 1-2.717-4.143v-3.139a.159.159 0 0 1 .048-.114.164.164 0 0 1 .114-.046l8.587.136a.159.159 0 0 1 .157.159v3a5.055 5.055 0 0 1-2.721 4.143 3.278 3.278 0 0 1-1.737.498zm-4.129-7.614v2.977a4.751 4.751 0 0 0 2.567 3.872 2.964 2.964 0 0 0 3.129 0 4.755 4.755 0 0 0 2.571-3.873v-2.844z" class="cls-5" transform="translate(-9.198 -14.51)"/>
            <path id="Path_13569" d="M21.43 25.327c.163.629.317 1.255.317 1.255a.342.342 0 0 0 .351.287h.046a.33.33 0 0 0 .351-.285 3.977 3.977 0 0 1 .2-1.257z" class="cls-14" transform="translate(-8.102 -15.539)"/>
            <path id="Path_13570" d="M21.8 26.69h-.045a.5.5 0 0 1-.51-.429s-.153-.615-.313-1.233a.159.159 0 0 1 .154-.2h1.261a.159.159 0 0 1 .149.217 3.822 3.822 0 0 0-.185 1.2.484.484 0 0 1-.511.445zm-.5-1.543c.143.556.266 1.058.266 1.058a.191.191 0 0 0 .2.166h.034c.1 0 .19-.061.191-.131a4.892 4.892 0 0 1 .136-1.093z" class="cls-5" transform="translate(-7.762 -15.2)"/>
            <path id="Path_13571" d="M48.023 25.328a4.117 4.117 0 0 1 .378 1.419.343.343 0 0 0 .349.267.39.39 0 0 0 .351-.273 7.479 7.479 0 0 0 .3-1.414z" class="cls-14" transform="translate(-26.214 -15.54)"/>
            <path id="Path_13572" d="M48.407 26.833a.5.5 0 0 1-.506-.4l-.04-.237a3.2 3.2 0 0 0-.317-1.126.159.159 0 0 1 .136-.243h1.376a.159.159 0 0 1 .158.183 6.87 6.87 0 0 1-.311 1.454.54.54 0 0 1-.5.368zm-.468-1.686a4.7 4.7 0 0 1 .237 1l.04.234a.186.186 0 0 0 .191.135c.032 0 .128 0 .2-.177a6.724 6.724 0 0 0 .26-1.191z" class="cls-5" transform="translate(-25.872 -15.2)"/>
            <rect id="Rectangle_15899" width="10.852" height="1.715" class="cls-8" rx=".857" transform="translate(12.867 8.073)"/>
            <path id="Path_13573" d="M51.766 20.278v1.059a.328.328 0 0 1-.328.328h-.728a.328.328 0 0 0 .328-.328v-1.059a.328.328 0 0 0-.328-.328h.727a.328.328 0 0 1 .328.328z" class="cls-13" transform="translate(-28.045 -11.877)"/>
            <path id="Path_13574" d="M30.169 21.485h-10.2a.487.487 0 0 1-.485-.485v-1.06a.487.487 0 0 1 .487-.487h10.2a.487.487 0 0 1 .487.487V21a.487.487 0 0 1-.489.485zm-10.2-1.715a.168.168 0 0 0-.168.168V21a.168.168 0 0 0 .168.168h10.2a.168.168 0 0 0 .167-.168v-1.06a.168.168 0 0 0-.168-.168z" class="cls-5" transform="translate(-6.776 -11.537)"/>
        </g>
    </g>
</svg>
