<svg xmlns="http://www.w3.org/2000/svg" width="28" height="28" viewBox="0 0 28 28">
    <defs>
        <style>
            .cls-2{fill:#d9e2e9}.cls-3,.cls-7{fill:#333a60;stroke:#333a60}.cls-12,.cls-3,.cls-5{stroke-width:.2px}.cls-4,.cls-5{fill:#2f3a5a}.cls-5{stroke:#2f3a5a}.cls-7{stroke-width:.3px}.cls-10{fill:#fff}.cls-11{fill:#f0f5f9}.cls-12{fill:#f7b521;stroke:#f7b521}
        </style>
    </defs>
    <g id="Car_on_Hire" transform="translate(-32 -209)">
        <g id="daily-needs-icn" transform="translate(32 209)">
            <path id="Rectangle_91" fill="none" d="M0 0h28v28H0z"/>
            <g id="taxi" transform="translate(1.867 3.984)">
                <rect id="Rectangle_15768" width="3.441" height="5.448" class="cls-2" rx="1" transform="rotate(-.115 7172.918 -972.81)"/>
                <path id="Path_12383" d="M53.086 18.467a.745.745 0 0 0-.718-.546h-3.977a.745.745 0 0 0-.718.546l-.48 1.73h6.373z" class="cls-2" transform="translate(-38.246 -17.731)"/>
                <path id="Path_12384" d="M52.755 19.576h-6.373a.19.19 0 0 1-.183-.24l.48-1.73a.937.937 0 0 1 .9-.685h3.977a.937.937 0 0 1 .9.685l.48 1.73a.19.19 0 0 1-.183.24zm-6.124-.376h5.874l-.413-1.49a.557.557 0 0 0-.535-.407H47.58a.557.557 0 0 0-.535.407z" class="cls-3" transform="translate(-37.435 -16.921)"/>
                <rect id="Rectangle_15765" width="2.11" height="1.461" class="cls-2" rx=".73" transform="translate(21.967 5.783)"/>
                <path id="Path_12385" d="M116.8 48.265h-1.365a.562.562 0 0 1-.562-.562v-.716a.562.562 0 0 1 .562-.562h1.365a.563.563 0 0 1 .562.562v.713a.562.562 0 0 1-.562.565zm-1.364-1.465a.183.183 0 0 0-.183.183v.717a.183.183 0 0 0 .183.183h1.364a.183.183 0 0 0 .183-.183v-.716a.183.183 0 0 0-.183-.183z" class="cls-4" transform="translate(-93.096 -40.832)"/>
                <path id="Path_12386" d="M106.822 55.114a.19.19 0 0 1-.109-.345l1.67-1.174a.19.19 0 1 1 .218.31l-1.67 1.174a.19.19 0 0 1-.109.035z" class="cls-4" transform="translate(-86.416 -46.615)"/>
                <rect id="Rectangle_15766" width="2.11" height="1.461" class="cls-2" rx=".73" transform="rotate(180 1.15 3.622)"/>
                <path id="Path_12387" d="M1.927 48.265H.562A.562.562 0 0 1 0 47.7v-.716a.563.563 0 0 1 .562-.562h1.365a.563.563 0 0 1 .562.562v.716a.562.562 0 0 1-.562.565zM.562 46.8a.183.183 0 0 0-.183.183v.717a.183.183 0 0 0 .183.183h1.365a.183.183 0 0 0 .183-.183v-.716a.183.183 0 0 0-.183-.183z" class="cls-4" transform="translate(0 -40.832)"/>
                <path id="Path_12388" d="M12.419 55.114a.19.19 0 0 1-.109-.035l-1.67-1.174a.19.19 0 1 1 .218-.31l1.67 1.174a.19.19 0 0 1-.109.345z" class="cls-4" transform="translate(-8.558 -46.615)"/>
                <rect id="Rectangle_15767" width="3.441" height="5.448" class="cls-2" rx="1" transform="rotate(-.115 7178.376 -9389.808)"/>
                <path id="Path_12389" d="M99.357 97.66a.892.892 0 0 1-.892-.891l-.007-4.042a.894.894 0 0 1 .891-.894h2.035a.894.894 0 0 1 .893.891l.007 4.042a.892.892 0 0 1-.891.894h-2.035zm2.029-5.451h-2.035a.514.514 0 0 0-.512.514l.007 4.042a.513.513 0 0 0 .513.512h2.035a.513.513 0 0 0 .512-.514l-.007-4.042a.514.514 0 0 0-.513-.512z" class="cls-5" transform="translate(-79.792 -77.629)"/>
                <path id="Path_12390" d="M10.253 97.661a.894.894 0 0 1-.893-.891l-.007-4.042a.892.892 0 0 1 .891-.894h2.035a.869.869 0 0 1 .631.26.886.886 0 0 1 .262.632l.007 4.042a.894.894 0 0 1-.891.894h-2.035zm2.029-5.451h-2.035a.513.513 0 0 0-.512.514l.007 4.042a.514.514 0 0 0 .513.512h2.035a.514.514 0 0 0 .512-.514l-.008-4.041a.513.513 0 0 0-.513-.512z" class="cls-5" transform="translate(-7.58 -77.629)"/>
                <path id="Path_12391" fill="#ffc943" d="M27.26 39.353a14.539 14.539 0 0 1-.46 3.047 1.566 1.566 0 0 1-1.515 1.162l-9.207.012h-.021l-9.213.017a1.558 1.558 0 0 1-1.515-1.154 14.554 14.554 0 0 1-.478-3.15c-.019-.5-.006-.941.016-1.308a4.73 4.73 0 0 1 .562-1.936l1.156-2.161s2.042-4.7 2.907-5.08a16.942 16.942 0 0 1 3.45-.383c1.484-.076 2.911-.111 3.087-.116h.021c.357.007 5.7.112 6.538.473.867.381 2.925 5.074 2.925 5.074l1.164 2.156a4.734 4.734 0 0 1 .566 1.941 12.021 12.021 0 0 1 .02 1.406z" transform="translate(-3.922 -26.145)"/>
                <path id="Path_12392" d="M6.027 42.973a1.744 1.744 0 0 1-1.694-1.3 14.738 14.738 0 0 1-.483-3.191c-.016-.443-.011-.877.016-1.327a4.952 4.952 0 0 1 .584-2.014l1.156-2.161c.205-.474 2.091-4.767 3-5.164a15.357 15.357 0 0 1 3.516-.4c1.315-.068 2.592-.1 3.08-.116l.027.19v-.19c.97.019 5.785.127 6.623.488.91.4 2.81 4.684 3.024 5.172l1.156 2.142a4.9 4.9 0 0 1 .588 2.019 12.129 12.129 0 0 1 .02 1.426 14.712 14.712 0 0 1-.469 3.088 1.754 1.754 0 0 1-1.7 1.3l-9.208.012h-.022l-9.211.017zm9.19-15.479l-.007.19c-.486.012-1.759.048-3.07.115a14.043 14.043 0 0 0-3.383.367c-.581.254-2.031 3.191-2.809 4.982l-1.164 2.176a4.57 4.57 0 0 0-.539 1.859c-.027.436-.032.858-.016 1.289a14.369 14.369 0 0 0 .471 3.11 1.365 1.365 0 0 0 1.327 1.013h.005l9.213-.017h.022l9.206-.012a1.375 1.375 0 0 0 1.331-1.02 14.337 14.337 0 0 0 .457-3.008 11.774 11.774 0 0 0-.019-1.384 4.527 4.527 0 0 0-.545-1.867l-1.164-2.155c-.791-1.8-2.252-4.734-2.834-4.99a41.361 41.361 0 0 0-6.465-.457z" class="cls-7" transform="translate(-3.113 -25.337)"/>
                <path id="Path_12393" fill="#3dbce9" d="M38.6 38.306l-7.785.013h-4.35l-3.452.005 1.638-3.648a.542.542 0 0 1 .479-.317l4.17-.109.534-.016.652-.019.311-.008h.003l.686.016 4.978.123a.54.54 0 0 1 .479.319z" transform="translate(-18.647 -30.931)"/>
                <g id="Group_14394" opacity="0.75" transform="translate(7.816 3.278)">
                    <path id="Path_12394" d="M44.6 34.348l-2.842 4.09h-.529l2.834-4.077z" class="cls-10" transform="translate(-41.229 -34.322)"/>
                    <path id="Path_12395" d="M52.142 34.226l-2.554 4.1h-2.2l2.855-4.108.311-.008h.008z" class="cls-10" transform="translate(-46.218 -34.21)"/>
                </g>
                <path id="Path_12396" d="M22.19 37.708a.19.19 0 0 1-.173-.267l1.64-3.647a.734.734 0 0 1 .645-.43l5.671-.16h.019l5.662.14a.734.734 0 0 1 .646.428l1.652 3.642a.19.19 0 0 1-.172.268l-15.589.026zm7.79-4.125l-5.666.159a.353.353 0 0 0-.31.207l-1.519 3.379 15-.025-1.531-3.375a.352.352 0 0 0-.311-.206l-5.662-.14z" class="cls-7" transform="translate(-17.829 -30.117)"/>
                <path id="Path_12397" d="M46.838 92.831h6.507v1.959h-6.507z" class="cls-11" transform="translate(-37.958 -78.44)"/>
                <path id="Path_12398" d="M52.535 94.171h-6.507a.19.19 0 0 1-.19-.19v-1.959a.19.19 0 0 1 .19-.19h6.507a.19.19 0 0 1 .19.19v1.959a.19.19 0 0 1-.19.19zm-6.318-.379h6.128v-1.58h-6.128z" class="cls-5" transform="translate(-37.148 -77.63)"/>
                <path id="Path_12399" d="M95.229 75.876a.618.618 0 0 0-.657-.389c-.93.121-3.059.512-3.957 1.624a.621.621 0 0 0 .487 1.006h3.53a.626.626 0 0 0 .579-.394 2.438 2.438 0 0 0 .018-1.847z" class="cls-11" transform="translate(-73.328 -64.38)"/>
                <path id="Path_12400" d="M90.284 77.5a.807.807 0 0 1-.733-.463.8.8 0 0 1 .1-.852c.946-1.173 3.168-1.575 4.08-1.693a.8.8 0 0 1 .858.509 2.632 2.632 0 0 1-.019 1.987.811.811 0 0 1-.754.512zm3.551-2.635a.438.438 0 0 0-.057 0c-.866.113-2.973.49-3.833 1.555a.417.417 0 0 0-.051.45.425.425 0 0 0 .391.246h3.53a.434.434 0 0 0 .4-.275 2.235 2.235 0 0 0 .016-1.709.425.425 0 0 0-.4-.272z" class="cls-3" transform="translate(-72.509 -63.569)"/>
                <path id="Path_12401" d="M12.391 75.488a.618.618 0 0 0-.657.389 2.438 2.438 0 0 0 .017 1.848.626.626 0 0 0 .579.394h3.53a.621.621 0 0 0 .487-1.006c-.9-1.112-3.027-1.5-3.957-1.624z" class="cls-11" transform="translate(-9.369 -64.381)"/>
                <path id="Path_12402" d="M15.05 77.5h-3.53a.811.811 0 0 1-.754-.512A2.633 2.633 0 0 1 10.747 75a.8.8 0 0 1 .858-.509c.912.118 3.133.521 4.08 1.693a.8.8 0 0 1 .1.852.807.807 0 0 1-.735.464zm-3.55-2.637a.425.425 0 0 0-.4.273 2.235 2.235 0 0 0 .016 1.709.434.434 0 0 0 .4.275h3.53a.425.425 0 0 0 .391-.246.417.417 0 0 0-.051-.45c-.86-1.066-2.967-1.443-3.833-1.555a.435.435 0 0 0-.057-.006z" class="cls-3" transform="translate(-8.559 -63.57)"/>
                <path id="Path_12408" d="M26.145 64.451h-3.4a.19.19 0 0 1-.147-.07 8.1 8.1 0 0 0-5.44-2.781.19.19 0 0 1-.158-.269l.722-1.493a.19.19 0 1 1 .341.165l-.6 1.244a8.344 8.344 0 0 1 5.374 2.825h3.314a.19.19 0 1 1 0 .379z" class="cls-12" transform="translate(-13.758 -51.611)"/>
                <path id="Path_12409" d="M65.253 64.452h-3.4a.19.19 0 0 1 0-.379h3.314a8.344 8.344 0 0 1 5.374-2.825L69.937 60a.19.19 0 1 1 .341-.165L71 61.332a.19.19 0 0 1-.163.272 8.107 8.107 0 0 0-5.437 2.778.19.19 0 0 1-.147.07z" class="cls-12" transform="translate(-49.97 -51.612)"/>
            </g>
        </g>
    </g>
</svg>
