<svg xmlns="http://www.w3.org/2000/svg" width="28" height="28" viewBox="0 0 28 28">
  <defs>
    <style>
      .cls-1 {
        fill: #ff2424;
        opacity: 0;
      }

      .cls-2 {
        fill: #b6d2dd;
      }

      .cls-3, .cls-6 {
        fill: #323c6b;
      }

      .cls-4 {
        fill: #89c5cd;
      }

      .cls-5 {
        fill: #6eaaad;
      }

      .cls-6 {
        stroke: #323c6b;
        stroke-width: 0.4px;
      }

      .cls-7 {
        fill: #ffd39f;
      }

      .cls-8 {
        fill: #f7be56;
      }

      .cls-9 {
        fill: #27ccbc;
      }

      .cls-10 {
        fill: #21b3a9;
      }
    </style>
  </defs>
  <g id="Civil_Contractors" data-name="Civil Contractors" transform="translate(-244 -327)">
    <path id="Rectangle_6222" data-name="Rectangle 6222" class="cls-1" d="M0,0H28V28H0Z" transform="translate(244 327)"/>
    <g id="color_line" data-name="color line" transform="translate(248.732 329.867)">
      <path id="Path_12583" data-name="Path 12583" class="cls-2" d="M24.78,6.012a5.008,5.008,0,0,0-3.618,4.647H31.176a5.008,5.008,0,0,0-3.618-4.647" transform="translate(-16.793 -4.902)"/>
      <path id="Path_12584" data-name="Path 12584" class="cls-3" d="M30.834,10.475H20.821a.158.158,0,0,1-.158-.163A5.147,5.147,0,0,1,24.4,5.518a.158.158,0,0,1,.088.3,4.831,4.831,0,0,0-3.5,4.337h9.682a4.831,4.831,0,0,0-3.5-4.337.158.158,0,1,1,.088-.3,5.147,5.147,0,0,1,3.732,4.8.158.158,0,0,1-.158.163Z" transform="translate(-16.451 -4.559)"/>
      <path id="Path_12585" data-name="Path 12585" class="cls-4" d="M24.78,6.012a5.008,5.008,0,0,0-3.618,4.647H31.176a5.008,5.008,0,0,0-3.618-4.647" transform="translate(-16.793 -4.902)"/>
      <path id="Path_12586" data-name="Path 12586" class="cls-5" d="M39.984,6.012h-.651v.421h.028a5.011,5.011,0,0,1,3.587,4.226H43.6A5.008,5.008,0,0,0,39.984,6.012Z" transform="translate(-29.219 -4.902)"/>
      <path id="Path_12587" data-name="Path 12587" class="cls-4" d="M34.916,6.188,35.3,3.481A.421.421,0,0,0,34.883,3H32.808a.421.421,0,0,0-.417.481l.384,2.708" transform="translate(-24.469 -2.842)"/>
      <path id="Path_12588" data-name="Path 12588" class="cls-6" d="M34.571,6a.158.158,0,0,1-.158-.18L34.8,3.116a.263.263,0,0,0-.063-.21.259.259,0,0,0-.2-.091H32.462a.259.259,0,0,0-.2.091.263.263,0,0,0-.063.21l.384,2.708a.158.158,0,0,1-.313.045l-.384-2.708a.579.579,0,0,1,.575-.661h2.075a.579.579,0,0,1,.575.66l-.384,2.708A.158.158,0,0,1,34.571,6Z" transform="translate(-24.123 -2.5)"/>
      <path id="Path_12589" data-name="Path 12589" class="cls-7" d="M22.194,25.733V27.64c0,2.106,1.667,3.607,3.011,4.476a3.071,3.071,0,0,0,3.339,0c1.344-.868,3.011-2.371,3.011-4.476V25.733Z" transform="translate(-17.498 -18.388)"/>
      <path id="Path_12590" data-name="Path 12590" class="cls-8" d="M38.969,25.733v1.775c0,2.106-1.667,3.607-3.011,4.476a3.067,3.067,0,0,1-1.883.478,3.067,3.067,0,0,0,2.594-.348c1.344-.868,3.011-2.371,3.011-4.476V25.733Z" transform="translate(-25.623 -18.388)"/>
      <path id="Path_12591" data-name="Path 12591" class="cls-9" d="M26.221,55.5v0H7.841v0a7.543,7.543,0,0,1,6.252-7.431,10.965,10.965,0,0,0,1.113.822,3.357,3.357,0,0,0,3.651,0,10.965,10.965,0,0,0,1.112-.822A7.543,7.543,0,0,1,26.221,55.5Z" transform="translate(-7.683 -33.665)"/>
      <path id="Path_12592" data-name="Path 12592" class="cls-10" d="M7.927,68.125a7.567,7.567,0,0,0-.086,1.092v0h18.38v0a7.567,7.567,0,0,0-.086-1.092Z" transform="translate(-7.683 -47.378)"/>
      <path id="Path_12593" data-name="Path 12593" class="cls-10" d="M45.182,48.072c-.156.132-.313.253-.47.37a7.535,7.535,0,0,1,5.814,7.065h.91v0a7.543,7.543,0,0,0-6.253-7.431Z" transform="translate(-32.897 -33.665)"/>
      <g id="Group_14418" data-name="Group 14418" transform="translate(3.589 0.952)">
        <path id="Path_12598" data-name="Path 12598" class="cls-6" d="M30.054,64.42h-11.2a.158.158,0,0,1-.158-.158V61.033a.158.158,0,1,1,.316,0V64.1H29.9V61.033a.158.158,0,1,1,.316,0v3.229A.158.158,0,0,1,30.054,64.42Z" transform="translate(-18.693 -43.372)"/>
        <path id="Path_12599" data-name="Path 12599" class="cls-6" d="M30.834,10.475H20.821a.158.158,0,0,1-.158-.163A5.147,5.147,0,0,1,24.4,5.518a.158.158,0,0,1,.088.3,4.831,4.831,0,0,0-3.5,4.337h9.682a4.831,4.831,0,0,0-3.5-4.337.158.158,0,1,1,.088-.3,5.147,5.147,0,0,1,3.732,4.8.158.158,0,0,1-.158.163Z" transform="translate(-20.04 -5.511)"/>
      </g>
      <rect id="Rectangle_15781" data-name="Rectangle 15781" class="cls-4" width="11.104" height="1.992" rx="0.996" transform="translate(3.824 5.353)"/>
      <path id="Path_12600" data-name="Path 12600" class="cls-5" d="M30.543,19.828v1.2a.4.4,0,0,1-.4.4H19.838a.4.4,0,0,1-.4-.4v-.193H29.6a.4.4,0,0,0,.4-.4v-1h.145a.4.4,0,0,1,.4.4Z" transform="translate(-15.615 -14.078)"/>
      <path id="Path_12601" data-name="Path 12601" class="cls-6" d="M26.532,32.423a3.234,3.234,0,0,1-1.756-.517C23.371,31,21.693,29.46,21.693,27.3V25.39a.158.158,0,0,1,.158-.158h9.362a.158.158,0,0,1,.158.158V27.3c0,2.163-1.676,3.7-3.084,4.609a3.234,3.234,0,0,1-1.756.517Zm-4.523-6.875V27.3c0,2.02,1.6,3.478,2.94,4.343a2.924,2.924,0,0,0,3.168,0c1.341-.866,2.94-2.323,2.94-4.343V25.548Z" transform="translate(-17.156 -18.045)"/>
      <path id="Path_12602" data-name="Path 12602" class="cls-6" d="M25.879,55.322H7.5a.158.158,0,0,1-.158-.158,7.679,7.679,0,0,1,6.384-7.59.158.158,0,0,1,.129.035,10.84,10.84,0,0,0,1.1.809,3.207,3.207,0,0,0,3.478,0,10.845,10.845,0,0,0,1.1-.809.156.156,0,0,1,.129-.035,7.678,7.678,0,0,1,6.384,7.587v0A.158.158,0,0,1,25.879,55.322ZM7.658,55.006H25.72A7.361,7.361,0,0,0,19.672,47.9a11.284,11.284,0,0,1-1.071.785,3.525,3.525,0,0,1-3.823,0,11.278,11.278,0,0,1-1.072-.785,7.361,7.361,0,0,0-6.047,7.108Z" transform="translate(-7.341 -33.322)"/>
      <path id="Path_12605" data-name="Path 12605" class="cls-6" d="M29.8,21.239H19.5a.557.557,0,0,1-.556-.556v-1.2a.557.557,0,0,1,.556-.556H29.8a.557.557,0,0,1,.556.556v1.2A.557.557,0,0,1,29.8,21.239ZM19.5,19.247a.241.241,0,0,0-.24.24v1.2a.241.241,0,0,0,.24.24H29.8a.241.241,0,0,0,.24-.24v-1.2a.241.241,0,0,0-.24-.24Z" transform="translate(-15.273 -13.736)"/>
    </g>
  </g>
</svg>
