<svg xmlns="http://www.w3.org/2000/svg" id="Laptop_Repairs" width="28" height="28" viewBox="0 0 28 28">
    <defs>
        <style>
            .cls-1{fill:none}.cls-6{fill:#333a60;stroke:#333a60;stroke-width:.2px}
        </style>
    </defs>
    <path id="Rectangle_91" d="M0 0h28v28H0z" class="cls-1"/>
    <g id="daily-needs-icn">
        <path id="Rectangle_91-2" d="M0 0h28v28H0z" class="cls-1"/>
        <g id="monitor_1_" transform="translate(-11.75 -14.556)">
            <path id="Path_13933" fill="#fbfbfb" d="M37.452 19.306H17.714a1.1 1.1 0 0 0-1.1 1.1v15.275h21.942V20.41a1.1 1.1 0 0 0-1.1-1.1z" transform="translate(-1.833 -.356)"/>
            <path id="Path_13939" fill="#f2f2f2" d="M24.731 19.306h-7.69c-.237 0-.43.494-.43 1.1v15.275h8.55V20.41a2.24 2.24 0 0 0-.126-.781c-.081-.207-.19-.323-.3-.323z" transform="translate(-1.833 -.356)"/>
            <path id="Path_13935" fill="#f89aff" d="M13.5 50.481v.6a2.144 2.144 0 0 0 2.143 2.146h20.926a2.144 2.144 0 0 0 2.143-2.144v-.6z" transform="translate(-.356 -15.156)"/>
            <path id="Path_13940" fill="#d786df" d="M13.5 50.481v.6c0 1.184.387 2.145.865 2.146h9.061c.306-.026.255-.96.255-2.144v-.6z" transform="translate(-.356 -15.156)"/>
            <g id="Group_15006" transform="translate(12.75 18.556)">
                <path id="Path_13936" d="M36.213 53.258H15.287a2.54 2.54 0 0 1-2.537-2.537v-.6a.394.394 0 0 1 .394-.394h25.212a.394.394 0 0 1 .394.394v.6a2.54 2.54 0 0 1-2.537 2.537zm-22.675-2.739v.2a1.751 1.751 0 0 0 1.749 1.75h20.926a1.751 1.751 0 0 0 1.749-1.75v-.2z" class="cls-6" transform="translate(-12.75 -33.356)"/>
                <path id="Path_13937" fill="#333a60" d="M37.217 53.126H35.7a.394.394 0 1 1 0-.788h1.517a.394.394 0 1 1 0 .788z" transform="translate(-23.458 -34.594)"/>
                <path id="Path_13938" d="M38.2 35.719H16.253a.394.394 0 0 1-.394-.394V20.054a1.5 1.5 0 0 1 1.5-1.5H37.1a1.5 1.5 0 0 1 1.5 1.5v15.271a.394.394 0 0 1-.394.394zm-21.552-.788h21.157V20.054a.711.711 0 0 0-.71-.71H17.356a.711.711 0 0 0-.71.71z" class="cls-6" transform="translate(-14.226 -18.556)"/>
            </g>
        </g>
    </g>
</svg>
