<svg xmlns="http://www.w3.org/2000/svg" width="28" height="28" viewBox="0 0 28 28">
    <defs>
        <style>
            .cls-6{fill:#253342}
        </style>
    </defs>
    <g id="Computer_Training_Institutes" transform="translate(-203 -1326)">
        <path id="Rectangle_91" fill="none" d="M0 0h28v28H0z" transform="translate(203 1326)"/>
        <g id="Group_15052" transform="translate(-105.604 937.679)">
            <g id="Group_15030">
                <path id="Path_14119" fill="#93bce4" d="M332.2 392.7v12.734h-19.222V392.7z"/>
                <path id="Path_14120" fill="#eaf7fe" d="M332.2 405.429h-19.222v2.344h8.047l-.781 4.141h4.688l-.781-4.141h8.049z"/>
                <path id="Path_14121" fill="#717e96" d="M322.587 395.156l-6.25 2.734 3.125 1.366v2.93a6.642 6.642 0 0 0 6.25 0v-2.93l3.125-1.367z"/>
                <path id="Path_14122" fill="#ffe868" d="M317.119 401.406v1.563h-1.563v-1.562a.781.781 0 1 1 1.563 0z"/>
            </g>
            <path id="Path_14292" d="M322.587 408.961a.374.374 0 1 0 .374.375.375.375 0 0 0-.374-.375z" class="cls-6"/>
            <g id="Group_15051">
                <path id="Path_14294" d="M329.179 397.738a.374.374 0 0 0-.184-.188h-.01l-6.25-2.734a.368.368 0 0 0-.3 0l-6.248 2.733a.387.387 0 0 0-.227.344v2.423h-.011a1.16 1.16 0 0 0-.77 1.088v1.561a.375.375 0 0 0 .375.374h1.562a.375.375 0 0 0 .375-.374V401.4a1.16 1.16 0 0 0-.77-1.084h-.011v-1.856l.023.011 2.354 1.03v2.685a.375.375 0 0 0 .223.341 7 7 0 0 0 6.551 0 .375.375 0 0 0 .223-.341V399.5l.01-.005 2.89-1.265a.374.374 0 0 0 .193-.493zm-12.435 3.662v1.19h-.814v-1.19a.4.4 0 0 1 .133-.282c.025-.022.06-.018.088-.034a.391.391 0 0 1 .1-.038c.03-.007.054-.033.086-.033h.02a.4.4 0 0 1 .387.387zm8.594.535h-.01a6.081 6.081 0 0 1-5.481 0h-.01v-2.11l.023.011 2.578 1.128a.363.363 0 0 0 .3 0l2.6-1.139zm2.533-4.033l-5.283 2.311h-.007l-5.31-2.323.035-.016 5.282-2.311h.007l5.311 2.324z" class="cls-6"/>
                <path id="Path_14295" fill="#030504" d="M329.061 398.2a.365.365 0 0 0 .1-.1.4.4 0 0 1-.1.1z"/>
            </g>
            <path id="Path_14296" d="M330.634 400.25h-3.36a.375.375 0 0 0 0 .748h3.359a.375.375 0 0 0 0-.748z" class="cls-6"/>
            <path id="Path_14297" d="M330.634 401.813h-3.36a.374.374 0 0 0 0 .747h3.359a.374.374 0 0 0 0-.747z" class="cls-6"/>
            <path id="Path_14298" d="M332.2 408.147a.376.376 0 0 0 .374-.375V392.7a.375.375 0 0 0-.375-.374h-8.85a.373.373 0 0 0 0 .746h8.476v11.987h-18.474v-11.992h18.477a.367.367 0 0 0 .258-.122.377.377 0 0 0 .1-.27.373.373 0 0 0-.356-.354h-18.852a.374.374 0 0 0-.374.374v15.077a.374.374 0 0 0 .374.375h7.6v.02l-.636 3.372h-1.252a.376.376 0 0 0-.355.393.376.376 0 0 0 .356.355h7.811a.374.374 0 0 0 0-.748h-1.251v-.014l-.638-3.378zm-18.845-.749v-1.6h18.471v1.6zm7.342 4.141v-.019l.637-3.373h2.5v.014l.638 3.378z" class="cls-6"/>
        </g>
    </g>
</svg>
