<svg xmlns="http://www.w3.org/2000/svg" width="28" height="28" viewBox="0 0 28 28">
    <defs>
        <style>
            .cls-1{fill:none}.cls-2{fill:#d9ccbc}.cls-5{fill:#ff9811}
        </style>
    </defs>
    <g id="International_Courier_Services" transform="translate(-14 -374)">
        <path id="Rectangle_91" d="M0 0h28v28H0z" class="cls-1" transform="translate(14 374)"/>
        <path id="Rectangle_91-2" d="M0 0h28v28H0z" class="cls-1" transform="translate(14 374)"/>
        <g id="box" transform="translate(-15 367.998)">
            <g id="Group_15083" transform="translate(32.387 8.582)">
                <g id="Group_15082">
                    <path id="Path_14087" d="M174.138 72.578l-9.29 4.645-4.228-1.951 5-2.694 4.1-2.208z" class="cls-2" transform="translate(-154.784 -67.933)"/>
                    <path id="Path_14088" fill="#5f4d37" d="M257.29 116v12.193l-9.29 4.645v-12.193z" transform="translate(-237.936 -111.355)"/>
                    <path id="Path_14089" fill="#a0815c" d="M50.064 120.645v12.193L40 128.193V116l3.1 1.429 2.74 1.264z" transform="translate(-40 -111.355)"/>
                    <path id="Path_14090" d="M52.2 21.07l-6.87 3.575-2.23 1.161v.268L40 24.645 50.064 20z" class="cls-2" transform="translate(-40 -20)"/>
                    <g id="Group_15081" transform="translate(3.097 1.07)">
                        <path id="Path_14091" d="M115.842 43.487l-4.1 2.208-5 2.694L104 47.124v-.268l2.233-1.161 6.874-3.575z" class="cls-5" transform="translate(-104 -42.12)"/>
                        <path id="Path_14092" d="M106.74 146.8l-.03.016v6.967l-2.71-1.157v-7.086z" class="cls-5" transform="translate(-104 -140.536)"/>
                    </g>
                </g>
                <circle id="Ellipse_939" cx="4.258" cy="4.258" r="4.258" fill="#91cc04" transform="translate(12.773 14.515)"/>
            </g>
            <g id="Group_15084" transform="translate(32 8.002)">
                <path id="Path_14093" fill="#253342" d="M52.128 23.585V13.034a.388.388 0 0 0-.214-.346l-9.29-4.645a.388.388 0 0 0-.335 0l-10.064 4.639a.386.386 0 0 0-.225.351V25.42a.386.386 0 0 0 .225.351l10.064 4.645a.387.387 0 0 0 .335 0l2.512-1.257a4.644 4.644 0 1 0 6.992-5.57zm-5.643-12.747l-8.275 4.457-2.12-.978 8.505-4.423zm-8.679 5.122v6.163l-1.935-.83v-6.225zm4.638-7.143l1.3.647-8.434 4.386a.393.393 0 0 0-.088.062l-1.907-.88zm-.38 20.642l-9.29-4.288V13.638l2.326 1.073v6.839a.387.387 0 0 0 .235.356l2.71 1.161a.381.381 0 0 0 .152.031.387.387 0 0 0 .387-.387v-6.393l3.484 1.608zm.38-12.211L39.089 15.7l8.243-4.439 3.543 1.772zm2.45 11.162l-2.056 1.028v-11.52l8.516-4.258v9.474a4.646 4.646 0 0 0-6.459 5.277zm4.524 2.815a3.871 3.871 0 1 1 3.871-3.871 3.871 3.871 0 0 1-3.871 3.872z" transform="translate(-32 -8.002)"/>
                <path id="Path_14094" d="M355.6 384.113l-2.049 2.049-.888-.888a.387.387 0 1 0-.547.547l1.161 1.161a.387.387 0 0 0 .547 0l2.322-2.322a.387.387 0 0 0-.547-.547z" transform="translate(-336.517 -365.807)"/>
            </g>
        </g>
    </g>
</svg>
