<svg xmlns="http://www.w3.org/2000/svg" width="28" height="28" viewBox="0 0 28 28">
    <defs>
        <style>
            .cls-2{fill:#d9e2e9}.cls-3{fill:#c1cdd3}.cls-4{fill:#333a60}.cls-5{fill:#f14253}.cls-7{fill:#5fc4f8}.cls-8{fill:#38aece}
        </style>
    </defs>
    <g id="Cyber_Cafes" transform="translate(-23 -359)">
        <g id="icon" transform="translate(10.7 304.4)">
            <path id="Path_14903" d="M68.9 151.5h18.469v15.307H68.9z" class="cls-2" transform="translate(-52.017 -88.668)"/>
            <path id="Path_14904" d="M78.369 142.5v15.307H59.9v-.888h17.5V142.5z" class="cls-3" transform="translate(-43.427 -80.078)"/>
            <path id="Path_14905" d="M78.3 142H59.833a.436.436 0 0 0-.433.433v15.307a.436.436 0 0 0 .433.433H78.3a.436.436 0 0 0 .433-.433v-15.307A.43.43 0 0 0 78.3 142zm-18.034 15.3v-14.434h17.6v14.441h-17.6z" class="cls-4" transform="translate(-42.95 -79.601)"/>
            <path id="Path_14906" d="M27.18 138.1H23.9l2.237-4.1h2.642z" class="cls-5" transform="translate(-9.067 -71.965)"/>
            <path id="Path_14907" d="M99.18 138H95.9l1.6-4.1h2.642z" class="cls-2" transform="translate(-77.787 -71.87)"/>
            <path id="Path_14908" d="M171.18 138h-3.28l.957-4.1h2.643z" class="cls-5" transform="translate(-146.507 -71.87)"/>
            <path id="Path_14909" d="M243.18 138h-3.28l.319-4.1h2.642z" class="cls-2" transform="translate(-215.227 -71.87)"/>
            <path id="Path_14910" d="M308.5 138h-3.28l-.319-4.1h2.642z" class="cls-5" transform="translate(-277.266 -71.87)"/>
            <path id="Path_14911" d="M367.137 138h-3.28l-.957-4.1h2.642z" class="cls-2" transform="translate(-332.624 -71.87)"/>
            <path id="Path_14912" d="M425.679 138.1H422.4l-1.6-4.1h2.642z" class="cls-5" transform="translate(-387.886 -71.965)"/>
            <path id="Path_14913" d="M38.171 128.828l-2.237-4.1a.429.429 0 0 0-.378-.223H17.07a.423.423 0 0 0-.378.228l-2.237 4.1a.423.423 0 0 0-.055.21.435.435 0 0 0 .433.433h22.96a.407.407 0 0 0 .205-.055.434.434 0 0 0 .173-.593zm-15.48-3.467h1.831l-.251 3.239H21.94zm2.7 0h1.836l.118 1.5.137 1.736h-2.34zm5.426 0h1.8l1.263 3.239h-2.305zm-2.72 0h1.833l.059.26.7 2.975h-2.335zm6.71 3.234l-1.262-3.234H35.3l1.76 3.239zm-13.763 0h-2.302L20 125.366h1.8zm-1.973-3.234l-1.259 3.239h-2.25l1.763-3.234z" class="cls-4" transform="translate(0 -62.898)"/>
            <path id="Path_14914" d="M23.9 224v.847a1.64 1.64 0 0 0 3.28 0V224z" class="cls-5" transform="translate(-9.067 -157.865)"/>
            <path id="Path_14915" d="M95.9 224h3.28v.847a1.64 1.64 0 0 1-3.28 0V224z" class="cls-2" transform="translate(-77.787 -157.865)"/>
            <path id="Path_14916" d="M167.9 224v.847a1.64 1.64 0 0 0 3.28 0V224z" class="cls-5" transform="translate(-146.507 -157.865)"/>
            <path id="Path_14917" d="M239.9 224v.847a1.64 1.64 0 0 0 3.28 0V224z" class="cls-2" transform="translate(-215.227 -157.865)"/>
            <path id="Path_14918" d="M311.9 224v.847a1.64 1.64 0 1 0 3.28 0V224z" class="cls-5" transform="translate(-283.947 -157.865)"/>
            <path id="Path_14919" d="M383.9 224v.847a1.64 1.64 0 0 0 3.28 0V224z" class="cls-2" transform="translate(-352.667 -157.865)"/>
            <path id="Path_14920" d="M455.9 224v.847a1.64 1.64 0 0 0 3.28 0V224z" class="cls-5" transform="translate(-421.387 -157.865)"/>
            <path id="Path_14921" d="M37.793 214.5h-22.96a.436.436 0 0 0-.433.433v.852a2.074 2.074 0 0 0 2.073 2.073 2.07 2.07 0 0 0 1.64-.811 2.083 2.083 0 0 0 1.64.811 2.07 2.07 0 0 0 1.64-.811 2.083 2.083 0 0 0 1.64.811 2.07 2.07 0 0 0 1.64-.811 2.083 2.083 0 0 0 1.64.811 2.07 2.07 0 0 0 1.64-.811 2.083 2.083 0 0 0 1.64.811 2.07 2.07 0 0 0 1.64-.811 2.083 2.083 0 0 0 1.64.811 2.07 2.07 0 0 0 1.64-.811 2.083 2.083 0 0 0 1.64.811 2.074 2.074 0 0 0 2.073-2.073v-.852a.436.436 0 0 0-.433-.433zm-1.64 2.487a1.209 1.209 0 0 1-1.207-1.207v-.415h2.414v.415a1.206 1.206 0 0 1-1.207 1.207zm-2.073-1.207a1.207 1.207 0 0 1-2.414 0v-.415h2.414zm-3.28 0a1.207 1.207 0 0 1-2.414 0v-.415H30.8zm-3.28 0a1.207 1.207 0 0 1-2.414 0v-.415h2.414zm-3.28 0a1.207 1.207 0 0 1-2.414 0v-.415h2.414zm-3.28 0a1.207 1.207 0 0 1-2.414 0v-.415h2.414zm-3.28 0a1.207 1.207 0 0 1-2.414 0v-.415h2.414z" class="cls-4" transform="translate(0 -148.798)"/>
            <path id="Path_14922" fill="#bd8d5a" d="M125.9 327h4.642v7.307H125.9z" transform="translate(-106.42 -256.173)"/>
            <path id="Path_14923" d="M280.9 327h3.271v2.642H280.9z" class="cls-7" transform="translate(-254.359 -256.173)"/>
            <path id="Path_14924" d="M284.171 327v2.642H280.9v-.474h2.692V327z" class="cls-8" transform="translate(-254.359 -256.173)"/>
            <g id="Group_15253" transform="translate(26.541 70.827)">
                <path id="Path_14925" d="M352.7 327h3.271v2.642H352.7z" class="cls-7" transform="translate(-349.429 -327)"/>
                <path id="Path_14926" d="M280.9 385h3.271v2.642H280.9z" class="cls-7" transform="translate(-280.9 -382.358)"/>
                <path id="Path_14927" d="M352.7 385h3.271v2.642H352.7z" class="cls-7" transform="translate(-349.429 -382.358)"/>
            </g>
            <path id="Path_14928" d="M355.876 327v2.642H352.6v-.474h2.692V327z" class="cls-8" transform="translate(-322.793 -256.173)"/>
            <path id="Path_14929" d="M284.171 385v2.642H280.9v-.474h2.692V385z" class="cls-8" transform="translate(-254.359 -311.53)"/>
            <path id="Path_14930" d="M355.876 385v2.642H352.6v-.474h2.692V385z" class="cls-8" transform="translate(-322.793 -311.53)"/>
            <path id="Path_14931" d="M74 68.6h18.441v2.979H74z" class="cls-2" transform="translate(-56.885 -9.544)"/>
            <path id="Path_14932" d="M83.346 59.6v2.979H64.9V61.8h17.507v-2.2z" class="cls-3" transform="translate(-48.199 -.954)"/>
            <path id="Path_14933" d="M82.9 58.6H64.456a.457.457 0 0 0-.456.456v2.979a.457.457 0 0 0 .456.456H82.9a.457.457 0 0 0 .456-.456v-2.979a.454.454 0 0 0-.456-.456zm-.456.911v2.068H64.911v-2.068z" class="cls-4" transform="translate(-47.34)"/>
            <g id="Group_15254" transform="translate(19.047 70.395)">
                <path id="Path_14934" d="M121.48 317.5h-4.647a.436.436 0 0 0-.433.433v7.307a.436.436 0 0 0 .433.433h4.642a.436.436 0 0 0 .433-.433v-7.307a.429.429 0 0 0-.428-.433zm-4.214 7.307v-6.442h3.777v6.442z" class="cls-4" transform="translate(-116.4 -317.5)"/>
                <path id="Path_14935" d="M278.475 317.5h-6.542a.436.436 0 0 0-.433.433v5.285a.436.436 0 0 0 .433.433h6.542a.436.436 0 0 0 .433-.433v-5.285a.436.436 0 0 0-.433-.433zm-.433 2.642h-2.405v-1.777h2.405zm-5.681-1.777h2.405v1.777h-2.405zm0 2.642h2.405v1.777h-2.405zm5.681 1.772h-2.405V321h2.405z" class="cls-4" transform="translate(-264.434 -317.5)"/>
                <path id="Path_14936" d="M195.233 396.8a.436.436 0 0 0-.433.433v.9a.433.433 0 1 0 .866 0v-.9a.433.433 0 0 0-.433-.433z" class="cls-4" transform="translate(-191.228 -393.187)"/>
            </g>
            <g id="Group_15255" transform="translate(19.785 59.73)">
                <path id="Path_14937" d="M133.361 83.755a.271.271 0 0 0-.237.123.616.616 0 0 0-.087.346c0 .305.114.456.346.456a.793.793 0 0 0 .2-.027 1.67 1.67 0 0 0 .2-.068v.36a1.084 1.084 0 0 1-.446.087.7.7 0 0 1-.547-.21.851.851 0 0 1-.191-.6 1.006 1.006 0 0 1 .091-.433.7.7 0 0 1 .264-.287.782.782 0 0 1 .41-.1 1.136 1.136 0 0 1 .487.109l-.132.337a1.7 1.7 0 0 0-.173-.068.777.777 0 0 0-.185-.025z" class="cls-4" transform="translate(-132.6 -83.4)"/>
                <path id="Path_14938" d="M162.433 84.492l.273-.588h.46l-.519.961v.615h-.428v-.606l-.519-.974h.465z" class="cls-4" transform="translate(-160.374 -83.877)"/>
                <path id="Path_14939" d="M197.7 84.1h.551a.941.941 0 0 1 .478.1.322.322 0 0 1 .155.3.385.385 0 0 1-.068.228.3.3 0 0 1-.178.123v.009a.4.4 0 0 1 .214.128.383.383 0 0 1 .064.237.409.409 0 0 1-.159.337.717.717 0 0 1-.442.123h-.615zm.424.606h.128a.248.248 0 0 0 .141-.036.141.141 0 0 0 .05-.114c0-.087-.068-.132-.2-.132h-.118zm0 .31v.333h.15c.132 0 .2-.055.2-.169a.15.15 0 0 0-.055-.123.251.251 0 0 0-.155-.041z" class="cls-4" transform="translate(-194.734 -84.068)"/>
                <path id="Path_14940" d="M231.338 85.676h-.938V84.1h.938v.342h-.51v.246h.474v.342h-.474v.3h.51z" class="cls-4" transform="translate(-225.945 -84.068)"/>
                <path id="Path_14941" d="M257.428 85.1v.574H257V84.1h.519q.642 0 .642.465a.468.468 0 0 1-.269.424l.46.688h-.483l-.337-.574zm0-.319h.082c.15 0 .223-.064.223-.2q0-.164-.219-.164h-.082v.36z" class="cls-4" transform="translate(-251.333 -84.068)"/>
                <path id="Path_14942" d="M302.061 83.755a.271.271 0 0 0-.237.123.616.616 0 0 0-.087.346c0 .305.114.456.346.456a.792.792 0 0 0 .2-.027 1.421 1.421 0 0 0 .2-.068v.36a1.084 1.084 0 0 1-.446.087.7.7 0 0 1-.547-.21.851.851 0 0 1-.191-.6 1.007 1.007 0 0 1 .091-.433.7.7 0 0 1 .264-.287.782.782 0 0 1 .41-.1 1.136 1.136 0 0 1 .487.109l-.132.337a1.7 1.7 0 0 0-.173-.068.838.838 0 0 0-.185-.025z" class="cls-4" transform="translate(-293.615 -83.4)"/>
                <path id="Path_14943" d="M331.343 85.485l-.077-.3h-.515l-.082.3h-.469l.515-1.585h.569l.524 1.585zm-.164-.647l-.068-.26c-.014-.059-.036-.132-.059-.223s-.036-.155-.046-.2c0 .036-.018.1-.036.182s-.059.251-.128.5z" class="cls-4" transform="translate(-321.198 -83.877)"/>
                <path id="Path_14944" d="M369.719 85.676h-.419V84.1h.934v.342h-.515v.3h.474v.342h-.474z" class="cls-4" transform="translate(-358.517 -84.068)"/>
                <path id="Path_14945" d="M396.438 85.676h-.938V84.1h.938v.342h-.51v.246h.474v.342h-.474v.3h.51z" class="cls-4" transform="translate(-383.523 -84.068)"/>
            </g>
        </g>
    </g>
</svg>
