<svg xmlns="http://www.w3.org/2000/svg" width="28" height="28" viewBox="0 0 28 28">
    <defs>
        <style>
            .cls-2{fill:#37474f}.cls-3{fill:#607d8b}.cls-4{fill:#fdd7ad}.cls-5{fill:#c52828}.cls-6{fill:#f44335}.cls-8{fill:#bfa885}.cls-9{fill:#ffe0b2}.cls-10{fill:#253342}
        </style>
    </defs>
    <g id="Dance_Music" transform="translate(-29 -208)">
        <path id="Rectangle_91" fill="none" d="M0 0h28v28H0z" transform="translate(29 208)"/>
        <g id="dance" transform="translate(32.649 211)">
            <path id="Path_14643" d="M104.787 417.41v2.77a.917.917 0 0 1-.917.917.888.888 0 0 1-.367-.077.914.914 0 0 1-.55-.84v-2.752h1.647a1.017 1.017 0 0 0 .187-.018zm0 0" class="cls-2" transform="translate(-98.191 -399.464)"/>
            <path id="Path_14644" d="M99.788 417.836v2.77a.6.6 0 1 1-1.1 0v-2.752h.912a1 1 0 0 0 .184-.018zm0 0" class="cls-3" transform="translate(-94.108 -399.872)"/>
            <path id="Path_14645" d="M120.959 301.688v-3.32h-.925v3.32a.917.917 0 0 1 0 1.8 1.02 1.02 0 0 1-.183.018h.925a1.02 1.02 0 0 0 .183-.018.917.917 0 0 0 0-1.8zm0 0" class="cls-2" transform="translate(-114.363 -285.54)"/>
            <path id="Path_14646" d="M18.364 301.688v-3.32H15.62v.536l-1.471 1.475a1.834 1.834 0 0 0 1.269 3.129h2.763a1.02 1.02 0 0 0 .183-.018.917.917 0 0 0 0-1.8zm-.91-.018H15.9a.183.183 0 0 1-.132-.312l.767-.767.613-.613a.184.184 0 0 1 .312.132zm0 0" class="cls-3" transform="translate(-12.692 -285.54)"/>
            <path id="Path_14647" d="M119.486 233.665l-.815.429-.015.011-.121.062a.734.734 0 0 1-.991-.308.724.724 0 0 1-.084-.341.67.67 0 0 1 .044-.238.7.7 0 0 1 .348-.411l.818-.433.059-.029zm0 0" class="cls-4" transform="translate(-112.074 -222.415)"/>
            <path id="Path_14648" d="M128.82 165.384l-.356.187-1.057.558-.143-.238.418-.22.356-.187a.734.734 0 0 0 .172-1.17l-1.97-1.952a1.5 1.5 0 0 0-.5-.327l.121-.2h.128a1.473 1.473 0 0 1 1.035.426l1.97 1.952a.734.734 0 0 1-.172 1.17zm0 0" class="cls-5" transform="translate(-119.996 -154.879)"/>
            <path id="Path_14649" d="M16.206 48.948l-.356.187-.418.22-.613-1.02.727-.385-.785-.785v1.2l-.58.308-.238.125a.7.7 0 0 0-.348.411.67.67 0 0 0-.044.238.724.724 0 0 0 .084.341.734.734 0 0 0 .991.308l.121-.062.015.015v1.123h-3.67v-4.466l-1.666-1.669a1.835 1.835 0 0 1-.536-1.3 10.693 10.693 0 0 1 .294-2.957c.029-.1.059-.2.092-.3.044-.139.1-.279.15-.414l1.387.693a5.848 5.848 0 0 0-.334 1.013 8.473 8.473 0 0 0-.121 2 .316.316 0 0 0 .092.224l.991.987a1.038 1.038 0 0 0 .407.257l-.022.066.741 1.236.2.337a.185.185 0 0 0 .316 0l.822-1.376a1.5 1.5 0 0 1 .5.327l1.97 1.952a.734.734 0 0 1-.172 1.17zm0 0" class="cls-6" transform="translate(-8.164 -38.343)"/>
            <path id="Path_14650" fill="#ffecb3" d="M79.557 160.367l-.943 1.574a.185.185 0 0 1-.316 0l-.943-1.574.022-.066a1.053 1.053 0 0 0 .37.066zm0 0" transform="translate(-73.694 -153.409)"/>
            <path id="Path_14651" d="M23.568 9.114c.033.4-.345.815-.514 1.156-.044.088-.084.18-.121.271l-1.387-.693a3.491 3.491 0 0 1 .312-.62 1.382 1.382 0 0 1 1-.737.7.7 0 0 1 .708.624zm0 0" class="cls-4" transform="translate(-20.284 -8.125)"/>
            <path id="Path_14652" d="M72.032 61.085a1.649 1.649 0 0 1-1.651 1.651 1.729 1.729 0 0 1-.367-.04 1.651 1.651 0 0 1 0-3.221 1.729 1.729 0 0 1 .367-.04 1.649 1.649 0 0 1 1.651 1.651zm0 0" class="cls-8" transform="translate(-65.436 -56.879)"/>
            <path id="Path_14653" d="M71.389 61.986A1.317 1.317 0 1 0 70.1 63.6a1.475 1.475 0 0 0 1.289-1.614zm0 0" class="cls-9" transform="translate(-65.526 -57.779)"/>
            <path id="Path_14654" d="M302.57 69.619a1.644 1.644 0 0 1-1.064 1.541 1.574 1.574 0 0 1-.587.11 1.53 1.53 0 0 1-.37-.044 1.651 1.651 0 0 1 0-3.218 1.728 1.728 0 0 1 .367-.04 1.649 1.649 0 0 1 1.651 1.651zm0 0" class="cls-8" transform="translate(-286.067 -65.046)"/>
            <path id="Path_14655" d="M301.835 70.517a1.644 1.644 0 0 1-1.064 1.541 1.21 1.21 0 0 1-.224.066 1.649 1.649 0 1 1 1.288-1.607zm0 0" class="cls-9" transform="translate(-286.067 -65.944)"/>
            <path id="Path_14656" d="M375.162 366.075a.926.926 0 0 1-.859.033.909.909 0 0 1-.4-.367l-2.579-4.472 1.108-.382.657-.228 2.4 4.164a.917.917 0 0 1-.334 1.251zm0 0" class="cls-8" transform="translate(-355.027 -345.154)"/>
            <path id="Path_14657" d="M241.322 368.093v4.307a.917.917 0 0 1-.917.917.9.9 0 0 1-.4-.092.915.915 0 0 1-.521-.825v-4.916zm0 0" class="cls-8" transform="translate(-228.855 -351.689)"/>
            <path id="Path_14658" d="M374.373 378.394a.247.247 0 0 1-.07.033.908.908 0 0 1-.4-.367l-2.579-4.472 1.108-.382 2.271 3.937a.917.917 0 0 1-.334 1.251zm0 0" class="cls-9" transform="translate(-355.027 -357.161)"/>
            <path id="Path_14659" d="M240.534 376.025v4.311a.9.9 0 0 1-.525.825.914.914 0 0 1-.521-.825v-4.656zm0 0" class="cls-9" transform="translate(-228.856 -359.528)"/>
            <path id="Path_14660" d="M227.579 213.692c-.154.073-.348.161-.572.257-.147.062-.308.128-.48.194a12.98 12.98 0 0 1-1.284.415 8.667 8.667 0 0 1-4.568.128c-.088-.026-.176-.051-.264-.084a5.36 5.36 0 0 1-1.225-.587l-.356-.272a.367.367 0 0 1-.026-.565l1.325-1.2a2.743 2.743 0 0 0 .8-2.766l-.414-1.471a1.773 1.773 0 0 1 1.853-.191.367.367 0 0 0 .3-.026 1.64 1.64 0 0 1 1.658.154.184.184 0 0 0 0 .077l.264.939.4 1.416.33.37 2.385 2.645a.367.367 0 0 1-.114.576zm0 0" class="cls-5" transform="translate(-208.941 -198.442)"/>
            <path id="Path_14661" d="M226.705 217.055c-.055.026-.114.055-.18.084a12.984 12.984 0 0 1-1.284.415 8.667 8.667 0 0 1-4.568.128c-.088-.026-.176-.051-.264-.084a5.359 5.359 0 0 1-1.225-.587l-.356-.272a.367.367 0 0 1-.026-.565l1.325-1.2a2.743 2.743 0 0 0 .8-2.766l-.414-1.471c.4-.026.7-.209.9-.132a.548.548 0 0 0 .367 0c.646-.338 1.277.191 1.666.433a.184.184 0 0 0 0 .077l.264.939.4 1.416.33.371 2.385 2.645a.367.367 0 0 1-.114.576zm0 0" class="cls-6" transform="translate(-208.941 -201.439)"/>
            <path id="Path_14662" d="M237.452 33.264l-.238 2.029a.734.734 0 0 1-1.075.565.747.747 0 0 1-.385-.749v-.018l.059-.5.114-.976a.36.36 0 0 0-.209-.374l-1.292-.6a.184.184 0 0 0-.257.139 1.743 1.743 0 0 0-1.335-.275 1.443 1.443 0 0 0-.881.059 2.068 2.068 0 0 0-.939-.055 1.827 1.827 0 0 0-.745.011l-.048-.169a8.521 8.521 0 0 1-.191-.844l-1.045-6.05a.741.741 0 0 1 .374-.756.753.753 0 0 1 .242-.081c.037 0 .073-.007.106-.007a.741.741 0 0 1 .73.627l.983 5.474a.635.635 0 0 0 .326.47.656.656 0 0 0 .5.059l1.189-.348.04-.011a1.117 1.117 0 0 1 .771.059l1.893.873.682.316a1.1 1.1 0 0 1 .631 1.126zm0 0" class="cls-8" transform="translate(-218.799 -23.563)"/>
            <path id="Path_14663" d="M236.762 35.223l-.238 2.029a.738.738 0 0 1-.385.565.747.747 0 0 1-.385-.749v-.018l.059-.5.114-.976a.36.36 0 0 0-.209-.374l-1.292-.6a.184.184 0 0 0-.257.139 1.743 1.743 0 0 0-1.335-.275 1.443 1.443 0 0 0-.881.059 2.068 2.068 0 0 0-.939-.055 1.827 1.827 0 0 0-.745.011l-.048-.169a8.521 8.521 0 0 1-.191-.844l-1.045-6.05a.741.741 0 0 1 .374-.756.731.731 0 0 1 .389.539l.983 5.474a.65.65 0 0 0 .822.528l.194-.059 1.035-.3a1.119 1.119 0 0 1 .649.011c.04.015.081.029.121.048l1.893.873.682.316a1.1 1.1 0 0 1 .631 1.126zm0 0" class="cls-9" transform="translate(-218.799 -25.521)"/>
            <path id="Path_14664" d="M2.561 8.515v4.7L1.2 14.579a2.2 2.2 0 0 0 1.558 3.755h1.634v2.385a1.284 1.284 0 0 0 2.568 0V18.2a1.278 1.278 0 0 0 0-2.311V11.9l2.03-1.071a1.1 1.1 0 0 0 .261-1.756L7.284 7.122a1.822 1.822 0 0 0-1.291-.531H4.054a.73.73 0 0 1-.518-.214L2.561 5.4v-.289a6.7 6.7 0 0 1 .11-1.6A5.7 5.7 0 0 1 3.1 2.307a3.176 3.176 0 0 1 .165-.282A1.79 1.79 0 0 0 3.648.957 1.064 1.064 0 0 0 2.582 0h-.007a1.669 1.669 0 0 0-1.31.9 5.365 5.365 0 0 0-.6 1.436A11.023 11.023 0 0 0 .36 5.4 2.187 2.187 0 0 0 1 6.954zM5.68 21.266a.55.55 0 0 1-.55-.55v-2.385h1.1v2.385a.55.55 0 0 1-.55.55zm1.12-3.829a.545.545 0 0 1-.274.147.615.615 0 0 1-.116.014H2.762a1.467 1.467 0 0 1-1.039-2.5l1.469-1.474a.368.368 0 0 0 .078-.118.363.363 0 0 0 .026-.127V13.196h2.932v2.568h-1.1v-1.195a.55.55 0 0 0-.94-.389l-1.375 1.377a.55.55 0 0 0 .389.94h3.211a.671.671 0 0 1 .11.011.55.55 0 0 1 .278.929zm-.284-6.959l.378.629-.471.249-.033.02-.1.053a.369.369 0 0 1-.5-.156.35.35 0 0 1-.041-.168.357.357 0 0 1 .027-.127.335.335 0 0 1 .17-.2zM4.4 15.763h-.755l.751-.751zm.82-8.438l-.453.755-.457-.755zM3.018 6.9a1.47 1.47 0 0 0 .324.237v.013l.943 1.572a.55.55 0 0 0 .944 0l.832-1.387a1.089 1.089 0 0 1 .7.312L8.739 9.6a.367.367 0 0 1-.086.587l-1.105.581-.378-.629.384-.2a.367.367 0 0 0 .088-.584l-.785-.785a.367.367 0 0 0-.627.259V9.8l-.619.327a1.13 1.13 0 0 0-.592.976 1.089 1.089 0 0 0 .127.514 1.105 1.105 0 0 0 1.083.58v.264H3.295v-4.1a.367.367 0 0 0-.107-.261L1.523 6.436A1.457 1.457 0 0 1 1.094 5.4a10.43 10.43 0 0 1 .279-2.856c.028-.1.059-.2.093-.309l.72.36a6.389 6.389 0 0 0-.228.752 7.364 7.364 0 0 0-.13 1.768v.311a.678.678 0 0 0 .2.483zM2.578.733a.327.327 0 0 1 .335.285 1.315 1.315 0 0 1-.27.617c-.062.1-.119.193-.168.286l-.734-.367c.044-.085.088-.17.14-.251.226-.355.487-.567.7-.569zm0 0" class="cls-10"/>
            <path id="Path_14665" d="M60.289 52.92a2.018 2.018 0 1 0 2.018-2.02 2.018 2.018 0 0 0-2.018 2.02zm2.018-1.284a1.284 1.284 0 1 1-1.284 1.284 1.284 1.284 0 0 1 1.284-1.284zm0 0" class="cls-10" transform="translate(-57.361 -48.714)"/>
            <path id="Path_14666" d="M292.705 63.419a1.931 1.931 0 0 0 .716-.134 2.018 2.018 0 1 0-2.734-1.884 1.981 1.981 0 0 0 .116.677 2.019 2.019 0 0 0 1.9 1.341zm0-3.3a1.284 1.284 0 0 1 .451 2.484 1.2 1.2 0 0 1-.451.084 1.284 1.284 0 0 1-1.211-.855 1.256 1.256 0 0 1-.073-.429 1.284 1.284 0 0 1 1.284-1.284zm0 0" class="cls-10" transform="translate(-277.853 -56.828)"/>
            <path id="Path_14667" d="M210.388 29.855a.734.734 0 0 0 .049 1.126l.337.257a.386.386 0 0 0 .048.037c.073.047.147.09.22.133v4.7a1.284 1.284 0 1 0 2.568 0v-3.9a7.952 7.952 0 0 0 .8.044 10.453 10.453 0 0 0 2.484-.33l2.443 4.236a1.284 1.284 0 0 0 2.352-.312 1.27 1.27 0 0 0-.128-.972l-2.2-3.808c.073-.033.147-.067.208-.1a.734.734 0 0 0 .227-1.153l-1.528-1.7a1.088 1.088 0 0 0 .707-.113 1.106 1.106 0 0 0 .577-.844l.238-2.029a1.467 1.467 0 0 0-.844-1.5l-2.576-1.188a1.468 1.468 0 0 0-1.024-.077l-1.23.357a.28.28 0 0 1-.23-.033.286.286 0 0 1-.129-.206l-.98-5.464a1.113 1.113 0 0 0-1.093-.939c-.042 0-.088 0-.163.012a1.11 1.11 0 0 0-.921 1.262l1.045 6.049a8.928 8.928 0 0 0 .2.881l.552 1.969a2.357 2.357 0 0 1-.688 2.394zm2.489 6.254a.55.55 0 1 1-1.1 0v-4.338c.113.046.227.088.341.125h.012c.091.033.184.061.275.088q.229.066.468.115zm8.106-.446a.55.55 0 0 1-1.008.134l-2.348-4.072q.531-.162 1.056-.37l2.246 3.893a.542.542 0 0 1 .054.415zm-9.654-18.421a.367.367 0 0 1 .3-.419.379.379 0 0 1 .433.32l.981 5.464a1.016 1.016 0 0 0 1.288.824l1.23-.357a.729.729 0 0 1 .514.037l2.575 1.188a.734.734 0 0 1 .421.752l-.237 2.028a.373.373 0 0 1-.194.284.367.367 0 0 1-.35 0 .388.388 0 0 1-.184-.4l.059-.5.115-.976a.731.731 0 0 0-.421-.752l-1.292-.594a.541.541 0 0 0-.482.014 1.879 1.879 0 0 0-1.752-.015 2.407 2.407 0 0 0-1.77-.047v-.01a8.126 8.126 0 0 1-.184-.807zm5.816 9.627l-.529-1.89.93.428-.116.975-.059.5v.021a1.224 1.224 0 0 0 0 .218zm-4.036-.812l-.347-1.236a1.589 1.589 0 0 1 1.3.008.719.719 0 0 0 .6-.041 1.19 1.19 0 0 1 1.154.062l.644 2.3v.009a.84.84 0 0 0 .065.119s.005.011.009.016l2.716 3.019c-.15.073-.338.157-.558.25a12.774 12.774 0 0 1-1.717.594 8.163 8.163 0 0 1-4.37.13c-.079-.023-.159-.046-.251-.081a4.984 4.984 0 0 1-1.125-.536l-.355-.27 1.325-1.2a3.086 3.086 0 0 0 .9-3.138zm0 0" class="cls-10" transform="translate(-200.777 -15.393)"/>
        </g>
    </g>
</svg>
