<svg xmlns="http://www.w3.org/2000/svg" id="Decorators" width="28" height="28" viewBox="0 0 28 28">
    <defs>
        <style>
            .cls-4{fill:#89c5cd}.cls-5{fill:#27ccbc}.cls-6{fill:#eeefee}.cls-7{fill:#fe7058}
        </style>
    </defs>
    <path id="Rectangle_91" fill="none" d="M0 0h28v28H0z"/>
    <g id="fireworks" transform="translate(-1.25 -1.25)">
        <path id="Path_13741" fill="#fcd462" d="M24.663 19.638l1.829 3.706 4.09.594-2.959 2.885.7 4.073-3.658-1.923L21 30.9l.7-4.073-2.959-2.885 4.09-.594z" transform="translate(-9.412 -10.016)"/>
        <path id="Path_13742" fill="#f7be56" d="M38.743 26.824l.7 4.072-1.164-.613-.579-3.342 2.616-2.541-3.616-.529-1.5-3.047.584-1.183 1.828 3.706 4.091.593z" transform="translate(-20.533 -10.018)"/>
        <path id="Path_13743" d="M36.531 4.121a.281.281 0 0 1-.281-.281V2.531a.281.281 0 0 1 .561 0V3.84a.281.281 0 0 1-.28.281z" class="cls-4" transform="translate(-21.281)"/>
        <path id="Path_13744" d="M36.531 14.256a.281.281 0 0 1-.281-.281v-1.309a.281.281 0 0 1 .561 0v1.309a.281.281 0 0 1-.28.281z" class="cls-4" transform="translate(-21.281 -7.343)"/>
        <path id="Path_13745" d="M25.825 9.921a.281.281 0 0 1-.259-.173c-.041-.1-.088-.122-.2-.177a.854.854 0 0 1-.466-1.13.312.312 0 0 0 .016-.267c-.041-.1-.087-.121-.2-.177a.853.853 0 0 1-.467-1.128.31.31 0 0 0 .016-.266c-.041-.1-.087-.121-.2-.177A.852.852 0 0 1 23.6 5.3a.309.309 0 0 0 .016-.265.281.281 0 1 1 .519-.215.855.855 0 0 1 0 .662.309.309 0 0 0-.016.265c.041.1.087.121.2.177a.853.853 0 0 1 .467 1.128.31.31 0 0 0-.016.266c.041.1.087.121.2.177a.854.854 0 0 1 .468 1.128.315.315 0 0 0-.016.267c.041.1.088.122.2.177a.86.86 0 0 1 .471.466.281.281 0 0 1-.259.388z" class="cls-5" transform="translate(-13.318 -1.5)"/>
        <path id="Path_13746" d="M16.1 16.376a.28.28 0 0 1-.2-.082l-3.607-3.607a.281.281 0 1 1 .4-.4L16.3 15.9a.281.281 0 0 1-.2.479z" class="cls-6" transform="translate(-6.233 -6.233)"/>
        <path id="Path_13747" d="M9.3 25.354a.817.817 0 0 1-.317-.066.86.86 0 0 1-.466-.471c-.055-.112-.078-.159-.177-.2a.31.31 0 0 0-.266.016.853.853 0 0 1-1.128-.467c-.055-.112-.078-.159-.177-.2a.311.311 0 0 0-.266.016.852.852 0 0 1-1.127-.467c-.055-.112-.078-.159-.176-.2a.281.281 0 0 1 .215-.519.855.855 0 0 1 .465.471c.055.112.078.159.176.2a.309.309 0 0 0 .266-.016.853.853 0 0 1 1.126.467c.055.112.078.159.177.2a.308.308 0 0 0 .266-.016.854.854 0 0 1 1.129.467c.055.112.078.159.177.2a.315.315 0 0 0 .267-.016.858.858 0 0 1 .663 0 .281.281 0 0 1-.215.519.313.313 0 0 0-.267.016 1.03 1.03 0 0 1-.344.07z" class="cls-7" transform="translate(-1.739 -12.847)"/>
        <path id="Path_13748" d="M3.84 36.811H2.531a.281.281 0 0 1 0-.561H3.84a.281.281 0 0 1 0 .561z" class="cls-4" transform="translate(0 -21.281)"/>
        <path id="Path_13749" d="M13.975 36.811h-1.309a.281.281 0 0 1 0-.561h1.309a.281.281 0 1 1 0 .561z" class="cls-4" transform="translate(-6.343 -21.281)"/>
        <path id="Path_13750" d="M5.647 46.159a1.025 1.025 0 0 1-.346-.07.308.308 0 0 0-.265-.016.281.281 0 0 1-.215-.519.856.856 0 0 1 .662 0 .31.31 0 0 0 .265.016c.1-.041.121-.087.177-.2a.853.853 0 0 1 1.128-.467.308.308 0 0 0 .266.016c.1-.041.121-.087.177-.2a.854.854 0 0 1 1.128-.468.315.315 0 0 0 .267.016c.1-.041.122-.088.177-.2a.86.86 0 0 1 .466-.471.281.281 0 0 1 .215.519c-.1.041-.122.088-.177.2a.854.854 0 0 1-1.129.468.313.313 0 0 0-.267-.016c-.1.041-.121.087-.177.2a.853.853 0 0 1-1.128.467.31.31 0 0 0-.266-.016c-.1.041-.121.087-.177.2a.856.856 0 0 1-.465.472.816.816 0 0 1-.316.069z" class="cls-5" transform="translate(-1.501 -25.868)"/>
        <path id="Path_13751" d="M12.489 54.819a.281.281 0 0 1-.2-.479l3.611-3.607a.281.281 0 1 1 .4.4l-3.607 3.607a.28.28 0 0 1-.2.082z" class="cls-6" transform="translate(-6.233 -30.294)"/>
        <path id="Path_13752" d="M23.057 60.15a.281.281 0 0 1-.259-.388.855.855 0 0 1 .471-.465c.112-.055.159-.078.2-.176a.311.311 0 0 0-.016-.266.853.853 0 0 1 .467-1.126c.112-.055.159-.078.2-.177a.31.31 0 0 0-.016-.266.854.854 0 0 1 .467-1.129c.112-.055.159-.078.2-.177a.315.315 0 0 0-.016-.267.86.86 0 0 1 0-.663.281.281 0 0 1 .519.215.312.312 0 0 0 .016.267.855.855 0 0 1-.468 1.129c-.112.055-.159.078-.2.177a.31.31 0 0 0 .016.266.853.853 0 0 1-.467 1.128c-.112.055-.159.078-.2.177a.311.311 0 0 0 .016.266.852.852 0 0 1-.467 1.127c-.112.055-.159.078-.2.176a.281.281 0 0 1-.263.172z" class="cls-7" transform="translate(-12.848 -32.94)"/>
        <path id="Path_13753" d="M36.531 68.62a.281.281 0 0 1-.281-.281v-1.308a.281.281 0 0 1 .561 0v1.309a.281.281 0 0 1-.28.28z" class="cls-4" transform="translate(-21.281 -40.371)"/>
        <path id="Path_13754" d="M36.531 58.486a.281.281 0 0 1-.281-.281V56.9a.281.281 0 0 1 .561 0v1.3a.281.281 0 0 1-.28.286z" class="cls-4" transform="translate(-21.281 -33.027)"/>
        <path id="Path_13755" d="M45.814 60.53a.281.281 0 0 1-.259-.173.855.855 0 0 1 0-.662.309.309 0 0 0 .016-.265c-.041-.1-.087-.121-.2-.177a.853.853 0 0 1-.467-1.128.31.31 0 0 0 .016-.266c-.041-.1-.087-.121-.2-.177a.854.854 0 0 1-.468-1.128.315.315 0 0 0 .016-.267c-.041-.1-.088-.122-.2-.177a.86.86 0 0 1-.471-.466.281.281 0 0 1 .519-.215c.041.1.088.122.2.177a.854.854 0 0 1 .468 1.129.312.312 0 0 0-.016.267c.041.1.087.121.2.177a.853.853 0 0 1 .467 1.128.31.31 0 0 0-.016.266c.041.1.087.121.2.177a.852.852 0 0 1 .467 1.127.309.309 0 0 0-.016.265.281.281 0 0 1-.259.388z" class="cls-5" transform="translate(-25.869 -33.176)"/>
        <path id="Path_13756" d="M54.538 54.818a.28.28 0 0 1-.2-.082l-3.607-3.607a.281.281 0 0 1 .4-.4l3.607 3.607a.281.281 0 0 1-.2.479z" class="cls-6" transform="translate(-30.294 -30.294)"/>
        <path id="Path_13757" d="M59.869 46.912a.279.279 0 0 1-.107-.021.855.855 0 0 1-.465-.471c-.055-.112-.078-.159-.176-.2a.311.311 0 0 0-.266.016.853.853 0 0 1-1.126-.467c-.055-.112-.078-.159-.177-.2a.31.31 0 0 0-.266.016.854.854 0 0 1-1.129-.467c-.055-.112-.078-.159-.177-.2a.315.315 0 0 0-.267.016.86.86 0 0 1-.663 0 .281.281 0 1 1 .215-.519.312.312 0 0 0 .267-.016.855.855 0 0 1 1.129.468c.055.112.078.159.177.2a.308.308 0 0 0 .266-.016.853.853 0 0 1 1.128.467c.055.112.078.159.177.2a.309.309 0 0 0 .264-.016.852.852 0 0 1 1.127.467c.055.112.078.159.176.2a.281.281 0 0 1-.108.54z" class="cls-7" transform="translate(-32.94 -26.341)"/>
        <path id="Path_13758" d="M68.34 36.811h-1.309a.281.281 0 0 1 0-.561h1.309a.281.281 0 0 1 0 .561z" class="cls-4" transform="translate(-40.371 -21.281)"/>
        <path id="Path_13759" d="M58.2 36.811h-1.3a.281.281 0 0 1 0-.561h1.3a.281.281 0 1 1 0 .561z" class="cls-4" transform="translate(-34.027 -21.281)"/>
        <path id="Path_13760" d="M55.537 26.1a.281.281 0 0 1-.108-.54c.1-.041.122-.088.177-.2a.854.854 0 0 1 1.129-.468.313.313 0 0 0 .267.016c.1-.041.121-.087.177-.2a.853.853 0 0 1 1.128-.467.308.308 0 0 0 .266.016c.1-.041.121-.087.177-.2a.852.852 0 0 1 1.127-.467.31.31 0 0 0 .265.016.281.281 0 1 1 .215.519.855.855 0 0 1-.662 0 .308.308 0 0 0-.265-.016c-.1.041-.121.087-.177.2a.853.853 0 0 1-1.128.467.31.31 0 0 0-.266-.016c-.1.041-.121.087-.177.2a.854.854 0 0 1-1.128.468.315.315 0 0 0-.267-.016c-.1.041-.122.088-.177.2a.86.86 0 0 1-.466.471.278.278 0 0 1-.107.022z" class="cls-5" transform="translate(-33.176 -13.317)"/>
        <path id="Path_13761" d="M50.931 16.377a.281.281 0 0 1-.2-.479l3.607-3.607a.281.281 0 0 1 .4.4l-3.608 3.604a.28.28 0 0 1-.199.082z" class="cls-6" transform="translate(-30.294 -6.233)"/>
        <path id="Path_13762" d="M44.68 10.3a.281.281 0 0 1-.259-.388.312.312 0 0 0-.016-.267.855.855 0 0 1 .468-1.129c.112-.055.159-.078.2-.177a.31.31 0 0 0-.016-.266.853.853 0 0 1 .467-1.128c.112-.055.159-.078.2-.177a.311.311 0 0 0-.017-.266.852.852 0 0 1 .467-1.127c.112-.055.159-.078.2-.176a.281.281 0 1 1 .519.215.855.855 0 0 1-.471.465c-.112.055-.159.078-.2.176a.311.311 0 0 0 .016.266.853.853 0 0 1-.467 1.126c-.112.055-.159.078-.2.177a.31.31 0 0 0 .016.266.854.854 0 0 1-.467 1.129c-.112.055-.159.078-.2.177a.315.315 0 0 0 .016.267.86.86 0 0 1 0 .663.281.281 0 0 1-.259.175z" class="cls-7" transform="translate(-26.342 -1.739)"/>
        <path id="Path_13763" fill="#323c6b" stroke="#323c6b" stroke-width="0.8px" d="M27.986 30.729a.162.162 0 0 1-.075-.019l-3.583-1.882-3.582 1.88a.162.162 0 0 1-.235-.171l.684-3.988-2.9-2.825a.162.162 0 0 1 .09-.277l4.005-.584 1.791-3.629a.169.169 0 0 1 .292 0l1.791 3.629 4.005.584a.162.162 0 0 1 .09.277l-2.9 2.825.684 3.988a.162.162 0 0 1-.16.189zm-3.658-2.247a.162.162 0 0 1 .076.019l3.367 1.77-.643-3.75a.162.162 0 0 1 .047-.143l2.725-2.655-3.764-.547a.162.162 0 0 1-.122-.089l-1.684-3.411-1.684 3.411a.162.162 0 0 1-.122.089l-3.765.547 2.723 2.655a.162.162 0 0 1 .047.143l-.643 3.75 3.367-1.77a.162.162 0 0 1 .076-.018z" transform="translate(-9.078 -9.688)"/>
    </g>
</svg>
