<svg xmlns="http://www.w3.org/2000/svg" width="28" height="28" viewBox="0 0 28 28">
    <defs>
        <style>
            .cls-2{fill:#05afd6}.cls-4{fill:#fcd462}.cls-5{fill:#323c6b;stroke:#323c6b;stroke-width:.4px}
        </style>
    </defs>
    <g id="Electricians" transform="translate(-203 -1326) translate(203 1326)">
        <path id="Rectangle_91" fill="none" d="M0 0h28v28H0z"/>
        <g id="daily-needs-icn">
            <g id="Group_14489" transform="translate(-172.808 -284)">
                <g id="plug" transform="translate(163.638 284.23)">
                    <path id="Path_12703" d="M27.05 17.5l-2.134 4.149a6.325 6.325 0 0 0 2.731 8.518l1.6.825a6.325 6.325 0 0 0 8.518-2.731l2.135-4.154a1.03 1.03 0 0 0-.445-1.388l-11.017-5.671a1.03 1.03 0 0 0-1.388.447z" class="cls-2" transform="translate(-9.83 -8.087)"/>
                    <path id="Path_12704" fill="#27a2db" d="M39.918 31.857l-2.132 4.149a6.332 6.332 0 0 1-8.521 2.733l-1.6-.828a6.311 6.311 0 0 1-3.425-5.341 6.284 6.284 0 0 0 3.149 3.772l1.6.824a6.328 6.328 0 0 0 8.521-2.733l2.017-3.922a1.016 1.016 0 0 1 .391 1.346z" transform="translate(-9.845 -15.838)"/>
                    <path id="Path_12705" d="M40.7 3.412a1.268 1.268 0 0 0-1.709.547L35.98 9.674l2.256 1.158 3.013-5.714a1.268 1.268 0 0 0-.549-1.706z" class="cls-4" transform="translate(-16.548 -.286)"/>
                    <path id="Path_12706" d="M37.953 10.763a.215.215 0 0 1-.1-.024L35.6 9.581a.215.215 0 0 1-.092-.291l3.012-5.717a1.482 1.482 0 1 1 2.634 1.358l-3.011 5.717a.215.215 0 0 1-.19.115zM35.988 9.3l1.874.964 2.913-5.527A1.054 1.054 0 1 0 38.9 3.77z" class="cls-5" transform="translate(-16.263)"/>
                    <path id="Path_12707" d="M57.283 11.938a1.268 1.268 0 0 0-1.708.547L52.563 18.2l2.256 1.158 3.012-5.716a1.268 1.268 0 0 0-.548-1.704z" class="cls-4" transform="translate(-26.015 -5.154)"/>
                    <path id="Path_12708" d="M54.532 19.293a.215.215 0 0 1-.1-.024l-2.256-1.158a.215.215 0 0 1-.092-.291L55.1 12.1a1.483 1.483 0 0 1 2.636 1.358l-3.012 5.716a.215.215 0 0 1-.19.115zm-1.965-1.467l1.874.964 2.915-5.527a1.054 1.054 0 0 0-1.876-.963z" class="cls-5" transform="translate(-25.729 -4.871)"/>
                    <path id="Path_12709" d="M30.023 47.052l-.432.841a1.571 1.571 0 1 0 2.794 1.437l.432-.841z" class="cls-2" transform="translate(-12.8 -25.282)"/>
                    <path id="Path_12710" d="M30.7 50.111a1.786 1.786 0 0 1-1.588-2.6l.432-.841a.215.215 0 0 1 .289-.093l2.794 1.437a.215.215 0 0 1 .093.289l-.432.841a1.773 1.773 0 0 1-1.042.883 1.8 1.8 0 0 1-.546.084zm-.87-3.056l-.334.65a1.356 1.356 0 0 0 2.412 1.241l.334-.65z" class="cls-5" transform="translate(-12.512 -24.996)"/>
                    <circle id="Ellipse_869" cx="1.757" cy="1.757" r="1.757" fill="#e1e6e9" transform="rotate(-62.794 23.984 -6.9)"/>
                    <g id="Group_14496" transform="translate(14.17 8.632)">
                        <path id="Path_12712" d="M38.231 34.871a1.977 1.977 0 1 1 .6-.1 1.977 1.977 0 0 1-.6.1zm0-3.514a1.542 1.542 0 1 0 .7.172 1.542 1.542 0 0 0-.695-.172z" class="cls-5" transform="translate(-30.872 -24.703)"/>
                        <path id="Path_12717" d="M36.624 35.2a.215.215 0 0 1-.057-.421l3.372-.931a.215.215 0 1 1 .114.414l-3.372.931a.214.214 0 0 1-.057.008z" class="cls-5" transform="translate(-30.963 -26.371)"/>
                        <path id="Path_12718" d="M31.852 31.62a6.511 6.511 0 0 1-2.984-.729l-1.6-.825a6.539 6.539 0 0 1-2.824-8.807l2.135-4.149a1.244 1.244 0 0 1 1.676-.538l11.021 5.671a1.247 1.247 0 0 1 .538 1.677l-2.135 4.149a6.557 6.557 0 0 1-5.822 3.552zm-4.17-14.756a.823.823 0 0 0-.25.039.812.812 0 0 0-.476.4l-2.135 4.149a6.111 6.111 0 0 0 2.639 8.229l1.6.825a6.11 6.11 0 0 0 8.23-2.639l2.135-4.149a.818.818 0 0 0-.352-1.1l-11.019-5.663a.812.812 0 0 0-.372-.091z" class="cls-5" transform="translate(-23.714 -16.434)"/>
                    </g>
                </g>
            </g>
        </g>
    </g>
</svg>
