<svg xmlns="http://www.w3.org/2000/svg" id="Fitness" width="28" height="28" viewBox="0 0 28 28">
    <defs>
        <style>
            .cls-4{fill:#323c6b;stroke:#323c6b;stroke-width:.5px}
        </style>
    </defs>
    <path id="Rectangle_91" fill="none" d="M0 0h28v28H0z"/>
    <g id="muscle" transform="translate(-11 -14.761)">
        <path id="Path_13840" fill="#ffd39f" d="M37.785 31.907a5.833 5.833 0 0 1-8.236 5.316 9.107 9.107 0 0 1-1.586-.89c-8.93 3.464-13.127-3.126-13.127-3.126a.993.993 0 0 1-1.336-1 32.027 32.027 0 0 1 2.226-10.236 8.9 8.9 0 0 1 6.127-5.616c.1-.026.2-.051.294-.067 1.682-.336 3.077 2.068 3.174 2.648s-2.067 2.448-2.55 2.833-1.395-.712-1.395-.712a1.467 1.467 0 0 1-1.151.57 15.974 15.974 0 0 1 .152 6.89c3.057-2.37 5.276-1.073 6.5.215a6.669 6.669 0 0 1 3.953-2.547 5.809 5.809 0 0 1 6.959 5.726z" transform="translate(-.245 -.242)"/>
        <path id="Path_13841" fill="#e9b87e" d="M37.195 37.316a5.829 5.829 0 0 1-7.65 2.758 8.773 8.773 0 0 1-1.584-.89c-8.93 3.466-13.13-3.122-13.13-3.122a1 1 0 0 1-1.331-1.007 32.121 32.121 0 0 1 2.226-10.236 9.149 9.149 0 0 1 1.629-2.8 8.474 8.474 0 0 0-.617 1.341 32.121 32.121 0 0 0-2.231 10.24.994.994 0 0 0 1.336 1s4.2 6.588 13.13 3.127a9.172 9.172 0 0 0 1.584.891 5.8 5.8 0 0 0 6.638-1.302z" transform="translate(-.243 -3.093)"/>
        <g id="Group_15002" transform="translate(13 15.761)">
            <path id="Path_13842" d="M26.063 40.808a.253.253 0 0 1-.163-.446c.136-.115.278-.232.409-.328a.253.253 0 0 1 .3.408c-.122.089-.253.2-.381.3a.249.249 0 0 1-.165.066z" class="cls-4" transform="translate(-19.329 -27.729)"/>
            <path id="Path_13843" d="M40.773 42.417a.253.253 0 0 1-.226-.14 6.752 6.752 0 0 0-1.047-1.44.253.253 0 1 1 .366-.349A7.137 7.137 0 0 1 41 42.051a.253.253 0 0 1-.113.34.259.259 0 0 1-.113.027z" class="cls-4" transform="translate(-26.056 -27.938)"/>
            <path id="Path_13844" d="M31.711 37.761a6.042 6.042 0 0 1-2.513-.548 10.3 10.3 0 0 1-1.518-.835c-8.18 3.1-12.5-2.167-13.2-3.128a1.229 1.229 0 0 1-1-.2 1.491 1.491 0 0 1-.48-1.088 32.131 32.131 0 0 1 2.239-10.322 9.131 9.131 0 0 1 6.3-5.778c.107-.027.208-.051.306-.07a2.185 2.185 0 0 1 1.7.418 4.9 4.9 0 0 1 1.771 2.436c.143.841-2.614 3.05-2.642 3.072-.512.415-1.214-.183-1.563-.544a1.831 1.831 0 0 1-.828.43 16.245 16.245 0 0 1 .2 6.093 4.507 4.507 0 0 1 6.113.4 6.886 6.886 0 0 1 3.92-2.414 5.914 5.914 0 0 1 4.982 1.2 6.107 6.107 0 0 1-3.788 10.875zm-4-1.923a.253.253 0 0 1 .152.051 8.992 8.992 0 0 0 1.538.86 5.592 5.592 0 0 0 5.784-9.468 5.418 5.418 0 0 0-4.558-1.1 6.441 6.441 0 0 0-3.806 2.455.253.253 0 0 1-.187.1.232.232 0 0 1-.2-.078c-1.236-1.3-3.308-2.4-6.157-.188a.253.253 0 0 1-.4-.253 15.631 15.631 0 0 0-.149-6.78.253.253 0 0 1 .274-.31 1.243 1.243 0 0 0 .941-.49.271.271 0 0 1 .192-.083.253.253 0 0 1 .189.091c.317.378.867.822 1.042.677.979-.78 2.474-2.246 2.46-2.6a4.56 4.56 0 0 0-1.561-2.1 1.7 1.7 0 0 0-1.316-.339c-.09.018-.184.039-.282.064a8.624 8.624 0 0 0-5.951 5.459 31.7 31.7 0 0 0-2.211 10.154.987.987 0 0 0 .289.685.841.841 0 0 0 .732.072.249.249 0 0 1 .275.109c.167.262 4.2 6.369 12.822 3.026a.239.239 0 0 1 .092-.018z" class="cls-4" transform="translate(-13 -15.761)"/>
        </g>
    </g>
</svg>
