<svg xmlns="http://www.w3.org/2000/svg" width="28" height="28" viewBox="0 0 28 28">
    <defs>
        <style>
            .cls-5{fill:#1e2e59}
        </style>
    </defs>
    <g id="Flex_Printing_Services" transform="translate(-225 -93)">
        <path id="Rectangle_91" fill="none" d="M0 0h28v28H0z" transform="translate(225 93)"/>
        <g id="Group_15056" transform="translate(-89.689 -289.376)">
            <path id="Path_14210" fill="#05afd6" d="M333.388 393.3h4.774v-2.964a1.816 1.816 0 0 0-1.81-1.81h-15.475a1.815 1.815 0 0 0-1.81 1.81v2.964z"/>
            <path id="Path_14211" fill="#ffce46" d="M323.841 390.914v10.5h4.774l4.774-4.774v-5.728z"/>
            <path id="Path_14212" fill="#ffe5a3" d="M333.389 396.643a4.773 4.773 0 0 1-4.772 4.774 4.761 4.761 0 0 0 1.4-3.376 4.752 4.752 0 0 0 3.372-1.398z"/>
            <path id="Path_14304" d="M336.533 389.938a.4.4 0 1 0 .4.4.4.4 0 0 0-.4-.4z" class="cls-5"/>
            <path id="Path_14305" d="M336.533 391.543a.4.4 0 1 0 .4.4.4.4 0 0 0-.4-.4z" class="cls-5"/>
            <path id="Path_14306" d="M338.539 390.563a2.192 2.192 0 0 0-2.186-2.187h-15.476a2.2 2.2 0 0 0-2.188 2.187v2.964a.379.379 0 0 0 .377.377h1.253v10.851h-.975a.373.373 0 0 0-.418.339.379.379 0 0 0 .34.411.412.412 0 0 0 .07 0h2.755a.377.377 0 0 0 .041-.752.412.412 0 0 0-.07 0h-.984V393.9h2.391v7.74a.38.38 0 0 0 .377.377h4.768a5.166 5.166 0 0 0 5.152-5.151V393.9h2.39v10.851h-1.014a.378.378 0 0 0-.244.086.371.371 0 0 0-.135.255.378.378 0 0 0 .34.411.412.412 0 0 0 .07 0h2.727a.379.379 0 0 0 .418-.34.379.379 0 0 0-.34-.41.418.418 0 0 0-.071 0h-.982V393.9h1.251a.377.377 0 0 0 .367-.377zm-5.658 7.37a4.4 4.4 0 0 1-3.175 3.195l-.125.2v-.319l.03-.008a5.091 5.091 0 0 0 .761-2.3l.006-.063.063-.006a5.117 5.117 0 0 0 2.328-.779l.158-.1zm.131-1.224l-.025.022a4.347 4.347 0 0 1-2.961 1.16h-.011a.379.379 0 0 0-.377.378 4.348 4.348 0 0 1-1.161 2.975l-.022.025h-4.236v-9.751h8.793zm4.773-3.635h-.065l-.005.076h-3.949v-1.632h.974a.244.244 0 0 0 .037 0 .376.376 0 0 0 .3-.617.371.371 0 0 0-.255-.135.418.418 0 0 0-.071 0h-12.268a.377.377 0 0 0 .007.75h.969v1.632h-4.02v-2.587a1.438 1.438 0 0 1 1.433-1.432h15.481a1.437 1.437 0 0 1 1.432 1.432z" class="cls-5"/>
        </g>
    </g>
</svg>
