<svg xmlns="http://www.w3.org/2000/svg" width="28" height="28" viewBox="0 0 28 28">
    <defs>
        <style>
            .cls-4{fill:#e65358}.cls-5{fill:#c10f1d}
        </style>
    </defs>
    <g id="Florists" transform="translate(-225 -93)">
        <path id="Rectangle_91" fill="none" d="M0 0h28v28H0z" transform="translate(225 93)"/>
        <g id="Group_15095" transform="translate(-95.274 -321.169)">
            <path id="Path_14422" fill="#74b037" d="M336.284 420.887a2.539 2.539 0 0 0 3.52 3.661l.07-.071c.991-.991 1.918-3.525.927-4.516s-3.525-.061-4.517.926z"/>
            <path id="Path_14423" fill="#458732" d="M336.284 420.887a2.538 2.538 0 0 0-.7 2.255 2.523 2.523 0 0 1 .7-1.334c.991-.991 3.525-1.918 4.516-.926a1.473 1.473 0 0 1 .389.8 2 2 0 0 0-.389-1.725c-.991-.988-3.525-.057-4.516.93z"/>
            <path id="Path_14424" d="M331.449 421.789l-.247 1.018a1.748 1.748 0 0 1-.594.952 1.776 1.776 0 0 1-2.5-2.5 1.748 1.748 0 0 1 .954-.6l1.018-.247z" class="cls-4"/>
            <path id="Path_14425" d="M330.079 420.418l1.371 1.371-.247 1.018a1.748 1.748 0 0 1-.594.952 2.349 2.349 0 0 1-.378-.82l-.065-.271a1.978 1.978 0 0 1-.964-.964l-.271-.066a2.341 2.341 0 0 1-.823-.372 1.748 1.748 0 0 1 .954-.6z" class="cls-5"/>
            <path id="Path_14426" d="M333.868 420.5a1.744 1.744 0 0 1-.954.6l-1.017.247-1.371-1.372.251-1.019a1.751 1.751 0 0 1 .594-.952 1.776 1.776 0 0 1 2.5 2.5z" class="cls-4"/>
            <path id="Path_14427" d="M333.868 420.5a1.744 1.744 0 0 1-.954.6l-1.017.247-1.371-1.371.247-1.017a1.751 1.751 0 0 1 .594-.952 2.331 2.331 0 0 1 .378.82l.066.27a1.972 1.972 0 0 1 .964.965l.271.066a2.354 2.354 0 0 1 .822.376z" class="cls-5"/>
            <path id="Path_14428" d="M328.226 418.119a1.773 1.773 0 0 1 2.976.835l.248 1.02-1.369 1.369-1.018-.247a1.774 1.774 0 0 1-.837-2.977z" class="cls-4"/>
            <path id="Path_14429" d="M333.749 423.642a1.773 1.773 0 0 1-2.976-.835l-.247-1.018 1.371-1.371 1.018.247a1.772 1.772 0 0 1 .834 2.977z" class="cls-4"/>
            <path id="Path_14430" fill="#fdc6ae" d="M332.4 420.88a1.409 1.409 0 1 1-1.409-1.409 1.409 1.409 0 0 1 1.409 1.409z"/>
            <path id="Path_14431" fill="#cac840" d="M338.26 428.431a4.1 4.1 0 0 0-6.732 0z"/>
            <path id="Path_14432" fill="#ccd29b" d="M338.611 438.954h-7.24a.415.415 0 0 1-.413-.38l-.689-8.363h9.447l-.689 8.363a.414.414 0 0 1-.413.38z"/>
            <path id="Path_14433" fill="#b0b680" d="M332.572 438.954h-1.2a.415.415 0 0 1-.413-.38l-.689-8.363h1.2l.689 8.363a.415.415 0 0 0 .413.38z"/>
            <path id="Path_14434" fill="#ffedc5" d="M339.889 430.953h-9.8a.414.414 0 0 1-.414-.414v-2.031a.414.414 0 0 1 .414-.414h9.8a.414.414 0 0 1 .414.414v2.031a.414.414 0 0 1-.414.414z"/>
            <path id="Path_14435" fill="#e6c7b4" d="M331.291 430.953h-1.2a.414.414 0 0 1-.414-.414v-2.031a.414.414 0 0 1 .414-.414h1.2a.414.414 0 0 0-.414.414v2.031a.414.414 0 0 0 .414.414z"/>
            <path id="Path_14422-2" fill="#1e2e59" d="M339.888 427.739h-1.727a4.457 4.457 0 0 0-2.906-1.41v-.276l1.068-1.068a2.9 2.9 0 0 0 3.8-.255 5.729 5.729 0 0 0 1.477-3.61 1.89 1.89 0 0 0-.551-1.412 2.183 2.183 0 0 0-1.541-.521c-.127 0-.26.007-.4.02a7.408 7.408 0 0 0-1.524.426 5.083 5.083 0 0 0-1.556 1 2.887 2.887 0 0 0-.221 3.851l-.681.682a3.339 3.339 0 0 0-.862-1.474l-.048-.051a2.148 2.148 0 0 0-.213-2.764 2.135 2.135 0 0 0-2.855-3.176 2.246 2.246 0 0 0-.163.161 2.134 2.134 0 0 0-3.017 3.018 2.134 2.134 0 0 0-.164 2.989 2.137 2.137 0 0 0 3.013.191 2.277 2.277 0 0 0 .164-.162 2.136 2.136 0 0 0 .932.541 2.182 2.182 0 0 0 .587.081 2.079 2.079 0 0 0 1.2-.38l.058.057a2.643 2.643 0 0 1 .774 1.875v.262a4.448 4.448 0 0 0-2.906 1.406h-1.54a.772.772 0 0 0-.772.772v2.032a.767.767 0 0 0 .68.763l.6 7.294a.772.772 0 0 0 .773.709h7.243a.772.772 0 0 0 .769-.708l.6-7.294a.768.768 0 0 0 .68-.764v-2.033a.774.774 0 0 0-.771-.772zm-.743 5.056l-.477 5.749a.056.056 0 0 1-.057.051h-7.242a.058.058 0 0 1-.058-.052l-.474-5.749zm.119-1.484l-.063.767h-8.423l-.063-.77zm-9.643-7.478v-.035a1.269 1.269 0 0 1-.137.007 1.419 1.419 0 0 1-1.409-1.282 1.253 1.253 0 0 1 0-.274 1.426 1.426 0 0 1 .5-.949 2.2 2.2 0 0 0 .407.143l.369.09a1.778 1.778 0 0 0 .99.991l.089.367a2.191 2.191 0 0 0 .143.407 1.42 1.42 0 0 1-.951.5v.035zm-.142-5.873a1.416 1.416 0 0 1 1.375 1.08l.02.081a1.771 1.771 0 0 0-1.649 1.649l-.082-.02a1.415 1.415 0 0 1 .335-2.79zm2.561 2.919a1.052 1.052 0 0 1-1.052 1.053 1.064 1.064 0 0 1-.745-.307 1.053 1.053 0 1 1 1.8-.746zm1.366-.416a2.2 2.2 0 0 0-.406-.143l-.37-.09a1.768 1.768 0 0 0-.99-.99l-.089-.372a2.17 2.17 0 0 0-.144-.406 1.4 1.4 0 0 1 .92-.5h.028a1.418 1.418 0 0 1 1.551 1.538 1.43 1.43 0 0 1-.5.963zm-.659.53l.08.02a1.416 1.416 0 0 1-.625 2.762l-.09-.024a1.4 1.4 0 0 1-.995-1.028l-.019-.08a1.774 1.774 0 0 0 1.649-1.65zm6.449-1.073c.528-.044 1.07-.056 1.348.292a1.907 1.907 0 0 1 .193 1.919 4.988 4.988 0 0 1-1.113 2.1 2.18 2.18 0 0 1-2.787.243l2.307-2.307a.357.357 0 1 0-.5-.505l-2.317 2.316a2.186 2.186 0 0 1 .212-2.835 4.479 4.479 0 0 1 1.333-.848 6.025 6.025 0 0 1 1.328-.375zm-6.492 7.819a3.768 3.768 0 0 1 2.19-.708 3.771 3.771 0 0 1 2.191.708zm7.244.772v2.033a.056.056 0 0 1-.056.056h-9.8a.057.057 0 0 1-.057-.056v-2.033a.057.057 0 0 1 .057-.056h9.8a.056.056 0 0 1 .056.056z"/>
        </g>
    </g>
</svg>
