<svg xmlns="http://www.w3.org/2000/svg" width="28" height="28" viewBox="0 0 28 28">
    <defs>
        <style>
            .cls-2{fill:#349966}.cls-5{fill:#966342}.cls-6{fill:#ad7d4d}
        </style>
    </defs>
    <g id="Gardener" transform="translate(-203 -1326)">
        <path id="Rectangle_91" fill="none" d="M0 0h28v28H0z" transform="translate(203 1326)"/>
        <g id="Fill_out_line" transform="translate(189 1265.738)">
            <path id="Path_17411" d="M128.063 160.806v1.613a4.032 4.032 0 0 1-4.031 4.032H120v-2.318a4.134 4.134 0 0 1 4.132-4.133h3.124a.806.806 0 0 1 .807.806z" class="cls-2" transform="translate(-98.759 -90.591)"/>
            <path id="Path_17412" d="M32.063 196.132v5.543H30.45v-3.225h-2.418A4.032 4.032 0 0 1 24 194.419v-1.613a.806.806 0 0 1 .806-.806h3.124a4.132 4.132 0 0 1 4.132 4.132z" class="cls-2" transform="translate(-7.597 -120.978)"/>
            <path id="Path_17413" fill="#c4d4e0" d="M260.166 266.419l-2.032 4.354a4.031 4.031 0 0 1-2.311 2.1h-3.073c0-.018-.009-.036-.013-.054l-.339-1.691a4.034 4.034 0 0 1 .453-2.791l2.477-4.337z" transform="translate(-224.411 -189.35)"/>
            <path id="Path_17414" fill="#a6b2bc" d="M328.564 160l-4.133 7.89a.723.723 0 0 0 .239.937.723.723 0 0 0 1.041-.266l4.062-7.755z" transform="translate(-292.809 -90.591)"/>
            <path id="Path_17415" d="M364.691 81.292a1.531 1.531 0 0 0 1.959-.7l3.01-5.746a1.531 1.531 0 0 0-.753-2.117 1.531 1.531 0 0 0-1.959.7l-3.01 5.746a1.531 1.531 0 0 0 .753 2.117z" class="cls-5" transform="translate(-330.238 -7.603)"/>
            <path id="Path_17416" d="M64.063 369.207v1.613H56a1.209 1.209 0 0 1 2.071-.849 1.209 1.209 0 0 1 1.748-1.414 1.208 1.208 0 0 1 2.027-.018 1.209 1.209 0 0 1 2.217.668z" class="cls-6" transform="translate(-37.984 -288.106)"/>
            <path id="Rectangle_16195" d="M0 0H9.272V0.806H0z" class="cls-5" transform="translate(16.806 82.31)"/>
            <path id="Path_17417" d="M195.288 394.444H184.04a2.045 2.045 0 0 1-.04-.4 2.016 2.016 0 0 1 3.868-.8 1.164 1.164 0 0 1 .163-.011 1.206 1.206 0 0 1 .922.427 1.612 1.612 0 0 1 2.187 0 1.209 1.209 0 0 1 1.93.114 1.209 1.209 0 0 1 2.217.668z" class="cls-6" transform="translate(-159.534 -310.925)"/>
            <path id="Rectangle_16196" d="M0 0H15.723V0.806H0z" class="cls-5" transform="translate(23.257 83.116)"/>
            <path id="Path_17418" fill="#333a60" d="M36.769 73.18l3.01-5.746a1.934 1.934 0 1 0-3.426-1.795l-3.01 5.746a1.922 1.922 0 0 0-.009 1.776l-.932 1.78-1.3-.652a.4.4 0 0 0-.531.161l-2.481 4.334a4.437 4.437 0 0 0-.583 2.142 2.42 2.42 0 0 0-1.026-.228h-.051a1.615 1.615 0 0 0-1.562-1.211v-3.224h.4a4.44 4.44 0 0 0 4.435-4.435v-1.612a1.211 1.211 0 0 0-1.203-1.21h-3.127a4.513 4.513 0 0 0-3.642 1.833 4.515 4.515 0 0 0-1.4-.221h-3.122A1.211 1.211 0 0 0 16 71.828v1.613a4.44 4.44 0 0 0 4.435 4.435h2.015v1.664a1.615 1.615 0 0 0-.737.423 1.613 1.613 0 0 0-2.048 1.2 1.612 1.612 0 0 0-2 1.148h-.857v.806h1.209a.4.4 0 0 0 .4-.4.806.806 0 1 1 1.613 0h.806a1.605 1.605 0 0 0-.386-1.045.805.805 0 0 1 .789-.971h.05a.808.808 0 0 1 .756.8h.806a1.608 1.608 0 0 0-.423-1.088.8.8 0 0 1 .947.073 1.608 1.608 0 0 0-.121.612h.806a.806.806 0 0 1 1.572-.25 2.423 2.423 0 0 0-1.572 2.266h.806a1.612 1.612 0 0 1 2.867-1.014 1.614 1.614 0 0 0-.848 1.42h.806a.806.806 0 1 1 1.613 0h.806a1.6 1.6 0 0 0-.148-.674 1.21 1.21 0 0 1 1.1 0 1.608 1.608 0 0 0-.148.673h.806a.806.806 0 1 1 1.613 0h.806a1.608 1.608 0 0 0-.121-.612.806.806 0 0 1 1.33.612.4.4 0 0 0 .4.4h3.232v-.806h-2.873a1.612 1.612 0 0 0-2.283-1.039 4.455 4.455 0 0 0 .265-.484l2.032-4.354a.4.4 0 0 0-.185-.531l-1.519-.759.92-1.757a1.937 1.937 0 0 0 1.433-1.012zm-12.706 6.525a1.62 1.62 0 0 0-.2.137 1.614 1.614 0 0 0-.606-.3v-2.07a.4.4 0 0 0-.4-.4h-.806a3.633 3.633 0 0 1-3.628-3.628v-.4h-.806v.4a4.428 4.428 0 0 0 1.617 3.422 3.634 3.634 0 0 1-2.424-3.422v-1.616a.4.4 0 0 1 .4-.4h3.124a3.734 3.734 0 0 1 3.729 3.729zM22.5 71.169a3.711 3.711 0 0 1 2.876-1.356H28.5a.4.4 0 0 1 .4.4v1.613a3.634 3.634 0 0 1-2.425 3.422 4.445 4.445 0 0 0 1.619-3.422v-.4h-.806v.4a3.641 3.641 0 0 1-2.419 3.422v-.1a4.539 4.539 0 0 0-2.369-3.979zm12.726 6.086l-1.866 4a3.624 3.624 0 0 1-.432.7 1.608 1.608 0 0 0-1.341.258 2.008 2.008 0 0 0-1.07-.307h-.054l1.214-2.227-.708-.386-1.573 2.884a1.6 1.6 0 0 0-.814-.27 2.417 2.417 0 0 0-.213-.311 3.626 3.626 0 0 1 .425-2.414l2.287-4 .95.475-.762 1.456a1.126 1.126 0 1 0 1.995 1.045l.782-1.494zm-2.678.529a.321.321 0 0 1-.285.172.314.314 0 0 1-.176-.054.318.318 0 0 1-.106-.414l1.916-3.659a1.919 1.919 0 0 0 .4.232 1.792 1.792 0 0 0 .168.063zm2.066-4.464a1.128 1.128 0 0 1-.554-1.56l3.01-5.746a1.127 1.127 0 0 1 2 1.047l-3.01 5.746a1.133 1.133 0 0 1-1.443.513z"/>
        </g>
    </g>
</svg>
