<svg xmlns="http://www.w3.org/2000/svg" width="28" height="28" viewBox="0 0 28 28">
  <g id="Gas" transform="translate(-32 -209)">
    <g id="daily-needs-icn" transform="translate(32 209)">
      <path id="Rectangle_91" data-name="Rectangle 91" d="M0,0H28V28H0Z" fill="none"/>
      <g id="Packers_Movers" data-name="Packers &amp; Movers" transform="translate(88.751 46)">
        <g id="daily-needs-icn-2" data-name="daily-needs-icn" transform="translate(-82 -44)">
          <path id="Rectangle_91-2" data-name="Rectangle 91" d="M0,0H1.313V1.313H0Z" transform="translate(5.344 11.859)" fill="none"/>
          <g id="gas-2" data-name="gas" transform="translate(0 0)">
            <g id="Group_16689" data-name="Group 16689">
              <g id="Group_16688" data-name="Group 16688" transform="translate(0.352 0.352)">
                <path id="Path_17586" data-name="Path 17586" d="M147.948,451.848h9.608a.273.273,0,0,1,.272.272v1.923a.274.274,0,0,1-.272.274h-9.608a.275.275,0,0,1-.274-.274V452.12A.274.274,0,0,1,147.948,451.848Z" transform="translate(-145.855 -431.02)" fill="#dc4655" fill-rule="evenodd"/>
                <path id="Path_17587" data-name="Path 17587" d="M329.348,451.848h1.366a.273.273,0,0,1,.272.272v1.923a.274.274,0,0,1-.272.274h-1.366a.275.275,0,0,0,.274-.274V452.12A.274.274,0,0,0,329.348,451.848Z" transform="translate(-319.013 -431.02)" fill="#d82e3d" fill-rule="evenodd"/>
                <path id="Path_17588" data-name="Path 17588" d="M163.535,13.323h8.148a.274.274,0,0,0,.274-.272V7.783a.274.274,0,0,0-.274-.272h-8.148a.273.273,0,0,0-.272.272v5.267A.273.273,0,0,0,163.535,13.323Z" transform="translate(-160.713 -7.511)" fill="#dc4655" fill-rule="evenodd"/>
                <path id="Path_17589" data-name="Path 17589" d="M313.785,13.323h1.365a.274.274,0,0,0,.274-.272V7.783a.274.274,0,0,0-.274-.272h-1.365a.273.273,0,0,1,.272.272v5.267A.273.273,0,0,1,313.785,13.323Z" transform="translate(-304.179 -7.511)" fill="#d82e3d" fill-rule="evenodd"/>
                <path id="Path_17590" data-name="Path 17590" d="M110.684,119.085h10.154a1.825,1.825,0,0,1,1.82,1.819v2.643l-.437,4,.437,3.7v2.643a1.826,1.826,0,0,1-1.82,1.82H110.684a1.825,1.825,0,0,1-1.819-1.82V131.25l.381-3.867-.381-3.836V120.9A1.824,1.824,0,0,1,110.684,119.085Z" transform="translate(-108.865 -113.855)" fill="#e6646e" fill-rule="evenodd"/>
                <path id="Path_17591" data-name="Path 17591" d="M335.188,119.085h1.365a1.825,1.825,0,0,1,1.82,1.819v12.989a1.826,1.826,0,0,1-1.82,1.82h-1.365a1.827,1.827,0,0,0,1.82-1.82V120.9A1.825,1.825,0,0,0,335.188,119.085Z" transform="translate(-324.579 -113.855)" fill="#dc4655" fill-rule="evenodd"/>
                <path id="Path_17592" data-name="Path 17592" d="M163.264,39.09h.82a.768.768,0,0,1,.765.764v.74a.768.768,0,0,1-.765.765h-.82Z" transform="translate(-160.714 -37.61)" fill="#cbe2ff" fill-rule="evenodd"/>
                <path id="Path_17593" data-name="Path 17593" d="M316.505,39.09h-.82a.767.767,0,0,0-.765.764v.74a.767.767,0,0,0,.765.765h.82Z" transform="translate(-305.261 -37.61)" fill="#bed8fb" fill-rule="evenodd"/>
                <path id="Path_17594" data-name="Path 17594" d="M239.119,39.09H240.7v3.75h-1.581Z" transform="translate(-233.013 -37.61)" fill="#cbe2ff" fill-rule="evenodd"/>
                <path id="Path_17596" data-name="Path 17596" d="M108.865,214.273h13.794v7.7H108.865Z" transform="translate(-108.865 -204.581)" fill="#ffe17d" fill-rule="evenodd"/>
                <path id="Path_17597" data-name="Path 17597" d="M374.022,214.273h1.365v7.7h-1.365Z" transform="translate(-361.593 -204.581)" fill="#ffc369" fill-rule="evenodd"/>
              </g>
              <path id="Path_17598" data-name="Path 17598" d="M112.6,2.183h-.468a.415.415,0,0,0-.413.413v.74a.413.413,0,0,0,.413.413h.468ZM109.4,18.1a.352.352,0,1,1,0-.7h5.748v-7H102.057v7h5.75a.352.352,0,0,1,0,.7h-5.75v.792a3.64,3.64,0,0,1,0,.7v.78c.03,0-.016.5.173.7a1.509,1.509,0,0,0,.259.348,1.463,1.463,0,0,0,1.036.432H113.68a1.472,1.472,0,0,0,1.468-1.468V18.1H109.4Zm-7.343-8.406h13.091V8.912c.018.026,0-.693,0-.7V7.417c.018.032-.168-.712-.171-.7a1.491,1.491,0,0,0-.259-.349,1.469,1.469,0,0,0-1.038-.432H103.525A1.474,1.474,0,0,0,102.057,7.4Zm4.415,3.5a.351.351,0,0,1-.7,0,1.063,1.063,0,0,0-2.126,0v1.4a1.063,1.063,0,0,0,2.1.221h-.33a.35.35,0,0,1,0-.7h.674a.361.361,0,0,1,.383.349v.13a1.766,1.766,0,0,1-3.532,0V13.2a1.766,1.766,0,0,1,3.532,0Zm4.261,1.755a.351.351,0,1,1,.7,0,.708.708,0,0,0,.706.7h.715a.706.706,0,0,0,0-1.411h-.715a1.407,1.407,0,0,1,0-2.814h.715a1.411,1.411,0,0,1,1.408,1.408.351.351,0,0,1-.7,0,.708.708,0,0,0-.706-.706h-.715a.706.706,0,0,0,0,1.411h.715a1.407,1.407,0,0,1,0,2.814h-.715a1.411,1.411,0,0,1-1.408-1.407Zm-3.2,1.136a.351.351,0,1,1-.683-.159q.494-2.113.987-4.225a.352.352,0,0,1,.343-.272h.852a.35.35,0,0,1,.345.29l.985,4.208a.351.351,0,0,1-.684.159l-.3-1.273h-1.549Zm.925-3.954-.462,1.977h1.221l-.464-1.977Zm5.577,10.4v1.116a.352.352,0,0,1-.352.351H103.525a.35.35,0,0,1-.351-.351V22.533a2.181,2.181,0,0,1-1.82-2.143V7.4a2.178,2.178,0,0,1,2.171-2.171h.379V.352A.353.353,0,0,1,104.256,0h3.55a.351.351,0,1,1,0,.7h-3.2V1.48h.468A1.121,1.121,0,0,1,106.192,2.6v.74a1.118,1.118,0,0,1-1.116,1.116h-.468V5.23h2.853V2.183h-.247a.351.351,0,0,1,0-.7h2.777a.351.351,0,1,1,0,.7h-.246V5.23H112.6V4.453h-.468a1.116,1.116,0,0,1-1.116-1.116V2.6A1.118,1.118,0,0,1,112.13,1.48h.468V.7h-3.2a.351.351,0,1,1,0-.7h3.55a.352.352,0,0,1,.351.352V5.23h.379A2.178,2.178,0,0,1,115.852,7.4V20.39a2.181,2.181,0,0,1-1.82,2.143Zm-10.154.028V23.3h9.451v-.736Zm5.165-20.378h-.878V5.23h.878Zm-3.966,0h-.468V3.75h.468a.415.415,0,0,0,.413-.413V2.6a.417.417,0,0,0-.413-.413Z" transform="translate(-101.354)" fill="#333a60"/>
            </g>
          </g>
        </g>
      </g>
      <g id="Group_16691" data-name="Group 16691" transform="translate(0.242 -2)">
        <path id="Path_16136" data-name="Path 16136" d="M128.748,447.53l-3.6-1.766a.393.393,0,0,0-.344,0l-3.6,1.76a.4.4,0,0,0-.226.354v3.37a3.082,3.082,0,0,0,.314,1.27,3.308,3.308,0,0,0,1.067,1.322h0l2.4,1.635a.39.39,0,0,0,.442,0l2.395-1.635a3.456,3.456,0,0,0,1.367-2.592v-3.361A.392.392,0,0,0,128.748,447.53Zm-.571.6v3.12a2.712,2.712,0,0,1-1.023,1.942l-2.176,1.484-2.177-1.484a2.511,2.511,0,0,1-.8-1,2.333,2.333,0,0,1-.24-.939v-3.124l3.207-1.569Z" transform="translate(-103.963 -438.056)" fill="#333a60"/>
        <path id="Path_16137" data-name="Path 16137" d="M129.962,450.013v3.12a2.713,2.713,0,0,1-1.023,1.942l-2.176,1.484-2.177-1.484a2.511,2.511,0,0,1-.8-1,2.333,2.333,0,0,1-.24-.939v-3.124l3.207-1.569Z" transform="translate(-105.748 -439.941)" fill="#ffc100"/>
        <path id="Path_16138" data-name="Path 16138" d="M132.284,457.01h-.3a1.061,1.061,0,0,0-.114-.277h.418a.263.263,0,0,0,0-.526H130.41a.263.263,0,0,0,0,.526h.535a.557.557,0,0,1,.472.277H130.41a.263.263,0,0,0,0,.526h1.013a.523.523,0,0,1-.476.277h-.538a.266.266,0,0,0-.179.458l1.34,1.267a.26.26,0,0,0,.181.072h.007a.263.263,0,0,0,.185-.082.267.267,0,0,0-.011-.374l-.867-.822a1.065,1.065,0,0,0,.917-.8h.3a.263.263,0,1,0,0-.526Z" transform="translate(-110.33 -445.334)" fill="#333a60"/>
      </g>
    </g>
  </g>
</svg>
