<svg xmlns="http://www.w3.org/2000/svg" width="28" height="28" viewBox="0 0 28 28">
  <defs>
    <style>
      .cls-1 {
        fill: none;
      }

      .cls-2 {
        fill: #ff5050;
      }

      .cls-3 {
        fill: #ffba6b;
      }

      .cls-4 {
        fill: #d4e1f4;
      }

      .cls-5 {
        fill: #ffc526;
      }

      .cls-6, .cls-7 {
        stroke: #000;
      }

      .cls-6 {
        stroke-width: 0.5px;
      }

      .cls-7 {
        stroke-width: 0.2px;
      }
    </style>
  </defs>
  <g id="Banquets_Hall" data-name="Banquets Hall" transform="translate(-100 -283)">
    <path id="Rectangle_6234" data-name="Rectangle 6234" class="cls-1" d="M0,0H28V28H0Z" transform="translate(100 283)"/>
    <g id="Group_14520" data-name="Group 14520">
      <g id="Group_13184" data-name="Group 13184" transform="translate(102 285)">
        <g id="daily-needs-icn">
          <path id="Rectangle_91" data-name="Rectangle 91" class="cls-1" d="M0,0H24V24H0Z"/>
        </g>
        <path id="Rectangle_27" data-name="Rectangle 27" class="cls-1" d="M0,0H24V24H0Z"/>
      </g>
      <path id="Path_12478" data-name="Path 12478" class="cls-2" d="M141.53,260.433a2.521,2.521,0,0,1,.388-.908,4.35,4.35,0,0,1,2.256-1.673,8.636,8.636,0,0,1,3.753-.428,7.5,7.5,0,0,1,2.56.658,3.808,3.808,0,0,1,1.733,1.475,4.346,4.346,0,0,1,.3.662c.08.208.06.225-.163.225H141.775C141.7,260.444,141.625,260.437,141.53,260.433Z" transform="translate(-32.624 31.309)"/>
      <rect id="Rectangle_15842" data-name="Rectangle 15842" class="cls-3" width="3" height="6" transform="translate(113 301)"/>
      <path id="Path_12481" data-name="Path 12481" class="cls-2" d="M314.864,253.421v.77c0,.428,0,.856,0,1.284a1.706,1.706,0,0,1-1.248,1.691,1.664,1.664,0,0,1-2.1-1.335c-.068-.743-.064-1.587-.07-2.336a.266.266,0,0,1,.027-.074A4.342,4.342,0,0,0,314.864,253.421Z" transform="translate(-189.895 35.065)"/>
      <path id="Path_12477" data-name="Path 12477" class="cls-4" d="M64.349,345.331q4.963,0,9.926,0a3.545,3.545,0,0,1,.9.14.69.69,0,0,1,.357.666c0,1.529-.005,3.4-.009,4.929a.55.55,0,0,1-.063.252c-.069.127-.585.151-.73.138a.316.316,0,0,1-.3-.263c-.063-.317-.1-.639-.156-.958a6.676,6.676,0,0,0-.514-1.941,1.237,1.237,0,0,0-.562-.622c-.373-.175-.682.055-1.014.405a2.457,2.457,0,0,0-.559,1.089c-.153.573-.269,1.157-.423,1.729a3.7,3.7,0,0,1-.319.834.9.9,0,0,1-1.518-.088,4.3,4.3,0,0,1-.408-1.208,10.556,10.556,0,0,0-.518-1.9,1.423,1.423,0,0,0-.8-.856c-.622-.21-1.048.108-1.415.72a4.742,4.742,0,0,0-.471,1.326c-.15.6-.3,1.2-.468,1.792a1.223,1.223,0,0,1-.211.385.822.822,0,0,1-1.264-.141,3.042,3.042,0,0,1-.369-.842c-.161-.571-.277-1.154-.421-1.73a3.427,3.427,0,0,0-.416-1,1.265,1.265,0,0,0-2.168.047,4.711,4.711,0,0,0-.462,1.267c-.152.609-.3,1.219-.466,1.823a1.387,1.387,0,0,1-.242.45.667.667,0,0,1-1.1,0,2.106,2.106,0,0,1-.358-.832c-.144-.591-.267-1.187-.418-1.777a2.391,2.391,0,0,0-.66-1.259,1.038,1.038,0,0,0-1.66.23,4.58,4.58,0,0,0-.516,1.495c-.087.453-.147.911-.223,1.366a.808.808,0,0,1-.083.249.381.381,0,0,1-.448.2.368.368,0,0,1-.267-.379c0-.447,0-.895,0-1.342,0-1.082.006-2.505.006-3.587a.73.73,0,0,1,.451-.743.993.993,0,0,1,.373-.065q3.916-.005,7.831,0Z" transform="translate(49.906 -50.273)"/>
      <circle id="Ellipse_900" data-name="Ellipse 900" class="cls-5" cx="0.5" cy="0.5" r="0.5" transform="translate(105.5 286.5)"/>
      <ellipse id="Ellipse_901" data-name="Ellipse 901" class="cls-5" cx="1.5" cy="1" rx="1.5" ry="1" transform="translate(121.7 286.7)"/>
      <path id="Path_12479" data-name="Path 12479" class="cls-6" d="M69.545,202.22a.887.887,0,0,1-.876-.984,1.113,1.113,0,0,1,.181-.452c.17-.254.365-.492.558-.73a.163.163,0,0,1,.27-.022,3.527,3.527,0,0,1,.713,1,.864.864,0,0,1-.567,1.139A2.737,2.737,0,0,1,69.545,202.22Zm.016-1.785a2.641,2.641,0,0,0-.511.743.446.446,0,0,0-.029.194.537.537,0,0,0,.773.424.516.516,0,0,0,.287-.556A2.653,2.653,0,0,0,69.561,200.435Z" transform="translate(36.42 85.67)"/>
      <path id="Path_13237" data-name="Path 13237" class="cls-5" d="M363.672,319.891c-.969.078-12,.063-12,.063s-.219,1.594,1.313,1.672c-.016.031,0,1.063,0,1.063l9.781-.109-.078-.891A2.5,2.5,0,0,0,363.672,319.891Z" transform="translate(-243 -28)"/>
      <rect id="Rectangle_15841" data-name="Rectangle 15841" class="cls-2" width="3" height="6" transform="translate(104.2 289)"/>
      <path id="Path_12485" data-name="Path 12485" class="cls-7" d="M68.768,236.18a1.993,1.993,0,0,0-.016-.24,1.273,1.273,0,0,0-1.135-1.127c-.354-.031-.712-.022-1.068-.021-.125,0-.178-.027-.176-.166q.01-1.017,0-2.033a.153.153,0,0,1,.146-.18,2.012,2.012,0,0,0,1.58-2.055c-.007-.783,0-1.566,0-2.35a.811.811,0,0,0-.31-.672,1.982,1.982,0,0,0-.418-.262,3.369,3.369,0,0,0-1.9-.2,2.139,2.139,0,0,0-1,.393.86.86,0,0,0-.376.729c.008.808,0,1.617.007,2.425a2.189,2.189,0,0,0,.094.65,1.925,1.925,0,0,0,1.448,1.329.181.181,0,0,1,.164.214q-.011.994,0,1.988c0,.131-.027.184-.173.184-.959-.006-1.918,0-2.877,0-.053,0-.106-.007-.146-.01,0-.26-.006-.5.005-.74,0-.045.065-.106.113-.126a1.509,1.509,0,0,0,.769-.666,2.116,2.116,0,0,0,.171-1.218.252.252,0,0,0-.255-.234.876.876,0,0,0-.18,0c-.128.017-.19-.034-.218-.161a3.245,3.245,0,0,0-1.114-1.795,6.156,6.156,0,0,0-3.113-1.288,8.687,8.687,0,0,0-2.625-.009,6.389,6.389,0,0,0-2.5.85,3.67,3.67,0,0,0-1.7,2.05c-.078.255-.154.4-.451.362-.162-.02-.263.111-.269.279-.005.14,0,.281,0,.422a1.433,1.433,0,0,0,.955,1.408.14.14,0,0,1,.107.152c0,.2,0,.393.016.587.012.113-.017.142-.123.141q-.851,0-1.7,0c-.112,0-.148-.039-.146-.15.005-.376,0-.753,0-1.13a2.758,2.758,0,0,1,.055-.382,1.753,1.753,0,0,0,.047-.265c0-1,.008-2.008,0-3.012a.721.721,0,0,0-.751-.734c-.7,0-1.406.005-2.109-.006a.764.764,0,0,0-.778.767c-.006.427-.011.854,0,1.28a1.057,1.057,0,0,0,1.4.984c.046-.013.093-.02.164-.034,0,.081,0,.14,0,.2,0,.216-.006.433.014.647a1.037,1.037,0,0,0,1.266.885.978.978,0,0,1,.117-.013c0,.272-.006.533,0,.793,0,.13-.034.175-.169.173-.587-.007-1.318,0-1.906,0-.407,0-.34.05-.344-.34s-.084-4.077.029-4.422c.041-.126-.135-.239-.252-.263-.09-.018-.132.029-.2.086a.594.594,0,0,0-.126.329c-.01.437.042,4.023.046,4.46,0,.108-.033.155-.143.161a1.071,1.071,0,0,0-.266.045,1.251,1.251,0,0,0-.879,1.312q-.005,2.342,0,4.684a1.133,1.133,0,0,0,.056.369.926.926,0,0,0,1.029.624A1.035,1.035,0,0,0,47.5,241c.1-.588.2-1.176.316-1.761a3.245,3.245,0,0,1,.387-1.069c.185-.306.42-.356.753-.151a.654.654,0,0,1,.22.221,2.451,2.451,0,0,1,.267.568c.173.659.316,1.325.48,1.986a2.875,2.875,0,0,0,.564,1.232,1.259,1.259,0,0,0,1.857.037,2.278,2.278,0,0,0,.526-1c.171-.649.313-1.305.479-1.956a2.349,2.349,0,0,1,.4-.931.686.686,0,0,1,.722-.258.758.758,0,0,1,.547.455,5.85,5.85,0,0,1,.343.988,5.236,5.236,0,0,1,.186,1.154c.021,1.621.009,3.243.01,4.865,0,1.807,0-.385,0,1.423,0,.133-.041.175-.172.172-.381-.008-.763,0-1.145,0-.266,0-.412.107-.408.295s.14.276.4.276h5.844a1.321,1.321,0,0,0,.165-.006.276.276,0,0,0,.243-.265.268.268,0,0,0-.209-.277,1.121,1.121,0,0,0-.239-.02H58.781c0-2.559,0-3.69,0-6.242a1.1,1.1,0,0,1,.008-.21c.1-.511.193-1.025.316-1.531a1.76,1.76,0,0,1,.463-.881.7.7,0,0,1,1.05.049,1.409,1.409,0,0,1,.269.481c.173.606.321,1.22.475,1.832a4.63,4.63,0,0,0,.474,1.309,1.274,1.274,0,0,0,1.643.57,1.456,1.456,0,0,0,.729-.768,8.441,8.441,0,0,0,.529-1.845,5.414,5.414,0,0,1,.418-1.329.932.932,0,0,1,.444-.452.407.407,0,0,1,.585.162,1.944,1.944,0,0,1,.188.375,9.507,9.507,0,0,1,.427,1.888,5.346,5.346,0,0,0,.16.824.9.9,0,0,0,1.235.569.957.957,0,0,0,.575-.94Q68.77,238.507,68.768,236.18Zm-3.806-8.544a2.639,2.639,0,0,1,1.452-.219,1.917,1.917,0,0,1,.845.24c.1.064.24.181.241.274s-.135.214-.239.274a2.326,2.326,0,0,1-1.152.259,2.508,2.508,0,0,1-1.147-.234c-.126-.066-.286-.126-.286-.3S64.832,227.7,64.961,227.635Zm-.265,3.076c-.058-.627-.024-1.263-.029-1.9a.224.224,0,0,1,.023-.063,3.592,3.592,0,0,0,2.835-.014v.587c0,.361,0,.723,0,1.084a1.44,1.44,0,0,1-1.053,1.427A1.4,1.4,0,0,1,64.7,230.711Zm-11.886.248a3.936,3.936,0,0,1,2.042-1.514,7.813,7.813,0,0,1,3.4-.388,6.784,6.784,0,0,1,2.317.6,3.445,3.445,0,0,1,1.568,1.335,3.929,3.929,0,0,1,.275.6c.072.188.054.2-.148.2H52.681c-.068,0-.136-.006-.222-.01A2.281,2.281,0,0,1,52.81,230.959Zm-.966,1.833a.591.591,0,0,1-.018-.073c-.06-.342-.039-.367.3-.367h5.33v0h5.45c.193,0,.193,0,.191.191a.859.859,0,0,1-.853.868c-.226.007-.452.006-.677.006l-8.822,0A.854.854,0,0,1,51.845,232.792Zm10.194,1.615c0,.32-.06.382-.374.382H53.249c-.314,0-.371-.057-.372-.366,0-.09.007-.181,0-.271-.014-.137.046-.168.174-.168q2.2.005,4.4,0v0c1.465,0,2.93,0,4.4,0,.149,0,.216.041.2.2A2.111,2.111,0,0,0,62.039,234.407Zm-12.723-1.122a.456.456,0,0,1-.344-.376,4.83,4.83,0,0,1-.02-.5c0-.417,0-.833-.005-1.25,0-.244-.179-.378-.384-.3a.29.29,0,0,0-.184.267.5.5,0,0,1-.4.481.465.465,0,0,1-.579-.436c-.016-.431-.007-.863,0-1.295a.181.181,0,0,1,.188-.193c.11-.007.221-.005.331-.005h1.671c.261,0,.3.045.305.309,0,.457,0,.914,0,1.37s.005.9,0,1.355a.871.871,0,0,1-.082.359A.433.433,0,0,1,49.316,233.284Zm7.042,13.689c-.224,0-.225,0-.225-.219V241.96l.039-.024a1.308,1.308,0,0,0,.986.507,1.326,1.326,0,0,0,1.031-.43.8.8,0,0,1,.017.195c0,2.061,0,2.674,0,4.766Zm11.836-6.13a.562.562,0,0,1-.064.258.331.331,0,0,1-.344.168A.323.323,0,0,1,67.48,241c-.065-.324-.106-.652-.159-.979a6.818,6.818,0,0,0-.525-1.982,1.262,1.262,0,0,0-.574-.635,1.187,1.187,0,0,0-1.277.323,2.509,2.509,0,0,0-.571,1.112c-.156.585-.274,1.181-.432,1.766a3.778,3.778,0,0,1-.325.852.713.713,0,0,1-1.308,0,4.392,4.392,0,0,1-.416-1.233,10.778,10.778,0,0,0-.529-1.939,1.454,1.454,0,0,0-.82-.874,1.272,1.272,0,0,0-1.6.6,4.842,4.842,0,0,0-.481,1.354c-.153.612-.308,1.223-.478,1.83a1.249,1.249,0,0,1-.215.393.677.677,0,0,1-1.135-.005,3.106,3.106,0,0,1-.377-.86c-.165-.583-.282-1.179-.43-1.767a3.5,3.5,0,0,0-.424-1.022,1.291,1.291,0,0,0-2.214.048,4.809,4.809,0,0,0-.472,1.293c-.155.621-.305,1.245-.476,1.862a1.417,1.417,0,0,1-.248.459.682.682,0,0,1-1.119,0,2.15,2.15,0,0,1-.365-.85c-.147-.6-.273-1.212-.426-1.814a2.442,2.442,0,0,0-.674-1.286,1.06,1.06,0,0,0-1.7.235,4.676,4.676,0,0,0-.527,1.526c-.089.462-.15.93-.228,1.395a.825.825,0,0,1-.084.254.389.389,0,0,1-.457.2.375.375,0,0,1-.273-.387c0-.457,0-.914,0-1.37q0-1.657,0-3.313a.746.746,0,0,1,.46-.758,1.013,1.013,0,0,1,.381-.067q4-.005,8,0h2.2q5.068,0,10.136,0a1.185,1.185,0,0,1,.518.116.7.7,0,0,1,.364.68Q68.2,238.5,68.194,240.843Z" transform="translate(57.231 59.775)"/>
    </g>
  </g>
</svg>
