<svg xmlns="http://www.w3.org/2000/svg" width="28" height="28" viewBox="0 0 28 28">
    <defs>
        <style>
            .cls-1{fill:none}.cls-2{fill:#ffc100}.cls-3{fill:#eeb812}.cls-4{fill:#fff}.cls-5{fill:#333a60}.cls-6{fill:#0dce72}
        </style>
    </defs>
    <g id="Hotels" transform="translate(-102 -285)">
        <path id="Rectangle_6234" d="M0 0h28v28H0z" class="cls-1" transform="translate(102 285)"/>
        <g id="Group_13184" transform="translate(102 285)">
            <g id="daily-needs-icn">
                <path id="Rectangle_91" d="M0 0h28v28H0z" class="cls-1"/>
            </g>
            <path id="Rectangle_27" d="M0 0h28v28H0z" class="cls-1"/>
        </g>
        <g id="building" transform="translate(103.866 287.8)">
            <path id="Path_6308" d="M104.23 77.238v17.769h-3.554v-1.716h-1.269v-4.806h-5.584v4.806h-1.269v1.716H89V77.238zm0 0" class="cls-2" transform="translate(-84.482 -73.317)"/>
            <path id="Path_6309" d="M158.138 12.374v.09H149V9h9.138zm0 0" class="cls-2" transform="translate(-141.436 -8.543)"/>
            <path id="Path_6311" d="M150.965 12.374v.09H149V9h1.965zm0 0" class="cls-3" transform="translate(-141.436 -8.543)"/>
            <path id="Path_6332" d="M150.965 25.389v.436H149V9h1.965zm0 0" class="cls-3" transform="translate(-144.398 -4.593)"/>
            <g id="Group_13745" transform="translate(.457 15.168)">
                <path id="Path_6312" d="M421.538 310.39a1.269 1.269 0 1 1-1.269-1.269 1.269 1.269 0 0 1 1.269 1.269zm0 0" class="cls-4" transform="translate(-398.186 -308.596)"/>
                <path id="Path_6313" d="M160.269 393.441h6.854v1.716H159v-1.716zm0 0" class="cls-4" transform="translate(-151.385 -388.635)"/>
                <path id="Path_6314" d="M184 298.77h5.584v4.806H184zm0 0" class="cls-4" transform="translate(-175.116 -298.77)"/>
                <path id="Path_6315" d="M11.538 310.39a1.269 1.269 0 1 1-1.269-1.269 1.269 1.269 0 0 1 1.269 1.269zm0 0" class="cls-4" transform="translate(-9 -308.596)"/>
            </g>
            <path id="Path_6316" d="M136.457 129.152H146a.457.457 0 0 0 0-.914h-9.544a.457.457 0 0 0 0 .914zm0 0" class="cls-5" transform="translate(-129.096 -121.728)"/>
            <path id="Path_6317" d="M136.457 189.152H146a.457.457 0 0 0 0-.914h-9.544a.457.457 0 0 0 0 .914zm0 0" class="cls-5" transform="translate(-129.096 -178.682)"/>
            <circle id="Ellipse_365" cx="1.234" cy="1.234" r="1.234" class="cls-6" transform="translate(21.23 15.799)"/>
            <circle id="Ellipse_366" cx="1.234" cy="1.234" r="1.234" class="cls-6" transform="translate(.494 15.799)"/>
            <path id="Path_6318" d="M146 239.152a.457.457 0 0 0 0-.914h-9.544a.457.457 0 0 0 0 .914zm0 0" class="cls-5" transform="translate(-129.096 -226.143)"/>
            <path id="Path_6319" fill="#333a60" stroke="#333a60" stroke-width="0.2px" d="M24.264 16.962a1.726 1.726 0 1 0-2.183 1.664v2.606H20.2V3.921a.457.457 0 0 0-.457-.457h-2.586V.457A.457.457 0 0 0 16.7 0H7.562A.457.457 0 0 0 7.1.457v3.007H4.516a.457.457 0 0 0-.457.457v17.311H2.181v-2.606a1.726 1.726 0 1 0-.914 0v2.606H.455a.457.457 0 1 0 0 .914h23.352a.457.457 0 1 0 0-.914h-.812v-2.606a1.729 1.729 0 0 0 1.269-1.664zm-23.353 0a.812.812 0 1 1 .812.812.812.812 0 0 1-.812-.812zM8.019.914h8.224v2.55H8.019zM4.973 4.378h14.316v16.854h-2.64v-1.258a.457.457 0 0 0-.457-.457h-.812v-4.35a.457.457 0 0 0-.457-.457H9.339a.457.457 0 0 0-.457.457v4.349H8.07a.457.457 0 0 0-.457.457v1.259h-2.64zm9.493 15.139h-1.878v-3.893h1.878zm-2.792 0H9.8v-3.893h1.878zm4.061.914v.8H8.526v-.8zm5.99-3.468a.812.812 0 1 1 .812.812.812.812 0 0 1-.811-.813zm0 0" transform="translate(.003)"/>
        </g>
    </g>
</svg>
