<svg xmlns="http://www.w3.org/2000/svg" width="28" height="28" viewBox="0 0 28 28">
    <defs>
        <style>
            .cls-2{fill:#fee9ab}.cls-5{fill:#57a4ff}.cls-6{fill:#806749}.cls-7{fill:#a78966}.cls-16{fill:#333a60}
        </style>
    </defs>
    <g id="House_Keeping_Cleaning" transform="translate(-51 -1171)">
        <path id="Rectangle_91" fill="none" d="M0 0h28v28H0z" transform="translate(51 1171)"/>
        <g id="lamp-cabinets-mop-pail-clean" transform="translate(50.977 1171)">
            <path id="Path_13843" d="M49.667 56.25l.833 1.25h-6.667L43 56.25v-.417a.836.836 0 0 1 .833-.833h5a.836.836 0 0 1 .833.833z" class="cls-2" transform="translate(-23.903 -30.917)"/>
            <path id="Path_13844" fill="#ff7956" d="M50.333 51v1.667H47V51h3.333z" transform="translate(-26.237 -28.583)"/>
            <path id="Path_13845" fill="#c0ab91" d="M50.667 25.833v10H49v-10a.833.833 0 0 1 1.667 0z" transform="translate(-27.403 -13.417)"/>
            <path id="Path_13846" d="M40.833 45v2.5H40v1.667h-.833a.836.836 0 0 0-.833.833v.417l.833 1.25h-3.75L35 45c0 1.15 1.3 2.083 2.917 2.083s2.916-.933 2.916-2.083z" class="cls-5" transform="translate(-19.237 -25.083)"/>
            <path id="Path_13847" d="M35 45h5.833c0 1.15-1.3 2.083-2.917 2.083S35 46.15 35 45z" class="cls-5" transform="translate(-19.237 -25.083)"/>
            <path id="Path_13848" d="M15.5 25.833a.84.84 0 0 1-.833.833H3.833a.833.833 0 0 1 0-1.667h10.834a.836.836 0 0 1 .833.834z" class="cls-6" transform="translate(-.57 -13.417)"/>
            <path id="Path_13849" d="M15.833 29v10.833a.836.836 0 0 1-.833.833H5.833A.836.836 0 0 1 5 39.833V29z" class="cls-7" transform="translate(-1.737 -15.75)"/>
            <path id="Path_13850" fill="#6a563d" d="M29.5 25.833a.84.84 0 0 1-.833.833H27A.833.833 0 0 0 27 25h1.667a.836.836 0 0 1 .833.833z" transform="translate(-14.57 -13.417)"/>
            <path id="Path_13851" fill="#957856" d="M27.5 29v10.833a.836.836 0 0 1-.833.833H25a.836.836 0 0 0 .833-.833V29z" transform="translate(-13.403 -15.75)"/>
            <path id="Path_13852" d="M23 57h2.5v1.667H23z" class="cls-6" transform="translate(-12.237 -32.083)"/>
            <path id="Path_13853" fill="#ffcd00" d="M16.333 8H8l1.667-5h5z" transform="translate(-3.487 -.583)"/>
            <path id="Path_13854" fill="#ebbf00" d="M23.333 8h-1.666L20 3h1.667z" transform="translate(-10.487 -.583)"/>
            <path id="Path_13855" d="M9 45h7.5v3.333H9z" class="cls-2" transform="translate(-4.07 -25.083)"/>
            <path id="Path_13856" d="M9 33h7.5v3.333H9z" class="cls-2" transform="translate(-4.07 -18.083)"/>
            <path id="Path_13857" fill="#898890" d="M14 21h3.333v1.667H14z" transform="translate(-6.987 -11.083)"/>
            <path id="Path_13858" fill="#c6c5ca" d="M16 15h1.667v2.5H16z" transform="translate(-8.153 -7.583)"/>
            <path id="Path_13859" d="M7 57h2.5v1.667H7z" class="cls-6" transform="translate(-2.903 -32.083)"/>
            <path id="Path_13860" d="M51.25 25.833v10h-.833v-10a.815.815 0 0 0-.246-.587.755.755 0 0 0-.171-.134.832.832 0 0 1 1.25.721z" class="cls-7" transform="translate(-27.987 -13.417)"/>
            <path id="Path_13861" fill="#ffde55" d="M56.333 57.5h-1.666l-.833-1.25v-.417A.836.836 0 0 0 53 55h1.667a.836.836 0 0 1 .833.833v.417z" transform="translate(-29.737 -30.917)"/>
            <path id="Path_13862" fill="#ff5023" d="M51 51h1.667v1.667H51z" transform="translate(-28.57 -28.583)"/>
            <path id="Path_13863" d="M8.417 48.167h7.5a.417.417 0 0 0 .417-.417v-3.333a.417.417 0 0 0-.417-.417h-7.5a.417.417 0 0 0-.417.417v3.333a.417.417 0 0 0 .417.417zm.417-3.333H15.5v2.5H8.833z" class="cls-16" transform="translate(-3.487 -24.5)"/>
            <path id="Path_13864" d="M8.417 36.167h7.5a.417.417 0 0 0 .417-.417v-3.333a.417.417 0 0 0-.417-.417h-7.5a.417.417 0 0 0-.417.417v3.333a.417.417 0 0 0 .417.417zm.417-3.333H15.5v2.5H8.833z" class="cls-16" transform="translate(-3.487 -17.5)"/>
            <path id="Path_13865" d="M14.1 11.167h-3.337v-1.25a.417.417 0 0 0-.417-.417H9.93V7.833h2.917a.41.41 0 0 0 .337-.175.417.417 0 0 0 .058-.375l-1.667-5A.422.422 0 0 0 11.18 2h-5a.423.423 0 0 0-.4.283l-1.667 5a.417.417 0 0 0 .058.375.41.41 0 0 0 .338.175H7.43V9.5h-.417a.417.417 0 0 0-.417.417v1.25H3.263a1.25 1.25 0 0 0-.417 2.425v10.491a1.254 1.254 0 0 0 .833 1.175v1.325A.417.417 0 0 0 4.1 27h2.5a.417.417 0 0 0 .417-.417v-1.25h3.333v1.25a.417.417 0 0 0 .417.417h2.5a.417.417 0 0 0 .417-.417v-1.325a1.254 1.254 0 0 0 .833-1.175V13.592a1.25 1.25 0 0 0-.417-2.425zM5.093 7L6.48 2.833h4.4L12.268 7zm4 .833V9.5h-.83V7.833zm-1.667 2.5h2.5v.833H7.43zM6.18 26.167H4.513v-.833H6.18zm6.667 0H11.18v-.833h1.667zm.833-2.083a.417.417 0 0 1-.417.417H4.1a.417.417 0 0 1-.417-.417V13.667h10zm.417-11.25H3.263a.417.417 0 1 1 0-.833H14.1a.417.417 0 0 1 0 .833z" class="cls-16"/>
            <path id="Path_13866" d="M16 36h2.083v.833H16z" class="cls-16" transform="translate(-8.153 -19.833)"/>
            <path id="Path_13867" d="M16 48h2.083v.833H16z" class="cls-16" transform="translate(-8.153 -26.833)"/>
            <path id="Path_13884" d="M45.6 39.187l-.763-1.146v-.291a1.254 1.254 0 0 0-1.25-1.25h-.417v-1.25a.417.417 0 0 0-.417-.417h-.417V25.25a1.25 1.25 0 0 0-2.5 0v7.083h-5.419a.4.4 0 0 0-.3.133.417.417 0 0 0-.117.284v.025l.417 6.667a.417.417 0 0 0 .417.392H45.25a.41.41 0 0 0 .367-.221.4.4 0 0 0-.021-.425zM40.667 25.25a.417.417 0 1 1 .833 0v9.583h-.833zm1.667 10.417v.833h-2.5v-.833zm-2.587-2.5a2.566 2.566 0 0 1-2.412 1.25 2.566 2.566 0 0 1-2.413-1.25zM35.225 39l-.283-4.512a3.923 3.923 0 0 0 2.392.763 3.875 3.875 0 0 0 2.5-.85v.433h-.417a.417.417 0 0 0-.417.416v1.25h-.417a1.254 1.254 0 0 0-1.25 1.25v.417a.4.4 0 0 0 .071.229l.4.6zm3.583 0l-.642-.958v-.292a.417.417 0 0 1 .417-.417h5a.417.417 0 0 1 .417.417v.417a.4.4 0 0 0 .071.229l.4.6z" class="cls-16" transform="translate(-18.653 -12.833)"/>
        </g>
    </g>
</svg>
