<svg id="Insurance" xmlns="http://www.w3.org/2000/svg" width="28" height="28" viewBox="0 0 28 28">
  <defs>
    <style>
      .cls-1 {
        fill: none;
      }

      .cls-2 {
        fill: #ff5050;
      }

      .cls-3 {
        fill: #da2a47;
      }

      .cls-4 {
        fill: #323c6b;
        stroke: #323c6b;
        stroke-width: 0.4px;
      }

      .cls-5 {
        fill: #ffd39f;
      }

      .cls-6 {
        fill: #e9c8a0;
      }

      .cls-7 {
        fill: #9297ab;
      }

      .cls-8 {
        fill: #707583;
      }
    </style>
  </defs>
  <path id="Rectangle_91" data-name="Rectangle 91" class="cls-1" d="M0,0H28V28H0Z"/>
  <g id="health-insurance" transform="translate(2.801 1.866)">
    <path id="Path_12606" data-name="Path 12606" class="cls-2" d="M41.283,2.494c-2.384-3.179-5.808-.306-5.991-.245-.183-.061-3.607-2.935-5.991.245s1.528,8.376,5.991,10.883c4.463-2.507,8.376-7.7,5.991-10.883Z" transform="translate(-24.18 -0.804)"/>
    <path id="Path_12607" data-name="Path 12607" class="cls-3" d="M56.213,13.407c-.258-.145-1.567-1.063-1.821-1.226,4.328-2.569,9.054-6.83,6.726-9.933a3.779,3.779,0,0,0-1.425-1.21A3.364,3.364,0,0,1,62.2,2.525C64.589,5.7,60.676,10.9,56.213,13.407Z" transform="translate(-45.101 -0.835)"/>
    <path id="Path_12608" data-name="Path 12608" class="cls-4" d="M34.476,12.757l-.093-.052c-3.376-1.9-6.13-5.1-6.7-7.784a4.018,4.018,0,0,1,.647-3.378C29.358.177,31.247-1,34.427,1.157l.049.033.049-.033C37.7-1,39.593.177,40.619,1.544a4.017,4.017,0,0,1,.646,3.378c-.567,2.687-3.321,5.888-6.7,7.784ZM31.231.362a3.2,3.2,0,0,0-2.595,1.41,3.653,3.653,0,0,0-.579,3.072c.54,2.563,3.173,5.627,6.419,7.479,3.246-1.853,5.878-4.916,6.419-7.479a3.653,3.653,0,0,0-.579-3.072c-.926-1.235-2.646-2.29-5.578-.3a.967.967,0,0,1-.2.122l-.06.02-.06-.02a.967.967,0,0,1-.2-.121A5.417,5.417,0,0,0,31.231.362Z" transform="translate(-23.364 0.032)"/>
    <path id="Path_12609" data-name="Path 12609" class="cls-5" d="M80.209,30.152a1.6,1.6,0,0,0-2.018,1.394,39.558,39.558,0,0,0-.33,5.21l-3.045,4.477-.954-1.1L75.555,37.6a1.9,1.9,0,0,0-.19-2.352l-4,4.293L70.522,42.7v3.926l4.843.183L76.5,43.655l3.706-6.29Z" transform="translate(-58.174 -24.393)"/>
    <path id="Path_12610" data-name="Path 12610" class="cls-6" d="M96.8,30.153v7.214l-3.706,6.289-1.137,3.156-.965-.036,1.125-3.12,3.706-6.289V30.189A1.942,1.942,0,0,1,96.8,30.153Z" transform="translate(-74.762 -24.395)"/>
    <path id="Path_12611" data-name="Path 12611" class="cls-4" d="M74.554,46.188h-.007L69.7,46a.19.19,0,0,1-.182-.19V41.889a.186.186,0,0,1,.006-.049l.844-3.156a.188.188,0,0,1,.044-.08l4-4.293a.189.189,0,0,1,.277,0A2.079,2.079,0,0,1,74.9,36.9l-1.612,2.408.7.805,2.874-4.225a38.345,38.345,0,0,1,.333-5.185,1.888,1.888,0,0,1,.795-1.33,2,2,0,0,1,1.458-.214.19.19,0,0,1,.142.183v7.213a.19.19,0,0,1-.026.1l-3.7,6.274-1.132,3.139A.19.19,0,0,1,74.554,46.188ZM69.9,45.633l4.523.171,1.09-3.025a.2.2,0,0,1,.015-.032l3.68-6.245v-7a1.566,1.566,0,0,0-1.019.193,1.527,1.527,0,0,0-.623,1.076,39.621,39.621,0,0,0-.327,5.177.189.189,0,0,1-.033.107l-3.045,4.476a.19.19,0,0,1-.146.083.194.194,0,0,1-.154-.065l-.954-1.1a.19.19,0,0,1-.014-.23l1.694-2.528a1.7,1.7,0,0,0-.04-1.96l-3.821,4.1L69.9,41.914Z" transform="translate(-57.363 -23.581)"/>
    <path id="Path_12612" data-name="Path 12612" class="cls-5" d="M6.369,30.152a1.6,1.6,0,0,1,2.018,1.394,39.565,39.565,0,0,1,.33,5.211l3.045,4.476.954-1.1L11.023,37.6a1.9,1.9,0,0,1,.19-2.352l4,4.293.844,3.156v3.926l-4.843.183-1.137-3.156-3.706-6.29Z" transform="translate(-6.18 -24.393)"/>
    <path id="Path_12613" data-name="Path 12613" class="cls-6" d="M6.366,30.153v7.214l3.706,6.289,1.137,3.156.965-.036-1.125-3.12L7.343,37.367V30.189a1.942,1.942,0,0,0-.977-.036Z" transform="translate(-6.178 -24.395)"/>
    <path id="Path_12614" data-name="Path 12614" class="cls-4" d="M10.406,46.188a.19.19,0,0,1-.178-.125L9.1,42.923,5.4,36.65a.19.19,0,0,1-.026-.1V29.339a.19.19,0,0,1,.142-.183,2.005,2.005,0,0,1,1.458.214,1.882,1.882,0,0,1,.795,1.33A38.425,38.425,0,0,1,8.1,35.886l2.874,4.225.7-.805L10.059,36.9a2.079,2.079,0,0,1,.208-2.587.189.189,0,0,1,.277,0l4,4.293a.188.188,0,0,1,.044.08l.844,3.156a.186.186,0,0,1,.006.049v3.926a.19.19,0,0,1-.182.19l-4.844.183ZM5.752,36.5l3.68,6.245a.194.194,0,0,1,.015.032l1.09,3.025,4.523-.171V41.913l-.825-3.086-3.821-4.1a1.7,1.7,0,0,0-.04,1.96l1.694,2.528a.19.19,0,0,1-.014.23l-.954,1.1a.193.193,0,0,1-.154.065.19.19,0,0,1-.146-.083L7.754,36.051a.19.19,0,0,1-.033-.107,39.618,39.618,0,0,0-.327-5.177,1.528,1.528,0,0,0-.623-1.076A1.566,1.566,0,0,0,5.752,29.5Z" transform="translate(-5.374 -23.581)"/>
    <path id="Path_12615" data-name="Path 12615" class="cls-7" d="M67.48,110.281h7.185v3.168H67.48Z" transform="translate(-55.709 -89.373)"/>
    <path id="Path_12616" data-name="Path 12616" class="cls-8" d="M74.664,110.28v3.169H67.479v-.781H74V110.28Z" transform="translate(-55.708 -89.372)"/>
    <path id="Path_12617" data-name="Path 12617" class="cls-4" d="M73.855,112.829H66.67a.19.19,0,0,1-.19-.19v-3.169a.19.19,0,0,1,.19-.19h7.185a.19.19,0,0,1,.19.19v3.169A.19.19,0,0,1,73.855,112.829Zm-7-.379h6.806v-2.79H66.859Z" transform="translate(-54.898 -88.562)"/>
    <path id="Path_12618" data-name="Path 12618" class="cls-7" d="M0,0H7.185V3.168H0Z" transform="translate(10.639 24.077) rotate(180)"/>
    <path id="Path_12619" data-name="Path 12619" class="cls-8" d="M23.6,110.28v3.169h7.185v-.781H24.26V110.28Z" transform="translate(-20.146 -89.372)"/>
    <path id="Path_12620" data-name="Path 12620" class="cls-4" d="M29.974,112.829H22.79a.19.19,0,0,1-.19-.19v-3.169a.19.19,0,0,1,.19-.19h7.184a.19.19,0,0,1,.19.19v3.169A.19.19,0,0,1,29.974,112.829Zm-6.995-.379h6.805v-2.79H22.979Z" transform="translate(-19.335 -88.562)"/>
  </g>
</svg>
