<svg xmlns="http://www.w3.org/2000/svg" id="Medicines" width="28" height="28" viewBox="0 0 28 28">
    <defs>
        <style>
            .cls-10{fill:#193651}
        </style>
    </defs>
    <path id="Rectangle_91" fill="none" d="M0 0h28v28H0z"/>
    <g id="medicine" transform="translate(2 2)">
        <path id="Path_4011" fill="#ffd039" d="M14.785 122.732a4.269 4.269 0 1 0 0 6.038 4.269 4.269 0 0 0 0-6.038zm0 0" transform="translate(-7.146 -115.787)"/>
        <path id="Path_4012" fill="#ffae47" d="M14.791 201.449a4.269 4.269 0 0 1-7.241-2.386 4.269 4.269 0 1 0 8.444 0 4.249 4.249 0 0 1-1.203 2.386zm0 0" transform="translate(-7.152 -189.732)"/>
        <path id="Path_4013" fill="#ff9522" d="M168.177 7.493c-2.849-.046-5.175.964-5.2 2.255s2.272 2.375 5.121 2.42 5.175-.964 5.2-2.255-2.272-2.374-5.121-2.42zm0 0" transform="translate(-155.341 -7.141)"/>
        <path id="Path_4014" fill="#dd7917" d="M168.1 44.339c-2.352-.038-4.325-.783-4.93-1.768a1.187 1.187 0 0 0-.191.613c-.021 1.291 2.272 2.375 5.121 2.42s5.175-.964 5.2-2.255a1.2 1.2 0 0 0-.191-.652c-.612.983-2.626 1.681-5 1.643zm0 0" transform="translate(-155.335 -40.575)"/>
        <path id="Path_4015" fill="#fff" d="M140.124 264.209l4.469-4.463 5.794 5.8-4.468 4.463a4.1 4.1 0 1 1-5.794-5.8zm0 0" transform="translate(-132.409 -247.57)"/>
        <path id="Path_4016" fill="#e93234" d="M264.378 140.166l-4.469 4.463 5.794 5.8 4.469-4.463a4.1 4.1 0 0 0-5.794-5.8zm0 0" transform="translate(-247.727 -132.453)"/>
        <path id="Path_4017" fill="#d4e1f4" d="M165.51 364.43l-4.468 4.463a4.1 4.1 0 0 1-5.314.411 4.145 4.145 0 0 0 .411.48 4.1 4.1 0 0 0 5.8 0l4.468-4.463zm0 0" transform="translate(-148.427 -347.347)"/>
        <path id="Path_4018" fill="#bf161c" d="M369.808 156.192a4.126 4.126 0 0 0-.483-.415 4.1 4.1 0 0 1-.415 5.318l-4.468 4.462.894.9 4.469-4.463a4.1 4.1 0 0 0 0-5.8zm0 0" transform="translate(-347.359 -148.475)"/>
        <path id="Path_4019" d="M147.964 132.774a4.422 4.422 0 0 0-3.146-1.306 4.421 4.421 0 0 0-3.145 1.3l-7.13 7.121a.351.351 0 1 0 .5.5l2.413-2.41 5.3 5.3-4.22 4.214a3.724 3.724 0 0 1-2.649 1.1 3.748 3.748 0 0 1-2.646-6.4l1.807-1.8c.137-.137-.36.137-.5 0s.137-.634 0-.5l-1.807 1.8a4.451 4.451 0 0 0 3.142 7.6 4.421 4.421 0 0 0 3.145-1.3l8.937-8.925a4.451 4.451 0 0 0 0-6.295zm-.5 5.8l-4.22 4.214-5.3-5.3 4.22-4.214a3.724 3.724 0 0 1 2.649-1.1 3.748 3.748 0 0 1 2.646 6.4zm0 0" class="cls-10" transform="translate(-125.265 -125.306)"/>
        <path id="Path_4020" d="M7.888 115.381a4.618 4.618 0 1 0 0 6.535 4.626 4.626 0 0 0 0-6.535zm-5.778 6.274l4.679-4.679c.137-.137-.24-.044-.377-.181s.017-.453-.12-.316l-4.679 4.68a3.917 3.917 0 0 1 5.517-5.517l-.838.838a.351.351 0 1 0 .5.5l.838-.838a3.917 3.917 0 0 1-5.517 5.517zm0 0" class="cls-10" transform="translate(0 -108.685)"/>
        <path id="Path_4021" d="M157.162 4.6a9.443 9.443 0 0 0 3.781.777h.191a9.311 9.311 0 0 0 3.613-.657c1.115-.484 1.736-1.175 1.749-1.946a2.056 2.056 0 0 0-1.134-1.7.351.351 0 0 0-.379.592c.306.2.818.6.81 1.094-.008.471-.491.95-1.326 1.312a8.468 8.468 0 0 1-3.161.6l.063-3.961a8.389 8.389 0 0 1 3.614.957c.183.065-.171-.3-.106-.486s.668-.041.486-.106A9.863 9.863 0 0 0 161.029 0a9.455 9.455 0 0 0-3.8.656c-1.115.484-1.736 1.175-1.749 1.946s.586 1.481 1.686 2zm.343-3.3a8.463 8.463 0 0 1 3.161-.6l-.066 3.966a8.461 8.461 0 0 1-3.141-.7c-.823-.389-1.291-.883-1.283-1.354s.491-.95 1.326-1.312zm0 0" class="cls-10" transform="translate(-148.188)"/>
    </g>
</svg>
