<svg xmlns="http://www.w3.org/2000/svg" width="28" height="28" viewBox="0 0 28 28">
    <defs>
        <style>
            .cls-2{fill:#eeebee}.cls-3{fill:#d6d4d6}.cls-5{fill:#d09080}.cls-6{fill:#bbdafc}
        </style>
    </defs>
    <g id="Milkman" transform="translate(-26 -215)">
        <path id="Rectangle_91" fill="none" d="M0 0h28v28H0z" transform="translate(26 215)"/>
        <g id="milk_2_" transform="translate(-27.441 217)">
            <g id="Group_16398" transform="translate(59.593 .355)">
                <path id="Path_17444" d="M98.8 57.423v-5.009a6.075 6.075 0 0 1 1.1-3.487 7.179 7.179 0 0 0 .511-.844 4.981 4.981 0 0 0 .539-2.271v-.649a.608.608 0 0 1-.611-.564v-.306c0-.31.16-.564.471-.564h.114v-3.216a1.161 1.161 0 0 0-.308-.787l-.515-.558a2.527 2.527 0 0 1-.67-1.714v-1.073h-9.36v1.072a2.527 2.527 0 0 1-.67 1.714l-.515.558a1.161 1.161 0 0 0-.308.788V56.66a1.668 1.668 0 0 0 1.668 1.668H99.4a1.677 1.677 0 0 0 .184-.01.9.9 0 0 1-.784-.895z" class="cls-2" transform="translate(-88.578 -35.031)"/>
                <path id="Path_17445" d="M90.8 56.66V40.513a1.161 1.161 0 0 1 .308-.788l.515-.558a2.527 2.527 0 0 0 .67-1.714v-1.072h-2.221v1.072a2.526 2.526 0 0 1-.67 1.714l-.515.558a1.161 1.161 0 0 0-.308.788V56.66a1.668 1.668 0 0 0 1.668 1.668h2.218A1.668 1.668 0 0 1 90.8 56.66z" class="cls-3" transform="translate(-88.579 -35.031)"/>
                <path id="Path_17446" d="M108.418 7.584H98.366a.722.722 0 1 0 0 1.444h10.052a.722.722 0 0 0 0-1.444z" class="cls-3" transform="translate(-97.219 -7.584)"/>
                <path id="Path_17447" fill="#c4bfc4" d="M100.21 8.307a.722.722 0 0 1 .722-.722h-2.566a.722.722 0 0 0 0 1.444h2.566a.722.722 0 0 1-.722-.722z" transform="translate(-97.219 -7.585)"/>
                <path id="Path_17448" d="M142.647 219.243a.451.451 0 0 0-.522.218.442.442 0 0 1-.608.069 2.253 2.253 0 0 0-1.362-.488h-2.493a2.253 2.253 0 0 0-1.362.488.442.442 0 0 1-.608-.069.451.451 0 0 0-.522-.218.4.4 0 0 0-.262.374v1.293a.4.4 0 0 0 .262.374.45.45 0 0 0 .522-.218.442.442 0 0 1 .608-.066 2.253 2.253 0 0 0 1.362.488h2.493a2.253 2.253 0 0 0 1.362-.488.442.442 0 0 1 .608.069.45.45 0 0 0 .522.218.4.4 0 0 0 .262-.374v-1.293a.4.4 0 0 0-.262-.374z" class="cls-5" transform="translate(-132.735 -209.129)"/>
                <path id="Path_17449" d="M142.646 239.847a.45.45 0 0 1-.522-.218.442.442 0 0 0-.608-.069 2.253 2.253 0 0 1-1.362.488h-2.494a2.253 2.253 0 0 1-1.362-.488.442.442 0 0 0-.608.069.45.45 0 0 1-.522.218.4.4 0 0 1-.262-.374v.908a.4.4 0 0 0 .262.374.45.45 0 0 0 .522-.218.442.442 0 0 1 .608-.069 2.253 2.253 0 0 0 1.362.488h2.493a2.253 2.253 0 0 0 1.362-.488.442.442 0 0 1 .608.069.45.45 0 0 0 .522.218.4.4 0 0 0 .262-.374v-.908a.4.4 0 0 1-.262.374z" class="cls-5" transform="translate(-132.734 -228.6)"/>
                <path id="Path_17450" d="M315.651 227.893a2.709 2.709 0 0 0 2.985.014 6.065 6.065 0 0 0-.711-1.352 7.179 7.179 0 0 1-.511-.844 4.981 4.981 0 0 1-.539-2.271v-.7H314.5v.7a4.981 4.981 0 0 1-.539 2.271 7.186 7.186 0 0 1-.511.844 6.067 6.067 0 0 0-.676 1.259 2.716 2.716 0 0 1 2.877.079z" class="cls-6" transform="translate(-302.26 -212.657)"/>
                <g id="Group_16395" transform="translate(10.509 10.086)">
                    <path id="Path_17451" fill="#9cc5fa" d="M315.008 226.6a8.572 8.572 0 0 0 .332-.844 7.249 7.249 0 0 0 .351-2.271v-.742h-1.2v.7a4.981 4.981 0 0 1-.539 2.271 7.186 7.186 0 0 1-.511.844 6.067 6.067 0 0 0-.676 1.259 2.7 2.7 0 0 1 1.9-.32 7.33 7.33 0 0 1 .343-.897z" transform="translate(-312.769 -222.742)"/>
                </g>
                <path id="Path_17452" fill="#e1f1ff" d="M340.428 191.127h-2.387a.566.566 0 0 0-.564.564v.494a.566.566 0 0 0 .564.564h2.387a.566.566 0 0 0 .564-.564v-.494a.566.566 0 0 0-.564-.564z" transform="translate(-325.81 -182.523)"/>
                <path id="Path_17453" d="M338.789 192.185v-.494a.566.566 0 0 1 .564-.564h-1.312a.566.566 0 0 0-.564.564v.494a.566.566 0 0 0 .564.564h1.313a.566.566 0 0 1-.565-.564z" class="cls-6" transform="translate(-325.81 -182.523)"/>
                <path id="Path_17454" d="M307.078 320.363a2.525 2.525 0 0 0-2.892 0 6.079 6.079 0 0 0-.448 2.289v5.008a.905.905 0 0 0 .905.905h4.868a.905.905 0 0 0 .905-.905v-5.008a6.079 6.079 0 0 0-.448-2.289 2.525 2.525 0 0 1-2.89 0z" class="cls-2" transform="translate(-293.653 -305.269)"/>
                <g id="Group_16397" transform="translate(10.086 14.64)">
                    <g id="Group_16396">
                        <path id="Path_17455" d="M305.686 327.71v-5.01a9 9 0 0 1 .291-2.289q.061-.23.133-.452a2.5 2.5 0 0 0-1.924.4 6.079 6.079 0 0 0-.448 2.289v5.008a.905.905 0 0 0 .905.905h1.444a.957.957 0 0 1-.401-.851z" class="cls-3" transform="translate(-303.739 -319.912)"/>
                    </g>
                </g>
            </g>
            <path id="Path_17456" fill="#333a60" d="M76.363 19.259a.352.352 0 0 0 .352-.352v-1.172a6.4 6.4 0 0 0-1.163-3.688 6.836 6.836 0 0 1-.486-.8 4.649 4.649 0 0 1-.5-2.111v-.276a.917.917 0 0 0 .568-.847V9.52a.917.917 0 0 0-.916-.916h-1.18a5.321 5.321 0 0 0 .338-1.879V4.31a1.623 1.623 0 0 0-1.621-1.621H70.8v-.542A1.073 1.073 0 0 0 70.8 0h-4.208a.352.352 0 0 0 0 .7H70.8a.37.37 0 0 1 0 .74H60.746a.37.37 0 0 1 0-.74h4.206a.352.352 0 0 0 0-.7h-4.206a1.073 1.073 0 0 0 0 2.147v.542h-.951a1.623 1.623 0 0 0-1.621 1.621v2.414a5.331 5.331 0 0 0 1.08 3.227v12.03A2.021 2.021 0 0 0 61.267 24h14.191a1.258 1.258 0 0 0 1.257-1.257v-2.2a.352.352 0 0 0-.7 0v2.2a.554.554 0 0 1-.554.554H70.59a.557.557 0 0 1-.554-.554v-5.008a5.685 5.685 0 0 1 .383-2.06 2.176 2.176 0 0 1 2.415.067 2.879 2.879 0 0 0 2.9.22 5.719 5.719 0 0 1 .28 1.773v1.173a.352.352 0 0 0 .352.352zM74.43 9.52v.494a.215.215 0 0 1-.216.213h-2.38a.215.215 0 0 1-.216-.213V9.52a.216.216 0 0 1 .213-.213h2.387a.216.216 0 0 1 .212.213zm-4.8.615a.757.757 0 0 0-.9.308c-.046.057-.1.06-.137.03a2.594 2.594 0 0 0-1.576-.56h-2.492a2.594 2.594 0 0 0-1.576.56c-.039.03-.091.027-.137-.03a.754.754 0 0 0-1.393.436 4.643 4.643 0 0 1-1.469-1.163V5.833a.807.807 0 0 1 .215-.549 3.421 3.421 0 0 0 1.279-2.511v-.626H70.1v.627a3.43 3.43 0 0 0 1.279 2.511.807.807 0 0 1 .215.549v2.8a.921.921 0 0 0-.678.885v.494a.933.933 0 0 0 .055.311 4.635 4.635 0 0 1-.845.553.753.753 0 0 0-.494-.743zm-.209.7v1.293a.046.046 0 0 1-.03.043l-.02.006c-.03-.009-.093-.094-.113-.117a.792.792 0 0 0-1.091-.123 1.9 1.9 0 0 1-1.149.416h-2.493a1.9 1.9 0 0 1-1.149-.416.792.792 0 0 0-1.091.123c-.019.022-.083.108-.111.117s-.052-.025-.052-.048v-1.29a.046.046 0 0 1 .03-.043l.02-.005c.03.009.093.094.113.117a.792.792 0 0 0 1.091.123 1.9 1.9 0 0 1 1.149-.416h2.493a1.9 1.9 0 0 1 1.149.416.792.792 0 0 0 1.091-.123c.019-.022.083-.108.111-.117a.05.05 0 0 1 .051.048zm3.251-6.525v2.414a4.618 4.618 0 0 1-.372 1.837V5.833a1.508 1.508 0 0 0-.4-1.026 3.4 3.4 0 0 1-1-1.416h.862a.919.919 0 0 1 .91.919zm-13.8 2.415V4.31a.919.919 0 0 1 .918-.918h.862a3.4 3.4 0 0 1-1 1.416 1.508 1.508 0 0 0-.4 1.026v2.737a4.683 4.683 0 0 1-.381-1.847zm1.08 15.257V10.717a5.342 5.342 0 0 0 1.469.937v.478a.753.753 0 0 0 1.393.4l.013-.016a.09.09 0 0 1 .124-.014 2.594 2.594 0 0 0 1.576.56h2.493a2.593 2.593 0 0 0 1.575-.56c.04-.03.091-.027.137.03a.753.753 0 0 0 1.393-.4v-.479a5.33 5.33 0 0 0 1.322-.81l.037.017v.272a4.648 4.648 0 0 1-.5 2.111 6.831 6.831 0 0 1-.486.8 6.4 6.4 0 0 0-1.163 3.688v5.008a1.262 1.262 0 0 0 .129.554h-8.2a1.318 1.318 0 0 1-1.316-1.316zm13.262-6.832a2.89 2.89 0 0 0-2.319-.43 6.017 6.017 0 0 0 1.291-3.588v-.2h1.677v.2c0 2.164 1.129 3.152 1.609 4.174a2.188 2.188 0 0 1-2.258-.157z"/>
        </g>
    </g>
</svg>
