<svg xmlns="http://www.w3.org/2000/svg" width="28" height="28" viewBox="0 0 28 28">
    <defs>
        <style>
            .cls-2{fill:#60a4ff}.cls-2,.cls-3,.cls-4{fill-rule:evenodd}.cls-3{fill:#fff}.cls-4{fill:#c5d3de}.cls-6{fill:#333a60}
        </style>
    </defs>
    <g id="Milk_Milk_Products" transform="translate(-32 -209)">
        <g id="daily-needs-icn" transform="translate(32 209)">
            <path id="Rectangle_91" fill="none" d="M0 0h28v28H0z"/>
            <g id="milk_1_" transform="translate(-39.846 4)">
                <g id="Group_15543" transform="translate(46.393 .391)">
                    <path id="Path_15713" d="M159.387 12.344H151.2v-1.563a.784.784 0 0 1 .78-.781h6.625a.784.784 0 0 1 .781.781v1.562z" class="cls-2" transform="translate(-147.48 -10)"/>
                    <path id="Path_15714" d="M151.2 70h8.188l2.64 3.319a3.939 3.939 0 0 1 1.078 2.821h-8.188a3.939 3.939 0 0 0-1.078-2.821z" class="cls-3" transform="translate(-147.48 -67.656)"/>
                    <path id="Path_15715" d="M246.4 227.173h8.188v8.392H246.4z" class="cls-2" transform="translate(-238.959 -218.69)"/>
                    <path id="Path_15716" d="M246.4 442h8.188v1.2a1.116 1.116 0 0 1-1.078 1.145h-7.11z" class="cls-3" transform="translate(-238.959 -425.125)"/>
                    <path id="Path_15717" d="M63.439 442v2.344H57.08A1.116 1.116 0 0 1 56 443.2V442z" class="cls-4" transform="translate(-56.002 -425.125)"/>
                    <path id="Path_15718" d="M56 227.173h7.437v8.392H56z" class="cls-2" transform="translate(-56.002 -218.69)"/>
                    <path id="Path_15719" d="M63.439 76.14H56a3.939 3.939 0 0 1 1.078-2.821L59.721 70l2.64 3.319a3.939 3.939 0 0 1 1.078 2.821z" class="cls-4" transform="translate(-56.002 -67.656)"/>
                    <circle id="Ellipse_1041" cx="1.594" cy="1.594" r="1.594" fill="#fff" transform="translate(9.937 11.085)"/>
                </g>
                <g id="Group_15544" transform="translate(46.002)">
                    <path id="Path_15720" d="M61.245 5.81L58.69 2.6V1.172A1.173 1.173 0 0 0 57.518 0h-6.626a1.173 1.173 0 0 0-1.172 1.172V2.6l-2.555 3.21A4.3 4.3 0 0 0 46 8.874v9.591A1.5 1.5 0 0 0 47.471 20h13.468a1.5 1.5 0 0 0 1.469-1.536v-9.59a4.3 4.3 0 0 0-1.163-3.064zm.382 3.455v7.61H54.22v-7.61zm-.014-.781h-7.4a4.3 4.3 0 0 0-1.156-2.674l-2.136-2.685h7.189L60.634 6.3a3.571 3.571 0 0 1 .979 2.183zM50.5 1.172a.391.391 0 0 1 .391-.391h6.625a.391.391 0 0 1 .391.391v1.172H50.5zM47.776 6.3l2.335-2.935L52.446 6.3a3.571 3.571 0 0 1 .979 2.187h-1.471a.391.391 0 1 0 0 .781h1.485v7.61h-6.656V9.265h1.655a.391.391 0 0 0 0-.781H46.8a3.571 3.571 0 0 1 .976-2.184zm-.993 12.168v-.808h6.656v1.563h-5.968a.724.724 0 0 1-.688-.759zm14.156.754H54.22v-1.566h7.406v.808a.724.724 0 0 1-.687.755z" class="cls-6" transform="translate(-46.002)"/>
                    <path id="Path_15721" d="M302.382 287.755a1.984 1.984 0 1 0-1.984-1.984 1.987 1.987 0 0 0 1.984 1.984zm0-3.187a1.2 1.2 0 1 1-1.2 1.2 1.2 1.2 0 0 1 1.2-1.201z" class="cls-6" transform="translate(-290.461 -272.701)"/>
                    <path id="Path_15722" d="M143.765 217.954a.391.391 0 0 0 0-.781.391.391 0 1 0 0 .781z" class="cls-6" transform="translate(-139.57 -208.69)"/>
                </g>
            </g>
        </g>
    </g>
</svg>
