<svg xmlns="http://www.w3.org/2000/svg" width="28" height="28" viewBox="0 0 28 28">
    <defs>
        <style>
            .cls-2{fill:#e0e1e2}.cls-4{fill:#333a60}
        </style>
    </defs>
    <g id="Mobile_Phone" transform="translate(-225 -93)">
        <path id="Rectangle_91" fill="none" d="M0 0h28v28H0z" transform="translate(225 93)"/>
        <g id="Group_15273" transform="translate(31.347 -134.074)">
            <path id="Path_15017" d="M202.451 251.672h10.267a1.467 1.467 0 0 0 1.467-1.467v-2.2h-13.2v2.2a1.467 1.467 0 0 0 1.467 1.467zm5.133-2.566a.733.733 0 1 1-.733.733.733.733 0 0 1 .733-.733z" class="cls-2"/>
            <path id="Path_15018" d="M214.184 231.872a1.467 1.467 0 0 0-1.467-1.467h-10.266a1.467 1.467 0 0 0-1.467 1.467v.733h13.2z" class="cls-2"/>
            <path id="Rectangle_15923" fill="#60abe0" d="M0 0H13.2V15.4H0z" transform="translate(201.026 232.532)"/>
            <circle id="Ellipse_1003" cx=".733" cy=".733" r=".733" class="cls-2" transform="translate(206.85 249.106)"/>
            <path id="Path_15017-2" d="M207.584 248.774a1.064 1.064 0 0 0 0 2.129 1.064 1.064 0 0 0 0-2.129zm0 1.467a.4.4 0 1 1 .4-.4.4.4 0 0 1-.4.4z" class="cls-4"/>
            <path id="Path_15018-2" d="M212.717 230.074h-10.266a1.8 1.8 0 0 0-1.8 1.8v18.334a1.8 1.8 0 0 0 1.8 1.8h10.267a1.8 1.8 0 0 0 1.8-1.8v-18.336a1.8 1.8 0 0 0-1.801-1.798zm1.136 20.131a1.136 1.136 0 0 1-1.135 1.135h-10.267a1.137 1.137 0 0 1-1.136-1.135v-1.869h12.538zm0-2.531h-12.538v-14.737h12.538zm0-15.4h-12.538v-.4a1.138 1.138 0 0 1 1.136-1.136h10.267a1.137 1.137 0 0 1 1.135 1.136z" class="cls-4"/>
            <path id="Path_15019" d="M207.949 231.174h-.75a.332.332 0 0 0-.248.555.329.329 0 0 0 .229.108h.77a.326.326 0 0 0 .227-.108.332.332 0 0 0-.228-.554z" class="cls-4"/>
        </g>
    </g>
</svg>
