<svg xmlns="http://www.w3.org/2000/svg" width="28" height="28" viewBox="0 0 28 28">
    <g>
        <g>
            <path fill="#ee6c6c" d="M557.5 281.788v2.686h-9.52a.636.636 0 0 0-.636.636v5.49a.963.963 0 0 1-.963.963h-.008a.963.963 0 0 1-.963-.963v-4.651a.963.963 0 0 0-.963-.963h-.012a.963.963 0 0 0-.963.963v1.473a.963.963 0 0 1-1.926 0v-2.373a.631.631 0 0 0-.508-.623 2.683 2.683 0 0 1 .508-5.317H557.5z" transform="translate(-244 -327) translate(226 313) translate(-518.515 -261.764)"/>
            <path fill="#e45c5c" d="M1 0h17v2H0V1a1 1 0 0 1 1-1z" transform="translate(-244 -327) translate(226 313) translate(21 17)"/>
            <path fill="#e6e6e6" d="M0 0h1v8H0z" transform="translate(-244 -327) translate(226 313) translate(30.5 31)"/>
            <path fill="#3c3b5c" stroke="#3c3b5c" stroke-width="0.2px" d="M552.406 292.458a.344.344 0 0 0-.345-.345h-1.3v-3.688h7.705a3.491 3.491 0 1 0 0-6.982h-.629v-2.334a.344.344 0 0 0-.345-.345h-15.95a3.028 3.028 0 0 0-.573 6 .286.286 0 0 1 .228.284v2.373a1.308 1.308 0 1 0 2.616 0v-1.473a.619.619 0 0 1 .618-.618h.012a.618.618 0 0 1 .619.618v4.652a1.31 1.31 0 0 0 1.308 1.308h.007a1.309 1.309 0 0 0 1.308-1.308v-5.487a.292.292 0 0 1 .291-.291h9.52a.345.345 0 0 0 .345-.345v-2.345h.629a2.8 2.8 0 0 1 0 5.6h-8.05a.345.345 0 0 0-.345.345v4.036h-1.3a.345.345 0 0 0-.345.345v7.962a.346.346 0 0 0 .345.345h3.286a.345.345 0 0 0 .345-.345m-.683-.522h-2.6v-7.1h2.6zm-12.329-19.028a2.334 2.334 0 0 1 2.148-1.417h15.61v4.676h-9.175a.982.982 0 0 0-.981.981v5.49a.619.619 0 0 1-.619.618h-.007a.62.62 0 0 1-.618-.618v-4.652a1.31 1.31 0 0 0-1.308-1.308h-.012a1.309 1.309 0 0 0-1.308 1.308v1.473a.618.618 0 1 1-1.236 0v-2.373a.976.976 0 0 0-.787-.961 2.34 2.34 0 0 1-1.852-2.741 2.4 2.4 0 0 1 .146-.476z" transform="translate(-244 -327) translate(226 313) translate(-518.515 -261.764)"/>
        </g>
    </g>
</svg>
