<svg xmlns="http://www.w3.org/2000/svg" width="28" height="28" viewBox="0 0 28 28">
    <defs>
        <style>
            .cls-2{fill:#56679c}.cls-3{fill:#6d7eb3}.cls-4{fill:#8796c4}
        </style>
    </defs>
    <g id="Pathology_Labs" transform="translate(-225 -93)">
        <path id="Rectangle_91" fill="none" d="M0 0h28v28H0z" transform="translate(225 93)"/>
        <g id="microscope" transform="translate(214.5 80)">
            <path id="Path_14027" d="M36.4 158.857l-1.833.786A4.235 4.235 0 0 0 32 163.535v3.717a3.873 3.873 0 0 0 2.933 3.757h1.1v-1.833h-.367a1.833 1.833 0 0 1-1.833-1.833v-3.3a1.1 1.1 0 0 1 1.1-1.1H36.4z" class="cls-2" transform="translate(-15.267 -136.309)"/>
            <path id="Path_14028" d="M185.467 208v2.2l-.367.367h-.733L184 210.2v-1.833l.344-.086z" class="cls-3" transform="translate(-160.3 -183.2)"/>
            <path id="Path_14029" d="M200 177.1l1.833 1.833h.367l.733-.733v-.367L201.1 176z" class="cls-3" transform="translate(-175.567 -152.666)"/>
            <path id="Path_14030" d="M71.333 68.767l-4.4-4.4L65.467 64 64 65.467l.367 1.467 4.4 4.4z" class="cls-2" transform="translate(-45.8 -45.8)"/>
            <circle id="Ellipse_938" cx="1.5" cy="1.5" r="1.5" class="cls-4" transform="translate(19 22)"/>
            <path id="Path_14031" d="M168 170.567l.367.367h1.1l1.467-1.467v-1.1l-.367-.367z" class="cls-4" transform="translate(-145.033 -145.033)"/>
            <path id="Path_14032" d="M144 336h2.2v5.133H144z" class="cls-2" transform="translate(-122.133 -305.333)"/>
            <path id="Path_14033" d="M72 371.667L74.2 368h1.833v3.667z" class="cls-3" transform="translate(-53.433 -335.866)"/>
            <path id="Path_14034" d="M24 448h12.833v1.833H24z" class="cls-4" transform="translate(-7.633 -412.2)"/>
            <path id="Path_14035" d="M128 304h11.733v1.467H128z" class="cls-4" transform="translate(-106.867 -274.8)"/>
            <path id="Path_14036" fill="#445496" d="M192 337.833h1.833l3.3-1.1V336H192z" transform="translate(-167.933 -305.333)"/>
            <path id="Path_14037" d="M0 0h2.074v2.593H0z" class="cls-4" transform="rotate(-45 29.71 -10.839)"/>
            <path id="Path_14039" fill="#333a60" d="M16.107 18.093l1.762 1.761.342 1.368a.367.367 0 0 0 .1.17l.93.93a1.822 1.822 0 0 0-.288.768 4.6 4.6 0 0 0-2.583 4.135v3.717a4.249 4.249 0 0 0 2.4 3.817l-.4.673h-2.003A.367.367 0 0 0 16 35.8v1.833a.367.367 0 0 0 .367.367H29.2a.367.367 0 0 0 .367-.367V35.8a.367.367 0 0 0-.367-.367h-4.767v-2.566H25.9a.367.367 0 0 0 .116-.019l3.3-1.1a.367.367 0 0 0 .251-.348v-.367h3.3a.367.367 0 0 0 .367-.367V29.2a.367.367 0 0 0-.367-.367H21.133a.367.367 0 0 0-.367.367v1.467a.367.367 0 0 0 .367.367h.367v.733h-.733a.367.367 0 0 0-.314.178l-.318.531a1.469 1.469 0 0 1-1.2-1.442v-3.3a.734.734 0 0 1 .732-.734h1.467a.367.367 0 0 0 .367-.367v-1.62a1.832 1.832 0 0 0 .277-.151l1.3 1.3a.367.367 0 0 0 .259.107V27a.367.367 0 0 0 .107.259l.367.367a.367.367 0 0 0 .259.107h.73a.367.367 0 0 0 .259-.107l.367-.367a.367.367 0 0 0 .107-.259v-.948l.474.474a.367.367 0 0 0 .259.107h.367a.367.367 0 0 0 .259-.107l.733-.733a.367.367 0 0 0 .107-.259v-.367a.367.367 0 0 0-.107-.259l-1.359-1.359v-.215a.367.367 0 0 0-.107-.259l-4.767-4.767a.367.367 0 0 0-.17-.1l-1.368-.342-1.761-1.762a.367.367 0 0 0-.519 0l-1.467 1.467a.367.367 0 0 0 0 .519zm12.726 19.174h-12.1v-1.1h12.1zm0-6.131l-2.993 1h-1.407v-1.1h4.4zM21.5 29.567h11v.733h-11zm.733 1.467H23.7v4.4h-.733v-3.3a.367.367 0 0 0-.367-.367h-.367zM20.974 32.5h1.259v2.933h-3.019zm-.208-6.233h-1.1a1.468 1.468 0 0 0-1.466 1.467v3.3a2.2 2.2 0 0 0 1.54 2.1l-.6 1a3.513 3.513 0 0 1-2.04-3.191v-3.717a3.863 3.863 0 0 1 1.918-3.34 1.837 1.837 0 0 0 1.748 1.281zm0-1.833a1.1 1.1 0 1 1 1.1-1.1 1.1 1.1 0 0 1-1.099 1.1zm4.767-.152l-1.252 1.252h-.8l2.048-2.048zM24.648 27h-.43l-.152-.152v-.581h.367a.367.367 0 0 0 .259-.107l.107-.107v.8zM27 25.382l-.519.519h-.063l-.733-.733.474-.474a.366.366 0 0 0 .084-.131l.757.757zm-1.985-2.415l-2.048 2.048-.671-.671a1.832 1.832 0 0 0-2.54-2.544l-.859-.859-.292-1.167 1.173-1.173 1.167.292zm-7.181-6.081l1.314 1.314-.948.948-1.315-1.315z"/>
        </g>
    </g>
</svg>
