<svg xmlns="http://www.w3.org/2000/svg" id="Pet_Pet_Care" width="28" height="28" viewBox="0 0 28 28">
    <defs>
        <style>
            .cls-2{fill:#9297ab}.cls-4{fill:#3c3b5c;stroke:#3c3b5c;stroke-width:.4px}.cls-5{fill:#707583}
        </style>
    </defs>
    <path id="Rectangle_91" fill="none" d="M0 0h28v28H0z"/>
    <g id="paw" transform="translate(-45 .39)">
        <path id="Path_12765" d="M72.146 35.595a9.506 9.506 0 0 1-2.159-2.7 5.654 5.654 0 0 0-9.958 0 9.5 9.5 0 0 1-2.158 2.7 3.652 3.652 0 0 0 3.583 6.218 9.163 9.163 0 0 1 3.349-.571h.412a9.161 9.161 0 0 1 3.35.571 3.652 3.652 0 0 0 3.583-6.218z" class="cls-2" transform="translate(-6.125 -18.479)"/>
        <path id="Path_12766" fill="#84879c" d="M73.422 38.751a3.652 3.652 0 0 1-4.831 3.065 9.112 9.112 0 0 0-3.347-.57h-.412a9.136 9.136 0 0 0-3.352.57 3.612 3.612 0 0 1-1.615.184 3.671 3.671 0 0 1-3.216-3.239c0-.037-.008-.074-.008-.11a3.291 3.291 0 0 0 4.191 2.012 8.259 8.259 0 0 1 3.023-.514h.37a8.259 8.259 0 0 1 3.022.512 3.3 3.3 0 0 0 3.235-5.611 8.587 8.587 0 0 1-1.948-2.439 5.115 5.115 0 0 0-4.008-2.66c.169-.014.339-.023.511-.023a5.65 5.65 0 0 1 4.979 2.972 9.489 9.489 0 0 0 2.159 2.7 3.643 3.643 0 0 1 1.247 3.15z" transform="translate(-6.153 -18.483)"/>
        <path id="Path_12767" d="M69.058 41.608a3.911 3.911 0 0 1-1.294-.219 8.77 8.77 0 0 0-3.24-.555c-.144.005-.29.005-.433 0a8.781 8.781 0 0 0-3.24.555 3.95 3.95 0 0 1-3.874-6.724 9.186 9.186 0 0 0 2.09-2.619 5.952 5.952 0 0 1 10.482 0 9.188 9.188 0 0 0 2.09 2.619 3.949 3.949 0 0 1-2.127 6.917 4.1 4.1 0 0 1-.454.026zm-4.277-1.374a9.6 9.6 0 0 1 3.18.593 3.355 3.355 0 0 0 3.291-5.711 9.781 9.781 0 0 1-2.226-2.786 5.357 5.357 0 0 0-9.434 0 9.778 9.778 0 0 1-2.226 2.786 3.355 3.355 0 0 0 3.29 5.711 9.382 9.382 0 0 1 3.458-.588h.39c.096-.003.184-.005.277-.005z" class="cls-4" transform="translate(-5.424 -17.774)"/>
        <ellipse id="Ellipse_876" cx="3.216" cy="2.575" class="cls-2" rx="3.216" ry="2.575" transform="rotate(-81.951 35.365 -29.114)"/>
        <path id="Path_12768" d="M93.388 9.4c-.25 1.76-1.594 3.025-3 2.824a2.411 2.411 0 0 1-1.8-1.438 2.138 2.138 0 0 0 1.029.446c1.408.2 2.752-1.064 3-2.824a3.728 3.728 0 0 0-.3-2.108 3.35 3.35 0 0 1 1.071 3.1z" class="cls-5" transform="translate(-28.589 -1.889)"/>
        <path id="Path_12769" d="M89.187 10.749a2.384 2.384 0 0 1-.332-.024c-1.569-.225-2.624-1.964-2.355-3.882s1.765-3.3 3.337-3.077 2.623 1.964 2.351 3.882a3.344 3.344 0 0 1-3.001 3.101zm.313-6.41a2.758 2.758 0 0 0-2.413 2.589c-.226 1.594.6 3.033 1.845 3.21s2.444-.978 2.668-2.571-.6-3.035-1.843-3.212a1.794 1.794 0 0 0-.252-.017z" class="cls-4" transform="translate(-27.098 -.094)"/>
        <ellipse id="Ellipse_877" cx="2.575" cy="3.216" class="cls-2" rx="2.575" ry="3.216" transform="rotate(-2.56 128.226 -1224.739)"/>
        <path id="Path_12770" d="M71.6 9.182c.076 1.776-1.014 3.265-2.432 3.325a2.411 2.411 0 0 1-2.037-1.083 2.138 2.138 0 0 0 1.093.25c1.421-.06 2.511-1.549 2.432-3.325a3.728 3.728 0 0 0-.677-2.02A3.346 3.346 0 0 1 71.6 9.182z" class="cls-5" transform="translate(-13.519 -1.91)"/>
        <path id="Path_12771" d="M66.762 11.519c-1.538 0-2.837-1.495-2.919-3.389a3.937 3.937 0 0 1 .712-2.494A2.624 2.624 0 0 1 66.561 4.5l.013.3-.013-.3c1.6-.06 2.938 1.451 3.022 3.386s-1.135 3.566-2.717 3.634l-.104-.001zm-.176-6.428a2.042 2.042 0 0 0-1.551.9 3.339 3.339 0 0 0-.6 2.116c.07 1.607 1.142 2.87 2.4 2.818s2.218-1.407 2.149-3.015-1.14-2.87-2.4-2.818z" class="cls-4" transform="translate(-11.207 -.621)"/>
        <ellipse id="Ellipse_878" cx="2.514" cy="2.012" class="cls-2" rx="2.514" ry="2.012" transform="rotate(-72.3 41.281 -37.536)"/>
        <path id="Path_12772" d="M110.106 26.006a2.3 2.3 0 0 1-2.681 1.782 1.884 1.884 0 0 1-1.2-1.344 1.67 1.67 0 0 0 .734.479 2.3 2.3 0 0 0 2.681-1.782 2.913 2.913 0 0 0 .049-1.664 2.615 2.615 0 0 1 .418 2.53z" class="cls-5" transform="translate(-40.98 -13.954)"/>
        <path id="Path_12773" d="M107 26.158a1.922 1.922 0 0 1-.587-.091 2.113 2.113 0 0 1-1.319-1.312 3.274 3.274 0 0 1 1.2-3.74 2.113 2.113 0 0 1 1.835-.3 2.6 2.6 0 0 1 1.345 3.381A2.777 2.777 0 0 1 107 26.158zm.533-4.943a1.654 1.654 0 0 0-.913.3 2.678 2.678 0 0 0-.969 3.031 1.531 1.531 0 0 0 .944.957 2.019 2.019 0 0 0 2.308-1.589 2.016 2.016 0 0 0-.959-2.633 1.344 1.344 0 0 0-.411-.066z" class="cls-4" transform="translate(-40.06 -11.949)"/>
        <ellipse id="Ellipse_879" cx="2.012" cy="2.514" class="cls-2" rx="2.012" ry="2.514" transform="rotate(-17.7 54.984 -148.946)"/>
        <path id="Path_12774" d="M50.066 26.006a2.3 2.3 0 0 0 2.681 1.782 1.884 1.884 0 0 0 1.2-1.344 1.67 1.67 0 0 1-.734.479 2.3 2.3 0 0 1-2.681-1.782 2.913 2.913 0 0 1-.049-1.664 2.615 2.615 0 0 0-.417 2.529z" class="cls-5" transform="translate(-1.425 -13.954)"/>
        <path id="Path_12775" d="M51.57 26.163a2.242 2.242 0 0 1-1.24-.4 3.139 3.139 0 0 1-1.22-1.663 2.6 2.6 0 0 1 1.344-3.381 2.115 2.115 0 0 1 1.835.3 3.139 3.139 0 0 1 1.22 1.671 2.6 2.6 0 0 1-1.344 3.381 1.951 1.951 0 0 1-.595.092zm-.936-4.881a2.017 2.017 0 0 0-.959 2.633 2.545 2.545 0 0 0 .985 1.356 1.533 1.533 0 0 0 1.324.232 2.017 2.017 0 0 0 .959-2.633 2.545 2.545 0 0 0-.984-1.356 1.533 1.533 0 0 0-1.324-.232z" class="cls-4" transform="translate(-.75 -11.953)"/>
    </g>
</svg>
