<svg xmlns="http://www.w3.org/2000/svg" id="Photographers" width="28" height="28" viewBox="0 0 28 28">
    <defs>
        <style>
            .cls-7{fill:#b6c1ce}.cls-8{fill:#f9e0a6}.cls-12{fill:#333a60}
        </style>
    </defs>
    <path id="Rectangle_91" fill="none" d="M0 0h28v28H0z"/>
    <g id="photographer" transform="translate(-19.37 2.427)">
        <path id="Path_14069" fill="#d3a06c" d="M133.652 8A5.65 5.65 0 0 0 128 13.652v2.637h11.3v-2.637A5.65 5.65 0 0 0 133.652 8z" transform="translate(-100.217 -7.625)"/>
        <path id="Path_14070" fill="#b27946" d="M251.768 14.782v1.507h1.884v-2.637A5.65 5.65 0 0 0 248 8a7.607 7.607 0 0 1 3.768 6.782z" transform="translate(-214.565 -7.625)"/>
        <path id="Path_14071" fill="#92e0c0" d="M36.9 318.687H32l1.323-3.97a3.027 3.027 0 0 1 2.3-2.011l3.909-.805h5.278l3.909.805a3.012 3.012 0 0 1 2.3 2.011l1.323 3.97H36.9z" transform="translate(-8.738 -297.212)"/>
        <path id="Path_14072" fill="#48c397" d="M301.242 318.782h2.67l-1.323-3.97a3.027 3.027 0 0 0-2.3-2.011l-3.8-.782L296 312l3.914 2.284a1.505 1.505 0 0 1 .725 1.046z" transform="translate(-260.304 -297.308)"/>
        <path id="Path_14073" fill="#ececec" d="M174.782 396.521h-6.028a.756.756 0 0 1-.754-.754v-3.014a.756.756 0 0 1 .754-.754h6.028a.756.756 0 0 1 .754.754v3.014a.756.756 0 0 1-.754.754z" transform="translate(-138.333 -373.54)"/>
        <path id="Path_14074" d="M192 361.507l.377-1.507h4.523l.377 1.507z" class="cls-7" transform="translate(-161.202 -343.047)"/>
        <g id="Group_15053" transform="translate(27.783 7.157)">
            <path id="Path_14075" d="M204.521 280v1.507l-2.261 2.261-2.26-2.261V280z" class="cls-8" transform="translate(-196.609 -273.972)"/>
            <path id="Path_14076" d="M336 152v3.014a1.507 1.507 0 1 0 0-3.014z" class="cls-8" transform="translate(-326.204 -152)"/>
            <path id="Path_14077" d="M129.507 154.637V152a1.507 1.507 0 1 0 0 3.014h.019c-.009-.122-.019-.249-.019-.377z" class="cls-8" transform="translate(-128 -152)"/>
        </g>
        <path id="Rectangle_8762" d="M0 0H7.536V0.754H0z" class="cls-7" transform="translate(29.667 22.228)"/>
        <circle id="Ellipse_943" cx="2.261" cy="2.261" r="2.261" fill="#148ce0" transform="translate(31.174 18.46)"/>
        <circle id="Ellipse_944" cx=".754" cy=".754" r=".754" fill="#1261c5" transform="translate(32.681 19.967)"/>
        <path id="Path_14078" d="M167.757 136a.535.535 0 0 0-.377.155l-.019.019a4.553 4.553 0 0 1-3.217 1.333l.32-.641a.53.53 0 0 0 .057-.24v-.094a.533.533 0 0 0-.909-.377 4.613 4.613 0 0 1-3.264 1.352H160v1.884a4.145 4.145 0 0 0 8.289 0v-2.859a.535.535 0 0 0-.532-.532z" class="cls-8" transform="translate(-130.71 -129.597)"/>
        <path id="Path_14079" fill="#eabd8c" d="M240.178 136a.535.535 0 0 0-.377.155l-.019.019c-.066.066-.132.122-.2.184v3.033a4.145 4.145 0 0 1-3.579 4.1 4.432 4.432 0 0 0 .565.042 4.145 4.145 0 0 0 4.145-4.145v-2.859a.535.535 0 0 0-.535-.529z" transform="translate(-203.13 -129.597)"/>
        <path id="Path_14080" d="M37.391 21.851h6.415a.234.234 0 0 0 .221-.311l-1.385-4.154a3.4 3.4 0 0 0-2.59-2.261l-3.98-.744v-.918A4.534 4.534 0 0 0 37.9 10.52a1.882 1.882 0 0 0 1.568-1.851V6.1a6.029 6.029 0 1 0-12.057-.071v2.635a1.883 1.883 0 0 0 1.559 1.856 4.533 4.533 0 0 0 1.83 2.943v.914l-3.98.744a3.383 3.383 0 0 0-2.59 2.261l-1.387 4.158a.235.235 0 0 0 .221.311h6.368a.378.378 0 0 0 .377-.377.378.378 0 0 0-.377-.377H27.51l.551-2.185a.373.373 0 0 0-.268-.452h-.009a.378.378 0 0 0-.462.278c-.184.744-.589 2.36-.589 2.36h-2.948l1.159-3.471a2.628 2.628 0 0 1 2.016-1.757l2.4-.452.612 2.76a1.135 1.135 0 0 0-.683 1.036v3.014a1.128 1.128 0 0 0 1.13 1.13h6.028a1.128 1.128 0 0 0 1.13-1.13v-3.014a1.135 1.135 0 0 0-.683-1.036l.612-2.76 2.4.452a2.644 2.644 0 0 1 2.016 1.757l1.163 3.473h-2.953l-.589-2.374a.366.366 0 0 0-.447-.268h-.009a.379.379 0 0 0-.278.462c.179.706.546 2.176.546 2.176h-1.964a.378.378 0 0 0-.377.377.379.379 0 0 0 .377.378zm.565-12.127V7.6a1.122 1.122 0 0 1 0 2.119zm-9.043 0a1.129 1.129 0 0 1 0-2.129zm-.753-2.558v-1.14a5.275 5.275 0 1 1 10.55 0v1.14a1.844 1.844 0 0 0-.768-.349.913.913 0 0 0-.9-.791.938.938 0 0 0-.664.287 4.133 4.133 0 0 1-2.317 1.173l.024-.047a.945.945 0 0 0 .094-.405V6.94a.909.909 0 0 0-1.554-.64 4.209 4.209 0 0 1-2.967 1.239v-.754h-.377a1.821 1.821 0 0 0-1.121.381zm1.507 2.628V8.287a4.969 4.969 0 0 0 3.5-1.46.163.163 0 0 1 .268.108v.095a.133.133 0 0 1-.019.071l-.589 1.187h.608a4.911 4.911 0 0 0 3.5-1.46.163.163 0 0 1 .268.108v2.858a3.768 3.768 0 1 1-7.536 0zm3.768 4.521a4.5 4.5 0 0 0 1.884-.414v.636l-1.884 1.884-1.884-1.884V13.9a4.5 4.5 0 0 0 1.884.416zm1.884 6.405a1.884 1.884 0 1 1-1.884-1.884 1.883 1.883 0 0 1 1.884 1.885zm.108-3.283l.16.645h-4.309l.16-.645a.141.141 0 0 1 .137-.108h3.711a.138.138 0 0 1 .141.109zm-4.38-2.337l1.479 1.479h-1.535a.137.137 0 0 0-.137.108l-.235.937-.519-2.343zm-.626 7.5a.378.378 0 0 1-.377-.377v-3.009a.378.378 0 0 1 .377-.377h1.173a2.627 2.627 0 0 0 0 3.768zm6.405-.377a.378.378 0 0 1-.377.377h-1.173a2.627 2.627 0 0 0 0-3.768h1.173a.378.378 0 0 1 .377.377zm-.575-4.611l-.235-.937a.141.141 0 0 0-.137-.108h-1.535l1.479-1.479.951.179z" class="cls-12"/>
        <path id="Path_14081" d="M225.13 418.261a1.13 1.13 0 1 0-1.13-1.13 1.134 1.134 0 0 0 1.13 1.13zm0-1.507a.377.377 0 1 1-.377.377.378.378 0 0 1 .377-.377z" class="cls-12" transform="translate(-191.695 -396.41)"/>
    </g>
</svg>
