<svg xmlns="http://www.w3.org/2000/svg" width="24" height="24" viewBox="0 0 24 24">
    <defs>
        <style>
            .cls-2{fill:#ffceb6}.cls-3{fill:#ffb089}.cls-6{fill:#ffbfa1}.cls-7{fill:#b1712c}.cls-8{fill:#333a60}
        </style>
    </defs>
    <g id="Physiotherapists" transform="translate(-16 -16)">
        <path id="Path_14461" fill="#02c26a" d="M285.6 236.8l-2.4-2.8-.4-2-2.8 1.6.8 4 2 2.4.8 4.8h6.8v-7.2l-2.4-.8z" transform="translate(-250.8 -205.2)"/>
        <path id="Path_14462" d="M381.6 193.2v3.6a2.8 2.8 0 0 1-2.8 2.8 2.8 2.8 0 0 1-2.8-2.8v-3.6l1.6-1.2h1.2z" class="cls-2" transform="translate(-342 -167.2)"/>
        <path id="Path_14463" d="M286.99 62.886a.4.4 0 0 1-.4-.4v-.306a1.837 1.837 0 0 1 1.021-1.652.4.4 0 1 1 .358.716 1.042 1.042 0 0 0-.579.937v.306a.4.4 0 0 1-.4.399z" class="cls-3" transform="translate(-257.06 -42.262)"/>
        <path id="Path_14464" fill="#548aff" d="M28 176l-.4 1.2-2.777 1.543a1.6 1.6 0 0 0-.823 1.4v2.657l.8.571v8.229H34v-12.622l-3.2-1.778-.4-1.2z" transform="translate(-7.6 -152)"/>
        <path id="Path_14465" fill="#4976f2" d="M40 274.571L42 276l.435-.783h3.951L49.2 272v10.8H40z" transform="translate(-22.8 -243.2)"/>
        <path id="Path_14466" d="M99.2 177.2l-.8.8-.8 1.2-.8-1.2-.8-.8.4-1.2h2.4z" class="cls-6" transform="translate(-76 -152)"/>
        <path id="Path_14467" d="M77.6 26.4v2.8a2.8 2.8 0 1 1-5.6 0v-2.8a2.4 2.4 0 0 1 2.4-2.4h.8a2.4 2.4 0 0 1 2.4 2.4z" class="cls-2" transform="translate(-53.2 -7.6)"/>
        <path id="Path_14468" d="M381.6 178v.8h-1.551a2.112 2.112 0 0 1-2.049-1.6l-.012.048A2.049 2.049 0 0 1 376 178.8v-.8a2 2 0 0 1 2-2h1.6a2 2 0 0 1 2 2z" class="cls-7" transform="translate(-342 -152)"/>
        <path id="Path_14469" d="M77.263 25.173l-.013.026a2.9 2.9 0 0 1-2.589 1.6H72v-.4A2.4 2.4 0 0 1 74.4 24h.8a2.4 2.4 0 0 1 2.063 1.173z" class="cls-7" transform="translate(-53.2 -7.6)"/>
        <path id="Path_14470" d="M198 144h1.2l.8 1.2v1.6l-2 .8-2.8 5.2H192z" class="cls-3" transform="translate(-167.2 -121.6)"/>
        <path id="Path_14471" d="M257.629 50.96L256.4 44.4l-.386-2.3a1.834 1.834 0 0 1 1.46-2.026l.3-.06a.8.8 0 0 1 .957.784v.624l.194-.337a.565.565 0 0 1 .742-.224.564.564 0 0 1 .312.522 5.177 5.177 0 0 1-1.033 2.952l-.216.288L260 49.6z" class="cls-6" transform="translate(-228 -22.805)"/>
        <path id="Path_14472" d="M90.261 173.6l1.6.8 4.8-4.4.4-1.6 1.6-.4.8.4v2l-1.6.8-5.2 6.4h-1.6l-2.361-1.183z" class="cls-2" transform="translate(-69.061 -144.4)"/>
        <path id="Path_14473" d="M112 121.6h.4a1.2 1.2 0 0 0 1.2-1.2v-.4h-.8v.4a.4.4 0 0 1-.4.4h-.4z" class="cls-8" transform="translate(-91.2 -98.8)"/>
        <circle id="Ellipse_980" cx=".4" cy=".4" r=".4" class="cls-8" transform="translate(20 20)"/>
        <circle id="Ellipse_981" cx=".4" cy=".4" r=".4" class="cls-8" transform="translate(22.4 20)"/>
        <path id="Path_14474" d="M416.8 280.4a.4.4 0 0 1-.4.4h-.4v.8h.4a1.2 1.2 0 0 0 1.2-1.2v-.4h-.8z" class="cls-8" transform="translate(-380 -250.8)"/>
        <path id="Path_14475" d="M37.6 23.6H36a2.4 2.4 0 0 0-2.4 2.4v3.585l-.828-.966-.379-1.9c0-.007 0-.014-.005-.02l-.21-.821.771-.308a.4.4 0 0 0 .251-.37v-1.6a.4.4 0 0 0-.067-.222l-.8-1.2A.4.4 0 0 0 32 22h-.813l-.023-.089.1-.134a5.548 5.548 0 0 0 1.113-3.18.967.967 0 0 0-.533-.892.963.963 0 0 0-.759-.039 1.2 1.2 0 0 0-1.387-.84l-.3.06a2.234 2.234 0 0 0-1.779 2.468v.017l.386 2.3v.008l.342 1.827-.446.112a.4.4 0 0 0-.291.291l-.371 1.483-1.088 1-2.621-1.466-.21-.63a3.2 3.2 0 0 0 1.48-2.7V18.8A2.8 2.8 0 0 0 22 16h-.8a2.8 2.8 0 0 0-2.8 2.8v2.8a3.2 3.2 0 0 0 1.48 2.7l-.21.63-2.641 1.467A2 2 0 0 0 16 28.142V30.8a.4.4 0 0 0 .168.325l.632.452V39.6a.4.4 0 0 0 .4.4h9.2a.4.4 0 0 0 .4-.4v-8H28a.4.4 0 0 0 .352-.21l.757-1.405.5 2.494a.4.4 0 0 0 .085.178l1.931 2.317.782 4.693A.4.4 0 0 0 32.8 40h6.8a.4.4 0 0 0 .4-.4v-7.2a.4.4 0 0 0-.274-.379l-.619-.206A3.188 3.188 0 0 0 40 29.6V26a2.4 2.4 0 0 0-2.4-2.4zM34.4 26a1.6 1.6 0 0 1 1.6-1.6h1.6a1.6 1.6 0 0 1 1.6 1.6v.4h-1.151a1.71 1.71 0 0 1-1.661-1.3.4.4 0 0 0-.776 0l-.012.048a1.647 1.647 0 0 1-1.2 1.2zm-2.614-3.2l.614.921v1.208l-.422.169-.587-2.3zm-2.992-1.27l-.384-2.286a1.434 1.434 0 0 1 1.143-1.577l.3-.06a.4.4 0 0 1 .477.393v.4a1.835 1.835 0 0 0-.8 1.522v.306h.8v-.306a1.042 1.042 0 0 1 .579-.937.4.4 0 0 0 .168-.159l.194-.337a.165.165 0 0 1 .217-.066.165.165 0 0 1 .089.151 4.752 4.752 0 0 1-.953 2.724l-.216.288a.4.4 0 0 0-.068.339l1.2 4.68-1.618.925-.144-.769.8-.4A.4.4 0 0 0 30.8 26v-2a.4.4 0 0 0-.221-.358l-.8-.4a.4.4 0 0 0-.276-.03l-.376.094zm-.924 4.365a.4.4 0 0 0 .118-.2l.342-1.367 1.224-.306.447.223v1.506l-1.379.689a.4.4 0 0 0-.132.106L23.41 32.8h-1.315l-1.907-.954 1.176-2.117 1.257.629a.4.4 0 0 0 .449-.063zM21.2 16.8h.8a2 2 0 0 1 1.6.8 2.479 2.479 0 0 1-2.134 1.2H19.2a2 2 0 0 1 2-2zm-2 4.8v-2h2.261a3.274 3.274 0 0 0 2.507-1.155A2 2 0 0 1 24 18.8v2.8a2.4 2.4 0 0 1-4.8 0zm2.4 3.2a3.187 3.187 0 0 0 .993-.158l.15.45-.625.625a.4.4 0 0 0-.05.061l-.467.7-.467-.7a.4.4 0 0 0-.05-.061l-.625-.625.15-.45a3.186 3.186 0 0 0 .992.158zm-4.8 3.341a1.2 1.2 0 0 1 .617-1.049l2.513-1.4.559.559.778 1.167a.4.4 0 0 0 .666 0l.778-1.167.559-.559 2.262 1.257-2.8 2.566-1.354-.677-1.6-.8-.358.716 1.226.613-1.58 2.843-2.266-1.616zM26 39.2h-8.4v-7.051l1.368.977a.4.4 0 0 0 .582-.131l.249-.448 2.023 1.011A.4.4 0 0 0 22 33.6h1.6a.4.4 0 0 0 .31-.148l1.5-1.852H26zm1.761-8.4h-1.7l2.968-3.653.15.8-.182.1a.4.4 0 0 0-.194.426l.055.275zM39.2 39.2h-6.061l-.744-4.466a.4.4 0 0 0-.087-.19l-1.935-2.322-.724-3.622 2.068-1.182.291 1.456a.4.4 0 0 0 .089.182l2.4 2.8.022-.019a3.193 3.193 0 0 0 3.824.561l.857.286zM36.8 32a2.4 2.4 0 0 1-2.4-2.4v-2.433a2.445 2.445 0 0 0 1.608-1.012 2.509 2.509 0 0 0 2.041 1.045H39.2v2.4a2.4 2.4 0 0 1-2.4 2.4z" class="cls-8"/>
        <circle id="Ellipse_982" cx=".4" cy=".4" r=".4" class="cls-8" transform="translate(35.2 28)"/>
        <circle id="Ellipse_983" cx=".4" cy=".4" r=".4" class="cls-8" transform="translate(37.6 28)"/>
    </g>
</svg>
