<svg xmlns="http://www.w3.org/2000/svg" width="28" height="28" viewBox="0 0 28 28">
    <defs>
        <style>
            .cls-2{fill:#f9bf8c}.cls-3{fill:#efb27b}.cls-8{fill:#d55400}.cls-10{fill:#48ade1}.cls-11{fill:#ff423e}
        </style>
    </defs>
    <g id="Plumber" transform="translate(-32 -83)">
        <path id="Rectangle_91" fill="none" d="M0 0h28v28H0z" transform="translate(32 83)"/>
        <g id="plumber-2" transform="translate(10.309 86)">
            <path id="Rectangle_1" d="M0 0H3.471V4.808H0z" class="cls-2" transform="translate(35.226 10.947)"/>
            <path id="Rectangle_2" d="M0 0H1.31V4.808H0z" class="cls-3" transform="translate(35.226 10.947)"/>
            <path id="Path_13920" fill="#bdbec0" d="M97.07 396.752a2.285 2.285 0 0 1-.241-.013v4.05a.556.556 0 0 0 .556.556h.046a.556.556 0 0 0 .556-.556v-4.05a2.268 2.268 0 0 1-.241.013h-.676z" transform="translate(-68.081 -379.69)"/>
            <path id="Path_13921" fill="#ff3632" d="M37.55 279.1h-3.2a.579.579 0 1 1 0-1.158h5.419a.579.579 0 1 1 0 1.158h-1.077" transform="translate(-7.737 -265.999)"/>
            <path id="Path_13922" fill="#ff5855" d="M50.253 304.891v1.717a2.242 2.242 0 0 0 2.242 2.242h.676a2.243 2.243 0 0 0 2.242-2.242v-1.717" transform="translate(-23.507 -291.789)"/>
            <path id="Path_13923" d="M372.175 148.427a1.056 1.056 0 0 0-.21.021v2.052a1.06 1.06 0 0 0 .21.021 1.048 1.048 0 1 0 0-2.1z" class="cls-2" transform="translate(-331.394 -142.049)"/>
            <path id="Path_13924" d="M175.4 148.427a1.056 1.056 0 0 1 .21.021v2.052a1.06 1.06 0 0 1-.21.021 1.048 1.048 0 1 1 0-2.1z" class="cls-3" transform="translate(-142.269 -142.049)"/>
            <path id="Path_13925" fill="#ffd3a4" d="M203.944 123.738v3.205a3.517 3.517 0 0 0 3.517 3.517h.186a3.517 3.517 0 0 0 3.517-3.517v-3.205z" transform="translate(-170.593 -118.421)"/>
            <g id="Group_15006" transform="translate(32.433 5.317)">
                <path id="Path_13926" d="M372.174 124.8a1.044 1.044 0 0 1 .708.275v-1.336h-.918v1.082a1.062 1.062 0 0 1 .21-.021z" class="cls-8" transform="translate(-363.826 -123.737)"/>
                <path id="Path_13927" d="M183.286 124.8a1.056 1.056 0 0 1 .21.021h.014v-1.082h-.918v1.324a1.044 1.044 0 0 1 .694-.263z" class="cls-8" transform="translate(-182.592 -123.738)"/>
            </g>
            <path id="Path_13928" fill="#828186" d="M180.4 96.021c-2.2 0-4.078.494-4.829 1.191h9.659c-.75-.697-2.63-1.191-4.83-1.191z" transform="translate(-143.441 -91.895)"/>
            <g id="Group_15007" transform="translate(28.867 12.469)">
                <path id="Path_13930" d="M126.626 295.837c0-.267-.013-.53-.038-.786-.247-2.479-1.685-4.378-4.269-4.378h-.992l-1.141-.5v.5l-1.736 2.168-1.736-2.168v-.5l-1.141.5h-.992a4.792 4.792 0 0 0-.788.063.576.576 0 0 1-.268.066h-.053l-.076.02v1.7a2.243 2.243 0 0 1-2 2.229v4.05a.556.556 0 0 1-.556.556h15.231a.556.556 0 0 0 .553-.5.564.564 0 0 0 0-.057v-1.855" class="cls-10" transform="translate(-110.356 -290.17)"/>
            </g>
            <g id="Group_15008" transform="translate(34.085 12.469)">
                <path id="Path_13932" d="M290.832 290.673l-1.141-.5v.5l-1.735 2.168 1.163.788z" class="cls-11" transform="translate(-285.079 -290.17)"/>
                <path id="Path_13933" d="M221.016 290.673l1.141-.5v.5l1.736 2.168-1.163.788z" class="cls-11" transform="translate(-221.016 -290.17)"/>
                <path id="Path_13934" d="M276.344 352.328l-.521.353v6.161h1.043v-6.161z" class="cls-11" transform="translate(-273.468 -349.657)"/>
            </g>
            <path id="Path_13935" d="M193.24 11.863a9.89 9.89 0 0 1 4.253.8 4.265 4.265 0 1 0-8.506 0 9.89 9.89 0 0 1 4.253-.8z" class="cls-10" transform="translate(-156.279 -7.737)"/>
            <path id="Path_13936" fill="#c12323" d="M35.085 278.522a.579.579 0 0 1 .579-.579h-1.31a.579.579 0 1 0 0 1.158h1.31a.579.579 0 0 1-.579-.579z" transform="translate(-7.737 -265.999)"/>
            <path id="Path_13937" fill="#c64040" d="M51.563 306.609v-1.717h-1.31v1.717a2.242 2.242 0 0 0 2.242 2.242h.676a2.263 2.263 0 0 0 .317-.023 2.243 2.243 0 0 1-1.925-2.219z" transform="translate(-23.507 -291.789)"/>
            <path id="Path_13938" fill="#f9be8f" d="M205.254 126.943v-3.205h-1.31v3.205a3.517 3.517 0 0 0 3.517 3.517h.186a3.54 3.54 0 0 0 .562-.045 3.518 3.518 0 0 1-2.955-3.472z" transform="translate(-170.593 -118.421)"/>
            <path id="Path_13939" fill="#178baf" d="M193.894 8.138a3.983 3.983 0 0 0-.655-.054 4.426 4.426 0 0 0-4.253 4.581 6.138 6.138 0 0 1 1.333-.477 4.452 4.452 0 0 1 3.575-4.05z" transform="translate(-156.278 -7.737)"/>
            <path id="Path_13940" fill="#323c6b" stroke="#323c6b" stroke-width="0.1px" d="M45.138 17.9a.347.347 0 0 0-.347.347v2.875a.208.208 0 0 1-.207.187h-2.29v-3.39a.347.347 0 1 0-.695 0v3.39h-3.451c-.016-.028.121-.01.133 0h-.451v-5.161l.1.067a.347.347 0 0 0 .5-.113l1.613-2.782h.792c2.2 0 3.67 1.519 3.924 4.065.024.244.037.5.037.752a.347.347 0 0 0 .695 0c0-.278-.013-.554-.04-.821-.288-2.893-2.057-4.691-4.615-4.691h-.919l-.867-.382v-.409a3.868 3.868 0 0 0 1.862-3.017 1.394 1.394 0 0 0 .93-2.3v-.856a.347.347 0 0 0 .19-.6 2.7 2.7 0 0 0-.47-.341 4.6 4.6 0 1 0-9.192 0 2.7 2.7 0 0 0-.47.341.347.347 0 0 0 .19.6V6.5a1.394 1.394 0 0 0 .93 2.319 3.868 3.868 0 0 0 1.862 3.016v.409l-.867.382H32.96a.923.923 0 0 0-.92-1.031h-5.423a.926.926 0 0 0-.218 1.826v1.4a2.594 2.594 0 0 0 2 2.522V21.1a.9.9 0 0 0 .9.9h15.283a.9.9 0 0 0 .9-.811.919.919 0 0 0 0-.092v-2.853a.347.347 0 0 0-.344-.344zM34.879 13a.347.347 0 0 0 .075.188l1.5 1.874-.086.058-.456.309-1.332-2.3zm3.131 2.43l-.332-.225-.21-.142 1.5-1.874a.347.347 0 0 0 .075-.189l.3.132zM33 6.036c-.034 0-.068.008-.1.013h-.014c-.034.006-.068.013-.1.022v-.41H33v.372zm.5-1.066l.046-.016.021-.007a10.731 10.731 0 0 1 2.923-.466h.938a10.735 10.735 0 0 1 2.921.465l.024.008.045.015zm7.639.695v.413h-.005c-.031-.008-.063-.015-.1-.021h-.021c-.033-.006-.066-.011-.1-.014v-.378zm-.223 2.449V6.74l.035.008.023.006.04.014.048.019.026.011.033.018.021.012.031.021.02.014.029.023.02.017a.7.7 0 0 1-.325 1.213zm-7.828-3.732a3.878 3.878 0 0 1 7.746 0l-.043-.016-.019-.007-.2-.07-.1-.034-.072-.02-.152-.045-.029-.008a11.9 11.9 0 0 0-2.7-.392h-.037l-.211-.006H36.649l-.211.006H36.4a11.9 11.9 0 0 0-2.7.392l-.028.008-.154.045-.066.02-.106.035q-.1.033-.194.067l-.025.009zm-.662 3.045a.7.7 0 0 1 .241-.529l.025-.02.023-.018.032-.021.026-.016.047-.023.015-.007.042-.018.017-.006.041-.014h.02l.033-.008v1.367a.7.7 0 0 1-.561-.687zm1.272 1.1V5.665h6.526v2.857a3.175 3.175 0 0 1-1.929 2.917h-.011c-.04.017-.08.033-.121.048l-.043.016-.09.031-.077.024-.064.018-.068.018-.1.023-.07.014-.067.012-.087.013-.089.011-.05.005-.128.01h-.538l-.128-.01-.05-.005-.089-.011-.087-.014-.067-.012-.07-.014-.1-.023-.068-.018-.064-.018-.078-.024-.09-.03-.044-.016c-.041-.015-.081-.031-.121-.048l-.012-.005A3.174 3.174 0 0 1 33.7 8.522zm2.331 3.772l.023.005.124.024.052.009.111.017.073.009.1.011.1.008h.7l.1-.008.1-.011.073-.009.111-.017.052-.009.124-.024.023-.005a3.834 3.834 0 0 0 .407-.114l.05-.016v.687l-1.388 1.734-1.388-1.734v-.686l.05.016a3.839 3.839 0 0 0 .403.108zM29.3 21.307a.209.209 0 0 1-.2-.207v-3.691h.463V21.1a.209.209 0 0 1-.208.208zm-2.21-6.488v-1.37h3.719a.347.347 0 0 0 0-.695h-4.2a.232.232 0 0 1 0-.463h5.419a.231.231 0 0 1 .1.441h-.011a.226.226 0 0 1-.036.011h-.008a.23.23 0 0 1-.042 0h-1.075a.347.347 0 1 0 0 .695h.6v1.488c0 .024 0 .048-.005.072v.021c0 .025-.006.049-.009.074v.015c0 .027-.009.054-.014.081v.011a1.9 1.9 0 0 1-1.562 1.487l-.083.011h-.007a1.938 1.938 0 0 1-.2.011H29a1.926 1.926 0 0 1-.2-.011 1.9 1.9 0 0 1-1.706-1.879zm3.139 6.468v-.015l.012-.078v-.013-3.839l.048-.012h.017a2.582 2.582 0 0 0 1.894-1.988q.011-.056.02-.113v-.025q.007-.047.012-.095v-.035c0-.03.005-.061.007-.091v-.035-1.525l.024-.007.046-.013.035-.013.045-.017a4.493 4.493 0 0 1 .683-.051h.792L35.5 16.1a.347.347 0 0 0 .5.113l.1-.067v5.159h-3.775v-3.39a.347.347 0 0 0-.695 0v3.39h-1.4l.003-.017zm6.554.019v-5.628l.1-.064.079-.053.174.118v5.629h-.348z"/>
        </g>
    </g>
</svg>
