<svg xmlns="http://www.w3.org/2000/svg" width="28" height="28" viewBox="0 0 28 28">
  <defs>
    <style>
      .cls-1 {
        fill: #e5e5e5;
        opacity: 0;
      }

      .cls-2 {
        fill: #ffd167;
      }

      .cls-3 {
        fill: #efb736;
      }

      .cls-4 {
        fill: #333a60;
        stroke: #333a60;
        stroke-width: 0.4px;
      }

      .cls-5 {
        fill: #e93234;
      }

      .cls-6 {
        fill: #bf161c;
      }
    </style>
  </defs>
  <g id="Real_Estate" data-name="Real Estate" transform="translate(-23 -359)">
    <rect id="Rectangle_8759" data-name="Rectangle 8759" class="cls-1" width="28" height="28" transform="translate(23 359)"/>
    <g id="home_1_" data-name="home (1)" transform="translate(25.799 362.733)">
      <path id="Path_12410" data-name="Path 12410" class="cls-2" d="M33.336,34.056H16.22V21.812l8.558-6.578,8.558,6.578Z" transform="translate(-13.315 -13.702)"/>
      <path id="Path_12411" data-name="Path 12411" class="cls-3" d="M33.337,21.812v2.8l-8.559-6.578-8.557,6.578v-2.8l8.557-6.578Z" transform="translate(-13.316 -13.702)"/>
      <path id="Path_12412" data-name="Path 12412" class="cls-4" d="M32.515,33.413H15.4a.179.179,0,0,1-.179-.179V20.991a.179.179,0,0,1,.07-.142l8.558-6.579a.179.179,0,0,1,.218,0l8.558,6.579a.179.179,0,0,1,.07.142V33.234A.179.179,0,0,1,32.515,33.413Zm-16.937-.358H32.336V21.079l-8.379-6.44-8.379,6.44Z" transform="translate(-12.494 -12.88)"/>
      <path id="Path_12413" data-name="Path 12413" class="cls-5" d="M23.568,16.865,12.284,7.681,1,16.865l1.255,1.541,10.03-8.163,10.03,8.163Z" transform="translate(-0.821 -7.502)"/>
      <path id="Path_12414" data-name="Path 12414" class="cls-4" d="M21.5,17.764a.179.179,0,0,1-.113-.04L11.466,9.653,1.549,17.724A.179.179,0,0,1,1.3,17.7L.044,16.157a.179.179,0,0,1,.026-.252L11.354,6.721a.179.179,0,0,1,.226,0l11.284,9.184a.179.179,0,0,1,.026.252L21.636,17.7a.179.179,0,0,1-.121.065H21.5ZM11.466,9.243a.179.179,0,0,1,.113.04l9.891,8.05L22.5,16.07,11.466,7.09.434,16.069l1.028,1.263,9.891-8.05a.179.179,0,0,1,.113-.04Z" transform="translate(-0.003 -6.68)"/>
      <path id="Path_12415" data-name="Path 12415" class="cls-5" d="M46.324,60.134c-1.414-1.886-3.445-.181-3.554-.145-.109-.036-2.14-1.741-3.554.145s.906,4.97,3.554,6.457C45.418,65.1,47.739,62.02,46.324,60.134Z" transform="translate(-31.309 -49.339)"/>
      <path id="Path_12416" data-name="Path 12416" class="cls-6" d="M61.573,66.615q-.229-.129-.455-.274c2.567-1.525,4.746-4.507,3.365-6.348a2.242,2.242,0,0,0-.845-.718,2,2,0,0,1,1.489.882C66.542,62.044,64.221,65.127,61.573,66.615Z" transform="translate(-50.112 -49.362)"/>
      <path id="Path_12417" data-name="Path 12417" class="cls-4" d="M41.92,65.9l-.077-.043c-2.014-1.131-3.656-3.043-3.995-4.649a2.425,2.425,0,0,1,.392-2.041c.62-.827,1.761-1.54,3.677-.24l0,0,0,0c1.916-1.3,3.057-.587,3.677.24a2.428,2.428,0,0,1,.391,2.041c-.338,1.606-1.981,3.518-3.995,4.649Zm-1.933-7.37a1.827,1.827,0,0,0-1.5.827,2.124,2.124,0,0,0-.335,1.785,7.794,7.794,0,0,0,3.763,4.4,7.794,7.794,0,0,0,3.763-4.395,2.123,2.123,0,0,0-.335-1.785c-.782-1.043-1.874-1.1-3.247-.168a.584.584,0,0,1-.131.078l-.05.016-.05-.017a.584.584,0,0,1-.131-.078A3.218,3.218,0,0,0,39.987,58.531Z" transform="translate(-30.458 -48.469)"/>
    </g>
  </g>
</svg>
