<svg xmlns="http://www.w3.org/2000/svg" width="28" height="28" viewBox="0 0 28 28">
    <defs>
        <style>
            .cls-4{fill:#333a60}
        </style>
    </defs>
    <g id="Restaurants" transform="translate(-27 -261)">
        <path id="Rectangle_91" fill="none" d="M0 0h28v28H0z" transform="translate(27 261)"/>
        <g id="Group_13582" transform="translate(29 266)">
            <path id="Path_4941" fill="#ff5050" d="M174.191 419.209c-10.072.1-12.258.064-20.485.062.96-5.74 4.515-8.057 10.121-8.817 6.518.965 8.557 3.17 10.364 8.755z" transform="translate(-151.83 -405.776)"/>
            <path id="Path_4942" fill="#d4e1f4" d="M173.483 445.059l-.32 1.386a1.056 1.056 0 0 1-1.04.747l-18.4.005a.878.878 0 0 1-.827-.486l-.426-1.653z" transform="translate(-150.968 -429.923)"/>
            <g id="Group_13581">
                <path id="Path_4943" d="M175.309 420.131a.319.319 0 0 0 .139-.032c.09-.044.182-.086.274-.125a.321.321 0 0 0 .163-.423.322.322 0 0 0-.417-.165c-.1.044-.2.09-.3.137a.32.32 0 0 0 .14.609z" class="cls-4" transform="translate(-166.68 -411.991)"/>
                <path id="Path_4944" d="M166.256 423.8a.321.321 0 0 0 .445-.087 6.3 6.3 0 0 1 1.75-1.736.32.32 0 0 0 .088-.444.321.321 0 0 0-.445-.089 6.933 6.933 0 0 0-1.925 1.911.32.32 0 0 0 .087.444z" class="cls-4" transform="translate(-160.489 -413.405)"/>
                <path id="Path_4945" d="M171.179 408.479a1.159 1.159 0 0 0-.816-.365h-.5a9.418 9.418 0 0 0-3.259-6.081 10.685 10.685 0 0 0-5.959-2.533v-1.021a1.938 1.938 0 1 0-2.286 0v1.021a10.683 10.683 0 0 0-5.958 2.532 9.416 9.416 0 0 0-3.261 6.082h-.444a1.189 1.189 0 0 0-1.194 1.132 1.17 1.17 0 0 0 1.136 1.2h.087l.2 1.083a1.334 1.334 0 0 0 1.3 1.093h18.52a1.347 1.347 0 0 0 1.3-1.065l.229-1.112h.036a1.189 1.189 0 0 0 1.194-1.132 1.163 1.163 0 0 0-.325-.834zm-11.68-8.4a10.188 10.188 0 0 1 6.681 2.435 8.789 8.789 0 0 1 3.036 5.6h-19.435a8.79 8.79 0 0 1 3.037-5.6 10.188 10.188 0 0 1 6.682-2.432zm-1.3-3.17a1.3 1.3 0 1 1 1.3 1.3 1.3 1.3 0 0 1-1.299-1.296zm1.8 1.871v.669c-.389-.016-.614-.016-1 0v-.669a1.948 1.948 0 0 0 1.001.004zm10.33 11.023h-16.1a.32.32 0 1 0 0 .64h15.388l-.2.982a.691.691 0 0 1-.669.554h-18.525a.693.693 0 0 1-.672-.569l-.177-.967h3.207a.32.32 0 1 0 0-.64h-3.9a.54.54 0 0 1-.538-.524.53.53 0 0 1 .533-.528h21.644a.54.54 0 0 1 .538.524.529.529 0 0 1-.528.532z" class="cls-4" transform="translate(-147.498 -394.973)"/>
            </g>
        </g>
    </g>
</svg>
