<svg xmlns="http://www.w3.org/2000/svg" id="Tattoo_Artists" width="28" height="28" viewBox="0 0 28 28">
    <defs>
        <style>
            .cls-2{fill:#dbedff}.cls-3{fill:#b5dcff}.cls-5{fill:#ffdda8}.cls-6{fill:#ffc365}.cls-7{fill:#ffb640}.cls-8{fill:#ffa90f}.cls-9{fill:#ff636e}.cls-10{fill:#fd2a39}
        </style>
    </defs>
    <path id="Rectangle_91" fill="none" d="M0 0h28v28H0z"/>
    <g id="tattoo-machine" transform="translate(-63.747 4.206)">
        <g id="Group_15074" transform="translate(70.997 .302)">
            <path id="Path_14146" d="M79.409 456.9l-1.209 1.557a.214.214 0 0 0 .3.3l1.552-1.206z" class="cls-2" transform="translate(-78.155 -438.981)"/>
            <path id="Path_14147" d="M78.437 458.682l1.283-1.464-.312-.312-1.208 1.552a.215.215 0 0 0 .162.348.318.318 0 0 1 .075-.124z" class="cls-3" transform="translate(-78.155 -438.982)"/>
            <path id="Path_14148" d="M109.38 429.86l-.916.917a.122.122 0 0 0 0 .172l.647.647a.122.122 0 0 0 .172 0l.916-.917z" class="cls-3" transform="translate(-107.221 -413.015)"/>
            <path id="Path_14149" fill="#8bcaff" d="M108.846 431.174l.924-.926-.389-.389-.916.917a.122.122 0 0 0 0 .172l.347.347a.128.128 0 0 1 .034-.121z" transform="translate(-107.222 -413.015)"/>
            <path id="Path_14150" d="M312 175.5a.916.916 0 0 1-.257-.5l-3.2 3.2.76.76 3.2-3.2a.916.916 0 0 1-.503-.26z" class="cls-2" transform="translate(-299.355 -168.319)"/>
            <path id="Path_14151" d="M311.984 175.486a.916.916 0 0 1-.243-.489l-3.2 3.2.366.366z" class="cls-3" transform="translate(-299.355 -168.319)"/>
            <path id="Path_14152" d="M131.942 17.992l-5.3-5.3a.359.359 0 0 1 0-.506l3.441-3.442a.359.359 0 0 1 .506 0l5.369 5.369a.948.948 0 0 1 .724-.8l-5.332-5.328a1.432 1.432 0 0 0-2.026 0l-3.441 3.441a1.432 1.432 0 0 0 0 2.026l5.3 5.3z" class="cls-5" transform="translate(-123.576 -7.565)"/>
            <g id="Group_15073" transform="translate(1.887 .872)">
                <path id="Path_14153" d="M131.531 124.925a.489.489 0 0 1-.691 0l-4.954-4.954a1.426 1.426 0 0 1-.359-.6 1.432 1.432 0 0 0 .359 1.427l5.3 5.3.76-.76z" class="cls-6" transform="translate(-125.466 -115.784)"/>
                <path id="Path_14154" d="M253.89 33.805a.437.437 0 0 1-.651.04l-4.211-4.211a.67.67 0 0 0-.925-.026l-.031.031a.356.356 0 0 1 .236.1l5.369 5.369a.948.948 0 0 1 .724-.8z" class="cls-6" transform="translate(-243.182 -29.437)"/>
            </g>
            <path id="Path_14155" d="M298.16 297.517l-.494-.494-.76.76.494.494a.537.537 0 0 0 .76-.76z" class="cls-5" transform="translate(-288.181 -285.476)"/>
            <path id="Path_14156" d="M297.652 306.26l-.34-.34-.4.4.494.494a.537.537 0 0 0 .916-.394.663.663 0 0 1-.67-.16z" class="cls-6" transform="translate(-288.181 -294.018)"/>
            <path id="Path_14157" d="M248.684 253.326l2.143-2.142a.179.179 0 0 0 0-.253l-.954-.954a.179.179 0 0 0-.253 0l-2.143 2.142z" class="cls-7" transform="translate(-240.723 -240.256)"/>
            <path id="Path_14158" d="M250.321 250.425l-.447-.447a.179.179 0 0 0-.253 0l-2.143 2.142.574.574z" class="cls-8" transform="translate(-240.723 -240.257)"/>
            <path id="Path_14159" d="M127.6 401.043l-.9.9a.184.184 0 0 0 0 .26l.981.981a.184.184 0 0 0 .26 0l.9-.9z" class="cls-7" transform="translate(-124.711 -385.347)"/>
            <path id="Path_14160" d="M127.348 402.6l.9-.9-.65-.65-.9.9a.184.184 0 0 0 0 .26l.588.588a.22.22 0 0 1 .062-.198z" class="cls-8" transform="translate(-124.711 -385.348)"/>
            <path id="Path_14161" d="M243.479 122.959l-.692-.692a.431.431 0 0 0-.608 0l-2.013 2.013a.431.431 0 0 0 0 .608l.692.692a.431.431 0 0 0 .608 0l2.013-2.013a.431.431 0 0 0 0-.608z" class="cls-9" transform="translate(-233.583 -117.571)"/>
            <path id="Path_14162" d="M240.722 124.888l2.064-2.064a.491.491 0 0 1 .4-.16l-.4-.4a.431.431 0 0 0-.608 0l-2.013 2.013a.431.431 0 0 0 0 .608l.4.4a.491.491 0 0 1 .157-.397z" class="cls-10" transform="translate(-233.581 -117.57)"/>
            <path id="Path_14163" d="M142.786 293.017l-1.519-1.519a.763.763 0 0 0-1.076 0l-3.127 3.127a.763.763 0 0 0 0 1.076l1.519 1.519a.763.763 0 0 0 1.076 0l3.127-3.127a.763.763 0 0 0 0-1.076z" class="cls-6" transform="translate(-134.5 -279.958)"/>
            <path id="Path_14164" d="M138.12 295.783l3.227-3.227a.791.791 0 0 1 .773-.2l-.853-.853a.763.763 0 0 0-1.076 0l-3.127 3.127a.763.763 0 0 0 0 1.076l.853.853a.79.79 0 0 1 .203-.776z" class="cls-7" transform="translate(-134.5 -279.959)"/>
            <circle id="Ellipse_949" cx=".949" cy=".949" r=".949" class="cls-6" transform="translate(12.287 5.64)"/>
            <path id="Path_14165" d="M387.315 150.582a.948.948 0 0 1 .242-1.517.949.949 0 1 0 0 1.692.946.946 0 0 1-.242-.175z" class="cls-7" transform="translate(-373.891 -143.322)"/>
            <path id="Path_14166" d="M192.694 72.174l-.694-.692a.431.431 0 0 0-.608 0l-2.013 2.013a.431.431 0 0 0 0 .608l.692.692a.431.431 0 0 0 .608 0l2.013-2.013a.431.431 0 0 0 .002-.608z" class="cls-9" transform="translate(-184.824 -68.812)"/>
            <path id="Path_14167" d="M189.937 74.1L192 72.039a.491.491 0 0 1 .4-.16l-.4-.4a.431.431 0 0 0-.608 0l-2.013 2.013a.431.431 0 0 0 0 .608l.4.4a.491.491 0 0 1 .158-.4z" class="cls-10" transform="translate(-184.822 -68.811)"/>
        </g>
        <path id="Path_14168" fill="#193651" d="M71.529 20.315l1.418-1.1h.027a.42.42 0 0 0 .3-.123l.64-.64a.483.483 0 0 0 .527-.105l.506-.506a1.062 1.062 0 0 0 1.423-.069l.954-.954a.3.3 0 0 0-.424-.418l-.954.954a.464.464 0 0 1-.653 0l-.139-.139-1.38-1.38a.462.462 0 0 1 0-.653l3.126-3.131a.464.464 0 0 1 .653 0l1.519 1.519a.462.462 0 0 1 0 .653L76.9 16.4a.3.3 0 0 0 .423.423l2.177-2.177a1.061 1.061 0 0 0 .053-1.442l.175-.175.282.282a.836.836 0 0 0 1.183-1.183l-.282-.282.408-.408a.479.479 0 0 0 .094-.541l2.757-2.761a1.248 1.248 0 0 0 .946-2.129 1.246 1.246 0 0 0-.995-.36l-2.28-2.28a.3.3 0 0 0-.423.423l2.086 2.086a1.274 1.274 0 0 0-.327.346L79.4 2.441l-1.176-1.173a.658.658 0 0 0-.93 0l-3.441 3.441a.658.658 0 0 0 0 .93l5 5-.337.337-5-5a1.135 1.135 0 0 1 0-1.6L76.958.931a1.135 1.135 0 0 1 1.6 0l2.861 2.859a.3.3 0 1 0 .423-.423L78.984.508a1.731 1.731 0 0 0-2.449 0L73.093 3.95a1.734 1.734 0 0 0 0 2.449l5 5-.175.175a1.061 1.061 0 0 0-1.442.053l-3.127 3.127a1.062 1.062 0 0 0-.069 1.423l-.506.506a.484.484 0 0 0-.1.526l-.64.64a.419.419 0 0 0-.122.325l-1.1 1.418a.514.514 0 0 0 .72.72zm9.237-7.426a.238.238 0 0 1-.337 0l-.282-.282.337-.337.282.282a.238.238 0 0 1 0 .337zm3.008-6.458a.65.65 0 1 1 0 .92.651.651 0 0 1 0-.92zM83.2 7.587a1.272 1.272 0 0 0 .337.337l-2.53 2.53-.337-.337zm-7.962-1.41l-.962-.962a.06.06 0 0 1 0-.083l3.441-3.441a.06.06 0 0 1 .083 0l.962.962-.24.24-.135-.135a.73.73 0 0 0-1.031 0l-2.012 2.014a.73.73 0 0 0 0 1.031l.135.135zm3.419-2.119l-2.014 2.014a.132.132 0 0 1-.185 0l-.692-.692a.132.132 0 0 1 0-.185l2.014-2.013a.132.132 0 0 1 .185 0l.692.692a.132.132 0 0 1 0 .185zM77.263 8.2l-1.6-1.6.24-.24.135.135a.73.73 0 0 0 1.031 0l2.011-2.013a.73.73 0 0 0 0-1.031l-.135-.135.24-.24 1.6 1.6-.24.24-.135-.135a.73.73 0 0 0-1.031 0L77.369 6.8a.73.73 0 0 0 0 1.031l.135.135zm3.419-2.119L78.669 8.1a.132.132 0 0 1-.185 0l-.346-.346-.346-.346a.132.132 0 0 1 0-.185l2.013-2.013a.132.132 0 0 1 .185 0l.692.692a.132.132 0 0 1 0 .185zm-3 2.542l.24-.24.135.135a.73.73 0 0 0 1.031 0l2.013-2.013a.73.73 0 0 0 0-1.031l-.135-.135.24-.24 1.775 1.775v.075l-2.755 2.765a.477.477 0 0 0-.542.094l-.408.408zm2.336 1.69l.784.784-1.674 1.683-.784-.78zM73.7 16.605l.818.818-.421.421-.818-.818zm-.633 1.055l.4.4-.488.488-.4-.4zm-.8 1.026l.029.029.139.139-.745.578z"/>
    </g>
</svg>
