<svg xmlns="http://www.w3.org/2000/svg" width="28" height="28" viewBox="0 0 28 28">
    <defs>
        <style>
            .cls-2{fill:#fea613}.cls-4{fill:#838383}.cls-7{fill:#444}.cls-8{fill:#5a5a5a}.cls-9{fill:#bfbfbf}.cls-15{fill:#1c3e5d}
        </style>
    </defs>
    <g id="Towing_Services" transform="translate(-31 -1436)">
        <path id="Rectangle_91" fill="none" d="M0 0h28v28H0z" transform="translate(31 1436)"/>
        <g id="tow-truck" transform="translate(33 1389.01)">
            <g id="Group_15137" transform="translate(.352 51.341)">
                <path id="Path_14476" d="M66.316 67.92l-6.961-9.151a.718.718 0 0 0-1.212.76l5.192 10.229h2.981z" class="cls-2" transform="translate(-55.695 -58.486)"/>
                <path id="Path_14477" fill="#fe9901" d="M60.681 58.769a.717.717 0 0 0-1.224.137l6.857 9.014v1.838h1.329V67.92z" transform="translate(-57.022 -58.486)"/>
                <path id="Path_14478" d="M174.5 223.581h-4.014V219.6a1.737 1.737 0 0 1 1.737-1.737h2.277z" class="cls-4" transform="translate(-162.849 -210.387)"/>
                <path id="Path_14479" fill="#0473ce" d="M287.954 147.941v-8.789a.654.654 0 0 1 .654-.654h5.82a.654.654 0 0 1 .586.365l2.363 4.788a1.1 1.1 0 0 1 .114.489v3.8h-9.537z" transform="translate(-274.808 -134.747)"/>
                <path id="Path_14480" fill="#9c9c9c" d="M7.781 342.036h22.735a.281.281 0 0 0 .281-.281v-1.522a.281.281 0 0 0-.281-.281H7.781a.281.281 0 0 0-.281.281v1.522a.281.281 0 0 0 .281.281z" transform="translate(-7.5 -326.757)"/>
                <path id="Path_14481" d="M257.615 205.338h-1.492v-6.293a.327.327 0 0 1 .327-.327h1.165v6.62z" class="cls-7" transform="translate(-244.469 -192.145)"/>
                <circle id="Ellipse_984" cx="2.662" cy="2.662" r="2.662" class="cls-8" transform="translate(15.253 13.194)"/>
                <circle id="Ellipse_985" cx="1.118" cy="1.118" r="1.118" class="cls-9" transform="rotate(-80.8 18.174 -1.38)"/>
                <circle id="Ellipse_986" cx="2.662" cy="2.662" r="2.662" class="cls-8" transform="translate(2.37 13.194)"/>
                <circle id="Ellipse_987" cx="1.118" cy="1.118" r="1.118" class="cls-9" transform="rotate(-80.8 11.732 6.188)"/>
                <path id="Path_14482" fill="#0067c5" d="M396.588 143.65l-2.363-4.788a.654.654 0 0 0-.587-.365h-1.594a.654.654 0 0 1 .586.365l2.363 4.788a1.1 1.1 0 0 1 .114.489v3.8h1.593v-3.8a1.1 1.1 0 0 0-.112-.489z" transform="translate(-374.018 -134.747)"/>
                <path id="Path_14483" d="M466.079 339.951h-1.595a.281.281 0 0 1 .281.281v1.522a.281.281 0 0 1-.281.281h1.595a.281.281 0 0 0 .281-.281v-1.522a.281.281 0 0 0-.281-.281z" class="cls-4" transform="translate(-443.063 -326.757)"/>
                <path id="Path_14484" fill="#82aee3" d="M324.7 172.228l-1.493-3.025a.327.327 0 0 0-.293-.182h-4.03a.327.327 0 0 0-.327.327v3.025a.327.327 0 0 0 .327.327h5.523a.327.327 0 0 0 .293-.472z" transform="translate(-303.98 -163.84)"/>
                <path id="Path_14485" fill="#fec165" d="M453.244 278H451.7a.328.328 0 0 1-.328-.328v-.516a.328.328 0 0 1 .328-.328h1.549z" transform="translate(-430.561 -266.598)"/>
                <path id="Path_14486" fill="#fdb441" d="M457.4 276.836V278a.334.334 0 0 0 .045 0H459v-1.172h-1.549a.329.329 0 0 0-.051.008z" transform="translate(-436.314 -266.598)"/>
                <path id="Path_14487" d="M227.776 217.859h1.324v5.723h-1.329z" class="cls-8" transform="translate(-217.451 -210.388)"/>
                <circle id="Ellipse_988" cx=".855" cy=".855" r=".855" class="cls-2" transform="translate(8.911 8.579)"/>
                <path id="Path_14488" d="M376.177 339.951a2.666 2.666 0 0 0-.664.084 2.662 2.662 0 0 1 0 5.156 2.662 2.662 0 1 0 .664-5.24z" class="cls-7" transform="translate(-358.262 -326.757)"/>
                <path id="Path_14489" d="M101.336 339.951a2.666 2.666 0 0 0-.664.084 2.662 2.662 0 0 1 0 5.156 2.662 2.662 0 1 0 .664-5.24z" class="cls-7" transform="translate(-96.305 -326.757)"/>
                <path id="Path_14490" fill="#528fd8" d="M386.275 172.228l-1.493-3.025a.327.327 0 0 0-.293-.182h-1.329a.327.327 0 0 1 .293.182l1.493 3.025a.327.327 0 0 1-.293.472h1.329a.327.327 0 0 0 .293-.472z" transform="translate(-365.551 -163.84)"/>
            </g>
            <g id="Group_15138" transform="translate(0 50.99)">
                <path id="Path_14491" d="M191.3 234.006a1.207 1.207 0 1 0 1.207 1.207 1.208 1.208 0 0 0-1.207-1.207zm0 1.71a.5.5 0 1 1 .5-.5.5.5 0 0 1-.5.5z" class="cls-15" transform="translate(-181.184 -225.427)"/>
                <path id="Path_14492" d="M359.8 365.379a1.47 1.47 0 1 0 1.47 1.47 1.471 1.471 0 0 0-1.47-1.47zm0 2.236a.766.766 0 1 1 .767-.767.767.767 0 0 1-.767.767z" class="cls-15" transform="translate(-341.537 -350.642)"/>
                <path id="Path_14493" d="M84.963 365.379a1.47 1.47 0 1 0 1.47 1.47 1.471 1.471 0 0 0-1.47-1.47zm0 2.236a.766.766 0 1 1 .766-.767.767.767 0 0 1-.766.767z" class="cls-15" transform="translate(-79.579 -350.642)"/>
                <path id="Path_14494" d="M23.387 64.184v-3.451a1.462 1.462 0 0 0-.15-.644l-1.287-2.607a.352.352 0 0 0-.631.311l1.287 2.607a.756.756 0 0 1 .078.333v.492h-1.2a.68.68 0 0 0-.68.68v.516a.68.68 0 0 0 .68.68h1.2v1.084h-8.835v-8.439a.3.3 0 0 1 .3-.3h5.82a.3.3 0 0 1 .271.169l1.077 2.182c.086.174.063-.225.237-.311s.479.151.393-.023L20.873 55.3a1 1 0 0 0-.9-.56h-5.82a1.007 1.007 0 0 0-1.006 1.006v1.817h-.813a.679.679 0 0 0-.679.679v.219h-2l-1.639-2.153a.352.352 0 0 0-.56.426l1.444 1.9a2.1 2.1 0 0 0-1.26 1.917v.595l-4.527-8.921a.366.366 0 0 1 .618-.388l3.725 4.9c.118.155-.088-.375.067-.493s.61.221.493.067l-3.725-4.9a1.07 1.07 0 0 0-1.8 1.132l.644 1.268v4.095a.559.559 0 0 0 .558.558h.447a.233.233 0 0 1 .233.233v.115a.348.348 0 0 1-.348.348h-.544a.352.352 0 0 0 0 .7h.539a1.052 1.052 0 0 0 1.051-1.051V58.7a.937.937 0 0 0-.936-.936h-.3V55.2l3.805 7.5v1.486H.633a.634.634 0 0 0-.633.63v1.522a.634.634 0 0 0 .633.633H2.38c-.006.074-.009.149-.009.225a3.013 3.013 0 1 0 6.026 0c0-.076 0-.151-.009-.225h6.876a3.013 3.013 0 1 0 6.017.225c0-.076 0-.151-.009-.225h2.1a.634.634 0 0 0 .628-.633v-1.522a.633.633 0 0 0-.613-.632zM21.509 62.4v-.469h1.174v.469zm-9.152-3.585v-.546h.789v5.917h-.789zm-4.014 3.8V60.54a1.389 1.389 0 0 1 1.386-1.375h1.925v5.02H8.343v-1.57zm-5.826 3.653H.7v-1.382h2.749a3.042 3.042 0 0 0-.932 1.382zm2.866 3.238a2.31 2.31 0 1 1 2.31-2.31 2.313 2.313 0 0 1-2.31 2.31zM15.4 66.268H8.25a3.043 3.043 0 0 0-.932-1.382h9.015a3.041 3.041 0 0 0-.932 1.382zm2.866 3.238a2.31 2.31 0 1 1 0-4.62 2.31 2.31 0 0 1 0 4.62zm5.03-3.238h-2.163a3.042 3.042 0 0 0-.932-1.382h3.1z" class="cls-15" transform="translate(0 -50.99)"/>
                <path id="Path_14495" d="M315.769 161.522h-4.03a.679.679 0 0 0-.679.679v3.025a.679.679 0 0 0 .679.679h5.523a.679.679 0 0 0 .609-.979l-1.493-3.025a.674.674 0 0 0-.609-.379zm-4.005 3.679v-2.976h3.99l1.469 2.976z" class="cls-15" transform="translate(-296.48 -156.341)"/>
            </g>
        </g>
    </g>
</svg>
