<svg xmlns="http://www.w3.org/2000/svg" width="28" height="28" viewBox="0 0 28 28">
    <defs>
        <style>
            .cls-2{fill:none}.cls-5{fill:#72bcef}.cls-6{fill:#67b5f4}.cls-7{fill:#50a6ea}
        </style>
    </defs>
    <g id="Travel" transform="translate(-23 -359) translate(23 359)">
        <g id="Flights">
            <path id="Rectangle_91" d="M0 0h28v28H0z" class="cls-2"/>
            <g id="daily-needs-icn">
                <path id="Rectangle_91-2" d="M0 0h28v28H0z" class="cls-2"/>
                <g id="Group_14772" transform="translate(-1)">
                    <g id="flight_1_" transform="translate(-8.001 -115.793)">
                        <path id="Path_13238" fill="#e5f5fd" d="M40.523 128.2a6.34 6.34 0 0 0-5.368.351l-11.919 6.274-2.821-2.085a3.184 3.184 0 0 0-3.154-.385l-1.26.533 4.924 4.273a3.266 3.266 0 0 0 2.239.826 1.625 1.625 0 0 0 .6-.116l4.936-2.032.022.009.428-1.208 5.273-2.226-.665 1.228 6.8-2.878a1.407 1.407 0 0 0-.033-2.563z" transform="translate(-5.682 -5.631)"/>
                        <path id="Path_13239" fill="#b9c8db" d="M17.26 133.481a3.184 3.184 0 0 1 3.154.385l2.5 1.849a.624.624 0 0 0 .667.053l4.932-2.6 3.281-1.727 3.357-1.767a6.34 6.34 0 0 1 5.368-.351 1.29 1.29 0 0 1 .732.724 1.481 1.481 0 0 0 .111-.565 1.35 1.35 0 0 0-.843-1.289 6.34 6.34 0 0 0-5.368.351l-3.351 1.771-3.281 1.727-5.28 2.779-2.821-2.085a3.184 3.184 0 0 0-3.154-.385l-1.26.533.875.76z" transform="translate(-5.682 -5.631)"/>
                        <path id="Path_13240" d="M176.788 133.136l-3.281 1.727-4.426-3.05 1.635-1.063z" class="cls-5" transform="translate(-150.672 -8.452)"/>
                        <path id="Path_13241" d="M175.409 143.1l-5.589-2.541-.74.508 4.426 3.05z" class="cls-6" transform="translate(-150.672 -17.708)"/>
                        <path id="Path_13242" d="M174.775 146.272l-5.219-2.711-.476.339 4.426 3.05z" class="cls-7" transform="translate(-150.672 -20.539)"/>
                        <path id="Path_13243" d="M221.807 210.051l-.665 1.228-4.665 8.614h-2.637l2.266-6.407.428-1.208z" class="cls-5" transform="translate(-193.067 -83.272)"/>
                        <path id="Path_13244" d="M220.436 235.451l-1.9.791-.428 1.209-2.266 6.407h1z" class="cls-6" transform="translate(-194.961 -107.237)"/>
                        <path id="Path_13245" d="M219.485 242.451l-.951.4-.428 1.208-2.266 6.407h.476z" class="cls-7" transform="translate(-194.961 -113.841)"/>
                        <path id="Path_13246" fill="#333a60" stroke="#333a60" stroke-width="0.2px" d="M34.95 122.247a6.658 6.658 0 0 0-5.617.366l-3.235 1.7-5.946-2.335a.3.3 0 0 0-.274.029l-1.634 1.063a.352.352 0 0 0-.007.575l3.955 2.725-4.61 2.427-2.668-1.972a3.477 3.477 0 0 0-3.451-.422l-1.261.534a.335.335 0 0 0-.2.264.351.351 0 0 0 .114.315l4.923 4.273a3.582 3.582 0 0 0 2.342.9h.107a1.925 1.925 0 0 0 .7-.139l4.3-1.772-2.023 5.72a.359.359 0 0 0 .036.313.312.312 0 0 0 .261.146h2.648a.314.314 0 0 0 .274-.169l4.61-8.512 6.7-2.834a1.755 1.755 0 0 0-.041-3.2zm-15.944 1.122l1.071-.7 5.235 2.056-2.456 1.293zm4.221 12.912h-1.995l2.482-7.016 4.3-1.813zm11.53-11.468l-5.95 2.519.208-.383a.358.358 0 0 0-.034-.391.3.3 0 0 0-.357-.094l-5.274 2.226a.329.329 0 0 0-.18.2l-.37 1.046-4.836 1.991a1.337 1.337 0 0 1-.493.093 2.96 2.96 0 0 1-2.03-.751l-4.5-3.908.757-.32a2.879 2.879 0 0 1 2.857.349l2.821 2.085a.3.3 0 0 0 .32.025l11.923-6.276a6.061 6.061 0 0 1 5.115-.335 1.059 1.059 0 0 1 .025 1.93z"/>
                    </g>
                    <rect id="Rectangle_15843" width="18" height="1" fill="#d6d7df" rx=".5" transform="translate(2 24)"/>
                </g>
            </g>
        </g>
    </g>
</svg>
