<svg xmlns="http://www.w3.org/2000/svg" id="Wall_Papers" width="28" height="28" viewBox="0 0 28 28">
    <defs>
        <style>
            .cls-2{fill:#54c9fd}.cls-3{fill:#33a9f8}.cls-6{fill:#193651}
        </style>
    </defs>
    <path id="Rectangle_91" fill="none" d="M0 0h28v28H0z"/>
    <g id="wallpaper" transform="translate(4.5 4.334)">
        <path id="Path_14305" d="M250.8 7.393v11.562h8.759c.771 0 1.4.946 1.4 2.1V7.393z" class="cls-2" transform="translate(-241.292 -8.043)"/>
        <path id="Path_14306" d="M470.084 20.357l-1.051-1.051V7.393h1.051z" class="cls-3" transform="translate(-450.412 -8.043)"/>
        <path id="Path_14307" fill="#ffdd09" d="M16.152 23.16c-.771 0-1.4-.946-1.4-2.1s.631-2.1 1.4-2.1h1.4V7.393H7.393v20.322h10.161V23.16z" transform="translate(-8.043 -8.043)"/>
        <path id="Path_14308" fill="#fff" d="M7.393 27.715h1.051V7.393H7.393z" transform="translate(-8.043 -8.043)"/>
        <path id="Path_14309" d="M429.868 286.479c0 1.156-.631 2.1-1.4 2.1s-1.4-.946-1.4-2.1.631-2.1 1.4-2.1 1.4.946 1.4 2.1" class="cls-3" transform="translate(-410.196 -273.464)"/>
        <path id="Path_14310" d="M193.817 286.479c0-1.156.631-2.1 1.4-2.1h-10.159c-.771 0-1.4.946-1.4 2.1s.631 2.1 1.4 2.1h10.161c-.771 0-1.4-.946-1.4-2.1" class="cls-2" transform="translate(-176.948 -273.464)"/>
        <path id="Path_14311" d="M420.424 280.889c-.981 0-1.752-1.086-1.752-2.453s.771-2.453 1.752-2.453 1.752 1.086 1.752 2.453-.776 2.453-1.752 2.453zm0-4.2c-.561 0-1.051.806-1.051 1.752s.491 1.752 1.051 1.752 1.051-.806 1.051-1.752-.491-1.756-1.051-1.756z" class="cls-6" transform="translate(-402.153 -265.422)"/>
        <path id="Path_14312" d="M187.175 280.889h-10.161c-.981 0-1.752-1.086-1.752-2.453s.771-2.453 1.752-2.453h10.161a.35.35 0 1 1 0 .7c-.561 0-1.051.806-1.051 1.752s.491 1.752 1.051 1.752a.35.35 0 0 1 0 .7zm-10.161-4.2c-.561 0-1.051.806-1.051 1.752s.491 1.752 1.051 1.752h8.935a3.183 3.183 0 0 1 0-3.5z" class="cls-6" transform="translate(-168.904 -265.422)"/>
        <path id="Path_14313" d="M252.921 13.365a.331.331 0 0 1-.35-.35c0-.946-.491-1.752-1.051-1.752h-8.76a.331.331 0 0 1-.35-.35V-.65a.331.331 0 0 1 .35-.35h10.161a.331.331 0 0 1 .35.35v13.665a.331.331 0 0 1-.35.35zm-9.81-2.8h8.409a1.419 1.419 0 0 1 1.051.491V-.3h-9.46z" class="cls-6" transform="translate(-233.249)"/>
        <path id="Path_14314" d="M9.511 20.023H-.65a.331.331 0 0 1-.35-.35V-.65A.331.331 0 0 1-.65-1H9.511a.331.331 0 0 1 .35.35v11.563a.331.331 0 0 1-.35.35H8.11c-.561 0-1.051.806-1.051 1.752s.491 1.752 1.051 1.752h1.4a.331.331 0 0 1 .35.35v4.555a.331.331 0 0 1-.349.351zm-9.81-.7h9.46v-3.855H8.11c-.981 0-1.752-1.086-1.752-2.453s.771-2.453 1.752-2.453h1.051V-.3H-.3z" class="cls-6"/>
    </g>
</svg>
