<svg xmlns="http://www.w3.org/2000/svg" width="28" height="28" viewBox="0 0 28 28">
    <defs>
        <style>
            .cls-4{fill:#253342}
        </style>
    </defs>
    <g id="Water_Suppliers" transform="translate(-225 -93)">
        <path id="Rectangle_91" fill="none" d="M0 0h28v28H0z" transform="translate(225 93)"/>
        <g id="water-drop" transform="translate(174.889 96)">
            <g id="Group_14973" transform="translate(55.542 .431)">
                <g id="Group_14971">
                    <path id="Path_13674" fill="#a3e0fb" d="M80.173 22.328a7.581 7.581 0 1 1-13.584-3.269L72.692 10l3.91 5.8" transform="translate(-65.111 -10)"/>
                </g>
                <g id="Group_14972" transform="translate(9.605 3.568)">
                    <path id="Path_13675" fill="#4696e6" d="M288.068 98.9a3.377 3.377 0 0 1 .662-2.013l2.731-4.054 2.731 4.054a3.393 3.393 0 1 1-6.124 2.013z" transform="translate(-288.068 -92.831)"/>
                </g>
            </g>
            <g id="Group_14974" transform="translate(55.111)">
                <path id="Path_13676" d="M101.3 250.577a5.051 5.051 0 0 1-2.563-7.818.438.438 0 0 0 .039-.064.431.431 0 0 0-.737-.442 5.912 5.912 0 0 0 .026 7.038 5.96 5.96 0 0 0 2.979 2.108.431.431 0 0 0 .256-.823z" class="cls-4" transform="translate(-95.091 -231.644)"/>
                <path id="Path_13677" d="M72.363 10.067a3.793 3.793 0 0 0-.739-2.26L68.9 3.758a.431.431 0 0 0-.715 0l-1.152 1.706L63.48.19a.431.431 0 0 0-.715 0l-6.1 9.054a8.012 8.012 0 1 0 14.468 4.745 8.087 8.087 0 0 0-.069-1.054 3.815 3.815 0 0 0 1.299-2.868zm-3.823-5.3l2.37 3.518.015.022a2.962 2.962 0 1 1-4.769 0l.014-.021 1.22-1.811.007-.01zm1.733 9.218a7.15 7.15 0 1 1-12.906-4.239l.015-.022L63.123 1.2l3.391 5.033-1.059 1.574a3.823 3.823 0 0 0 4.8 5.676q.018.252.018.505z" class="cls-4" transform="translate(-55.111)"/>
                <path id="Path_13678" d="M312.423 204.483a1.464 1.464 0 0 1 .126-.6.431.431 0 0 0-.787-.35 2.339 2.339 0 0 0 .838 2.893.431.431 0 1 0 .479-.716 1.475 1.475 0 0 1-.656-1.227z" class="cls-4" transform="translate(-300.513 -194.521)"/>
                <path id="Path_13679" d="M217.962 447.478a.431.431 0 1 0-.482.587.434.434 0 0 0 .482-.587z" class="cls-4" transform="translate(-210.154 -427.948)"/>
                <path id="Path_13680" d="M357.352 267.949a.431.431 0 1 0 0-.716.433.433 0 0 0 0 .716z" class="cls-4" transform="translate(-344.151 -255.65)"/>
            </g>
        </g>
    </g>
</svg>
