<svg xmlns="http://www.w3.org/2000/svg" width="28" height="28" viewBox="0 0 28 28">
    <defs>
        <style>
            .cls-2{fill:#5fc68f}.cls-3{fill:#7adbae}.cls-4{fill:#e9b87e}.cls-5{fill:#ffd39f}.cls-6{fill:#6d6d6d}.cls-11{fill:#333a60}
        </style>
    </defs>
    <g id="Yoga_Classes">
        <path id="Rectangle_91" fill="none" d="M0 0h28v28H0z"/>
        <g id="yoga" transform="translate(.998 -3.974)">
            <path id="Path_13893" d="M90.372 284.37c0 3.082-3.524 3.324-9.93 6.7l-.743-1.916c5.958-5.049 5.368-4.5 6.563-5.293l4.11.514z" class="cls-2" transform="translate(-75.571 -264.44)"/>
            <path id="Path_13894" d="M91.609 284.315c-.718 2.207-4.122 2.744-9.769 5.714l-.371-.956c5.86-4.926 4.938-4.194 6.471-5.216z" class="cls-3" transform="translate(-77.249 -264.44)"/>
            <path id="Path_13895" d="M10.656 391.6a.414.414 0 0 1-.375.485 1.543 1.543 0 0 1-1.552-.98l-.63-1.626a1.028 1.028 0 0 1 .388-1.226l3.254-2.171.743 1.916-2.21 1.407z" class="cls-4" transform="translate(-7.611 -361.367)"/>
            <path id="Path_13896" d="M9.828 391.736a.854.854 0 0 1-1.167.935l-.561-1.453a1.028 1.028 0 0 1 .388-1.226l3.111-2.076.322.829-2.354 1.484z" class="cls-5" transform="translate(-7.611 -363.112)"/>
            <path id="Path_13897" d="M290.117 35.339a2.519 2.519 0 0 1-2.217 1.291 13.735 13.735 0 0 0-1.134 2.409 3.225 3.225 0 0 1-.666-.916 3.338 3.338 0 0 1-.313-1.634 1.033 1.033 0 0 0 .506-.575c.317-.9.347-.91.333-1.209a2.348 2.348 0 0 1 3.491.634z" class="cls-6" transform="translate(-270.987 -27.704)"/>
            <path id="Path_13898" d="M258.447 26.966a2.49 2.49 0 0 1-.238.844 1.241 1.241 0 0 1-.56.831 1.044 1.044 0 0 1-1.521-1.242l.27-.767a1.06 1.06 0 0 1 1.339-.636 1.029 1.029 0 0 1 .71.97z" class="cls-6" transform="translate(-242.803 -19.879)"/>
            <path id="Path_13899" d="M212.151 287.648c-.419 2.03-.3 1.457-.6 2.886H209.4l.271-2.378a37.973 37.973 0 0 0-4.674-.19 5.739 5.739 0 0 1-2.055-.514 2.9 2.9 0 0 1-1.027-3.6l4.11.514c3.625.89 2.157.276 4.972 1.252h.007a1.766 1.766 0 0 1 1.147 2.03z" class="cls-2" transform="translate(-191.221 -264.44)"/>
            <path id="Path_13900" d="M219.521 288.17l-.51 2.474a1.545 1.545 0 0 1-1.24-1.644l.121-1.415a45.24 45.24 0 0 0-5.143-.19 5.74 5.74 0 0 1-2.055-.514 2.582 2.582 0 0 1-1.254-2.072 2.71 2.71 0 0 1 .074-.4l3.88.485c3.625.89 2.157.276 4.972 1.252h.007a1.766 1.766 0 0 1 1.148 2.024z" class="cls-3" transform="translate(-198.592 -264.962)"/>
            <path id="Path_13901" d="M344.768 417.439h-2.792a1.027 1.027 0 0 1-1-1.276 15.54 15.54 0 0 0 .488-3.347h2.157l-.621 3.025 1.286.322a1.208 1.208 0 0 1 .9.836.417.417 0 0 1-.418.44z" class="cls-4" transform="translate(-323.29 -386.722)"/>
            <path id="Path_13902" d="M363.276 417h-2.22a1.027 1.027 0 0 1-1-1.276 12.7 12.7 0 0 0 .438-2.907h1.22l-.624 3.025 1.286.322a1.208 1.208 0 0 1 .9.836z" class="cls-5" transform="translate(-341.382 -386.722)"/>
            <path id="Path_13903" fill="#f9cfac" d="M308.343 57.474v2.247a1.3 1.3 0 0 1-1.321 1.284 3.334 3.334 0 0 1-2.323-.93 13.732 13.732 0 0 1 1.134-2.409 2.519 2.519 0 0 0 2.214-1.291 2.18 2.18 0 0 1 .296 1.099z" transform="translate(-288.918 -48.74)"/>
            <path id="Path_13904" d="M311.861 59.465a1.315 1.315 0 0 1-1.271.935 3.337 3.337 0 0 1-2.181-.8 11.422 11.422 0 0 1 .942-1.932 2.519 2.519 0 0 0 2.214-1.291c.386.663.296 1.067.296 3.088z" class="cls-5" transform="translate(-292.436 -48.74)"/>
            <path id="Path_13905" fill="#b3cec9" d="M215.163 132.2c0 1.027-1.178 2.2-1.541 2.568a29.666 29.666 0 0 1-3.082 2.013l-4.11-.472a13.517 13.517 0 0 0 5.11-8.1 3.324 3.324 0 0 0 1.107.693l.975.731a4.488 4.488 0 0 1 1.541 2.569z" transform="translate(-195.738 -116.85)"/>
            <path id="Path_13906" fill="#cae0dd" d="M219.659 137.386c0 1.027-1.178 2.2-1.541 2.568a3.171 3.171 0 0 1-.332.273 7.631 7.631 0 0 1-5.356 1.44 13.523 13.523 0 0 0 4.726-7.572l.962.721a4.488 4.488 0 0 1 1.541 2.57z" transform="translate(-201.427 -122.435)"/>
            <path id="Path_13907" d="M324.511 17.177a1.122 1.122 0 0 1-.331.677l-7.606 7.606a1.09 1.09 0 0 1-1.541-1.541l5.311-5.311a3.717 3.717 0 0 0 .929-1.548 1.121 1.121 0 0 1 1.383-.763 1.091 1.091 0 0 1 1.855.88z" class="cls-4" transform="translate(-298.413 -10.432)"/>
            <path id="Path_13908" d="M324.532 16.251a1.109 1.109 0 0 1-.332.7l-7.606 7.606a1.091 1.091 0 0 1-1.372.139.983.983 0 0 1-.052-.181 1.084 1.084 0 0 1 .3-.554l5.311-5.311a3.718 3.718 0 0 0 .928-1.548 1.121 1.121 0 0 1 1.383-.763 1.09 1.09 0 0 1 1.44-.088z" class="cls-5" transform="translate(-298.847 -10.473)"/>
            <path id="Path_13909" fill="#797a7a" d="M266.573 26.809c-.652.928-2.838 1.185-4.312.864a.8.8 0 0 1-.584-1.042 1.06 1.06 0 0 1 1.339-.636 1.034 1.034 0 0 1 .706.886 2.364 2.364 0 0 1 2.851-.072z" transform="translate(-248.08 -19.878)"/>
            <path id="Path_13910" d="M254.661 7.28a2.757 2.757 0 0 0-3.629-1.067 1.48 1.48 0 0 0-2.658.246l-.278.789a1.447 1.447 0 0 0 1.47 1.911 3.548 3.548 0 0 0 .948 2.167 14.578 14.578 0 0 1-1.706 4.167.414.414 0 1 0 .707.433 15.272 15.272 0 0 0 1.7-4.007 3.7 3.7 0 0 0 .655.338l.231.173-.608.608a.414.414 0 1 0 .586.586l5.311-5.311a4.108 4.108 0 0 0 1.21-2.924.414.414 0 1 0-.829 0 3.285 3.285 0 0 1-.968 2.338l-1.8 1.8a3.944 3.944 0 0 0-.342-2.247zm-5.783.244l.278-.789a.645.645 0 0 1 1.241.142.6.6 0 0 1-.032.251c-.271.768-.289.985-.583 1.134a.629.629 0 0 1-.904-.739zm2.566 3.538l.349-.865a.414.414 0 1 0-.769-.31l-.2.5a2.7 2.7 0 0 1-.44-1.526c.465-.357.543-.833.761-1.453a1.509 1.509 0 0 0 .076-.345 1.94 1.94 0 0 1 2.584.426 2.115 2.115 0 0 1-1.722.872.415.415 0 0 0-.232.758 2.563 2.563 0 0 0 2.311-.776c.022.161.016.059.016 2.017l-1.312 1.313a2.931 2.931 0 0 1-1.422-.611z" class="cls-11" transform="translate(-235.169 -.001)"/>
            <path id="Path_13911" d="M26.517 6.478a1.507 1.507 0 0 0-2.567-1.063.414.414 0 0 0 .586.585.675.675 0 0 1 .955.955l-7.623 7.623a.415.415 0 0 0 .293.707c.225 0 .29-.118.747-.575a1.4 1.4 0 0 1 .1.48 3.911 3.911 0 0 1-1.42 2.276 25.135 25.135 0 0 1-2.877 1.877l-1.4-.175a.414.414 0 1 0-.1.822l1.517.19c3.523.864 2.137.282 4.918 1.238a1.355 1.355 0 0 1 .879 1.549L20 25.522h-1.359l.219-1.922a.414.414 0 0 0-.374-.46 38.418 38.418 0 0 0-4.724-.192 5.415 5.415 0 0 1-1.852-.467A2.5 2.5 0 0 1 11 19.59a10.846 10.846 0 0 0 1.162-.956.414.414 0 1 0-.568-.6 10.117 10.117 0 0 1-.989.822c-.6.13-4.017 3.088-4.531 3.521a33.283 33.283 0 0 1-5.428 4A1.433 1.433 0 0 0 .1 28.1a10.069 10.069 0 0 0 .856 2.047H.418a.414.414 0 0 0 0 .829H26.1a.414.414 0 0 0 0-.829h-3.743a1.727 1.727 0 0 0-1.26-1.264l-.9-.225 1.139-5.522a2.186 2.186 0 0 0-1.426-2.5 19.961 19.961 0 0 0-4.019-1.028 17.815 17.815 0 0 0 2.289-1.555c.411-.411 1.66-1.662 1.66-2.859a2.494 2.494 0 0 0-.3-1.108l6.541-6.541a1.494 1.494 0 0 0 .441-1.063zm-16.48 13.714a3.3 3.3 0 0 0 1.2 2.847c-1.541.717-3.608 1.539-6.143 2.847l-.468-1.208c4.101-3.45 4.787-4.049 5.411-4.486zm-8.932 6.875l2.825-1.884.433 1.117-1.923 1.225a.414.414 0 0 0-.186.42l.382 2.2a1.129 1.129 0 0 1-1.136-.72L.874 27.8a.609.609 0 0 1 .231-.732zm2.013 1.008a34.822 34.822 0 0 1 6.863-3.568c.847-.373 1.586-.7 2.228-1.018 1.741.552 1.5.077 5.779.443-.6 5.284-.453 4.256-.7 5.249a1.431 1.431 0 0 0 .093.963H3.478zm17.782 1.61a.9.9 0 0 1 .582.46h-2.796a.613.613 0 0 1-.595-.762 13.306 13.306 0 0 0 .455-3.033h1.279l-.525 2.528a.414.414 0 0 0 .305.486z" class="cls-11"/>
            <path id="Path_13912" fill="none" stroke="#333a60" stroke-linecap="round" stroke-width="0.7px" d="M3048.422 886.125a18 18 0 0 1-2.641 3.25" transform="translate(-3034.363 -870.589)"/>
        </g>
    </g>
</svg>
